<svg xmlns="http://www.w3.org/2000/svg" xmlns:xlink="http://www.w3.org/1999/xlink" width="202" zoomAndPan="magnify" viewBox="0 0 151.5 88.499997" height="118" preserveAspectRatio="xMidYMid meet" version="1.0"><path fill="#c43c3c" d="M 24.867188 81.378906 C 25.421875 81.378906 26 81.082031 26.609375 80.488281 C 27.230469 79.882812 27.84375 79.117188 28.453125 78.191406 C 29.074219 77.257812 29.648438 76.28125 30.175781 75.261719 C 30.703125 74.234375 31.171875 73.273438 31.585938 72.371094 C 32.003906 71.476562 32.308594 70.789062 32.496094 70.3125 L 33.210938 72.429688 C 32.785156 73.738281 32.28125 75.144531 31.703125 76.648438 C 31.132812 78.152344 30.433594 79.570312 29.601562 80.902344 C 28.78125 82.238281 27.78125 83.328125 26.589844 84.167969 C 25.402344 85 23.964844 85.414062 22.292969 85.414062 C 21.523438 85.414062 20.925781 85.144531 20.488281 84.605469 C 20.0625 84.050781 19.761719 83.375 19.578125 82.585938 C 19.386719 81.785156 19.28125 80.976562 19.238281 80.171875 C 19.199219 79.355469 19.179688 78.695312 19.179688 78.191406 C 19.179688 77.335938 19.203125 76.488281 19.257812 75.65625 C 19.308594 74.816406 19.386719 73.976562 19.496094 73.144531 C 19.023438 73.738281 18.554688 74.523438 18.109375 75.5 C 17.675781 76.464844 17.207031 77.488281 16.722656 78.566406 C 16.246094 79.652344 15.722656 80.675781 15.15625 81.636719 C 14.589844 82.585938 13.9375 83.371094 13.214844 83.992188 C 12.488281 84.597656 11.652344 84.902344 10.699219 84.902344 C 8.53125 84.902344 7.039062 84.402344 6.222656 83.398438 C 5.414062 82.382812 5.011719 80.9375 5.011719 79.0625 C 5.011719 76.78125 5.328125 74.484375 5.964844 72.175781 C 6.609375 69.867188 7.570312 67.710938 8.835938 65.703125 C 10.105469 63.683594 11.671875 61.972656 13.53125 60.554688 C 14.152344 60.109375 14.839844 59.679688 15.59375 59.269531 C 16.355469 58.863281 17.125 58.65625 17.890625 58.65625 C 18.644531 58.65625 19.367188 58.855469 20.070312 59.25 C 20.785156 59.644531 21.339844 60.15625 21.738281 60.773438 C 22.132812 58.980469 22.5 57.160156 22.847656 55.3125 C 23.203125 53.464844 23.382812 51.621094 23.382812 49.769531 C 23.382812 49.453125 23.351562 48.992188 23.300781 48.382812 C 23.246094 47.765625 23.109375 47.207031 22.886719 46.699219 C 22.671875 46.1875 22.316406 45.929688 21.816406 45.929688 C 21.628906 45.929688 21.429688 45.988281 21.222656 46.105469 C 21.640625 45.671875 22.164062 45.238281 22.785156 44.800781 C 23.421875 44.367188 24.054688 44.148438 24.6875 44.148438 C 25.230469 44.148438 25.785156 44.339844 26.351562 44.722656 C 26.933594 45.109375 27.421875 45.582031 27.820312 46.148438 C 28.214844 46.699219 28.414062 47.246094 28.414062 47.769531 C 28.414062 49.589844 28.242188 51.511719 27.898438 53.53125 C 27.550781 55.539062 27.125 57.597656 26.609375 59.703125 C 26.105469 61.804688 25.589844 63.910156 25.066406 66.019531 C 24.550781 68.117188 24.121094 70.164062 23.777344 72.15625 C 23.429688 74.148438 23.261719 76.054688 23.261719 77.875 C 23.261719 78.222656 23.285156 78.675781 23.339844 79.238281 C 23.390625 79.792969 23.53125 80.289062 23.757812 80.722656 C 23.980469 81.160156 24.351562 81.378906 24.867188 81.378906 Z M 10.820312 81.695312 C 11.609375 81.695312 12.402344 81.308594 13.195312 80.527344 C 13.988281 79.734375 14.742188 78.707031 15.453125 77.4375 C 16.179688 76.164062 16.847656 74.761719 17.457031 73.242188 C 18.0625 71.714844 18.617188 70.191406 19.121094 68.671875 C 19.636719 67.15625 20.070312 65.777344 20.429688 64.535156 C 20.796875 63.296875 21.0625 62.347656 21.222656 61.683594 L 20.667969 61.644531 C 19.859375 61.644531 19.0625 61.863281 18.269531 62.296875 C 17.484375 62.722656 16.734375 63.265625 16.011719 63.941406 C 15.296875 64.601562 14.632812 65.296875 14.027344 66.019531 C 13.433594 66.730469 12.9375 67.394531 12.542969 67.996094 C 12.15625 68.550781 11.78125 69.3125 11.414062 70.273438 C 11.042969 71.238281 10.699219 72.273438 10.382812 73.382812 C 10.074219 74.480469 9.835938 75.539062 9.667969 76.566406 C 9.496094 77.597656 9.410156 78.445312 9.410156 79.101562 C 9.410156 79.394531 9.4375 79.75 9.492188 80.171875 C 9.539062 80.582031 9.667969 80.9375 9.867188 81.238281 C 10.074219 81.546875 10.390625 81.695312 10.820312 81.695312 Z M 10.820312 81.695312 " fill-opacity="1" fill-rule="nonzero"/><path fill="#c43c3c" d="M 32.847656 49.847656 C 32.847656 49.847656 33.046875 49.84375 33.441406 49.828125 C 33.847656 49.820312 34.285156 49.882812 34.75 50.027344 C 35.210938 50.160156 35.574219 50.4375 35.839844 50.859375 C 36.117188 51.28125 36.117188 51.9375 35.839844 52.816406 C 35.574219 53.6875 35.226562 54.527344 34.789062 55.332031 C 34.355469 56.136719 33.898438 56.816406 33.421875 57.371094 C 32.957031 57.921875 32.535156 58.328125 32.15625 58.578125 C 31.785156 58.8125 31.53125 58.84375 31.402344 58.65625 C 31.269531 58.433594 31.304688 58.078125 31.5 57.585938 C 31.710938 57.101562 31.957031 56.566406 32.234375 55.984375 C 32.511719 55.390625 32.695312 54.847656 32.789062 54.339844 C 32.878906 53.828125 32.769531 53.480469 32.453125 53.292969 C 32.027344 53.003906 31.722656 52.613281 31.539062 52.125 C 31.367188 51.625 31.382812 51.15625 31.582031 50.71875 C 31.789062 50.273438 32.214844 49.980469 32.847656 49.847656 Z M 32.847656 49.847656 " fill-opacity="1" fill-rule="nonzero"/><path fill="#c43c3c" d="M 67.210938 45.175781 C 70.035156 45.175781 72.546875 45.609375 74.738281 46.464844 C 76.945312 47.308594 78.667969 48.617188 79.910156 50.382812 C 81.148438 52.140625 81.734375 54.359375 81.65625 57.050781 C 81.601562 58.96875 81.164062 60.585938 80.347656 61.902344 C 79.527344 63.222656 78.425781 64.292969 77.039062 65.109375 C 75.652344 65.914062 74.054688 66.507812 72.261719 66.890625 C 70.464844 67.261719 68.523438 67.445312 66.4375 67.445312 C 66.25 67.445312 66.0625 67.445312 65.863281 67.445312 C 65.664062 67.445312 65.457031 67.433594 65.25 67.402344 C 65.25 67.402344 65.238281 67.714844 65.230469 68.335938 C 65.214844 68.941406 65.210938 69.71875 65.210938 70.671875 C 65.210938 71.609375 65.210938 72.621094 65.210938 73.699219 C 65.210938 74.765625 65.199219 75.796875 65.1875 76.785156 C 65.175781 77.777344 65.15625 78.585938 65.128906 79.21875 C 65.101562 79.710938 65.089844 80.300781 65.089844 80.980469 C 65.089844 81.65625 65.019531 82.316406 64.890625 82.960938 C 64.757812 83.59375 64.503906 84.125 64.140625 84.542969 C 63.78125 84.964844 63.238281 85.179688 62.515625 85.179688 C 61.746094 85.179688 61.113281 85.144531 60.613281 85.078125 C 60.121094 85.007812 59.53125 84.8125 58.847656 84.464844 L 59.007812 49.414062 C 58.359375 49.414062 57.785156 49.691406 57.285156 50.242188 C 56.78125 50.789062 56.332031 51.460938 55.9375 52.261719 C 55.53125 53.054688 55.183594 53.855469 54.90625 54.65625 C 54.628906 55.449219 54.398438 56.121094 54.210938 56.675781 C 54.015625 57.222656 53.863281 57.488281 53.757812 57.488281 C 53.492188 57.488281 53.25 57.320312 53.023438 56.972656 C 52.800781 56.617188 52.601562 56.203125 52.429688 55.726562 C 52.261719 55.25 52.132812 54.796875 52.050781 54.359375 C 51.964844 53.914062 51.914062 53.597656 51.914062 53.410156 C 51.914062 51.84375 52.261719 50.539062 52.945312 49.511719 C 53.617188 48.480469 54.523438 47.679688 55.660156 47.097656 C 56.796875 46.519531 58.035156 46.097656 59.382812 45.832031 C 60.730469 45.554688 62.082031 45.375 63.445312 45.296875 C 64.804688 45.214844 66.0625 45.175781 67.210938 45.175781 Z M 66.277344 63.882812 C 67.53125 63.882812 68.800781 63.777344 70.082031 63.5625 C 71.363281 63.355469 72.539062 62.96875 73.609375 62.417969 C 74.679688 61.851562 75.53125 61.039062 76.167969 59.980469 C 76.800781 58.929688 77.089844 57.5625 77.039062 55.886719 C 77.007812 54.554688 76.613281 53.445312 75.851562 52.558594 C 75.097656 51.664062 74.132812 50.957031 72.957031 50.441406 C 71.792969 49.917969 70.550781 49.542969 69.230469 49.3125 C 67.910156 49.089844 66.660156 48.976562 65.488281 48.976562 L 64.734375 49.015625 L 65.128906 63.800781 C 65.3125 63.832031 65.507812 63.851562 65.703125 63.859375 C 65.902344 63.875 66.089844 63.882812 66.277344 63.882812 Z M 66.277344 63.882812 " fill-opacity="1" fill-rule="nonzero"/><path fill="#c43c3c" d="M 92.277344 72.667969 C 92.277344 73.371094 92.125 74.246094 91.824219 75.300781 C 91.515625 76.34375 91.089844 77.433594 90.535156 78.566406 C 89.992188 79.707031 89.347656 80.773438 88.59375 81.773438 C 87.851562 82.761719 87.046875 83.554688 86.175781 84.148438 C 85.304688 84.734375 84.394531 84.980469 83.441406 84.902344 C 82.6875 84.851562 82.085938 84.578125 81.636719 84.089844 C 81.1875 83.589844 80.855469 82.992188 80.648438 82.289062 C 80.449219 81.574219 80.316406 80.859375 80.25 80.128906 C 80.183594 79.394531 80.152344 78.761719 80.152344 78.230469 C 80.152344 76.25 80.292969 74.308594 80.570312 72.390625 C 80.855469 70.480469 81.1875 68.570312 81.558594 66.671875 C 81.925781 64.761719 82.242188 62.847656 82.511719 60.933594 C 82.535156 60.710938 82.554688 60.507812 82.570312 60.320312 C 82.578125 60.136719 82.589844 59.953125 82.589844 59.765625 C 82.589844 59.605469 82.554688 59.304688 82.492188 58.855469 C 82.421875 58.394531 82.257812 58.121094 81.996094 58.042969 C 82.042969 57.675781 82.238281 57.4375 82.570312 57.328125 C 82.910156 57.226562 83.230469 57.171875 83.519531 57.171875 C 84.535156 57.171875 85.328125 57.4375 85.898438 57.964844 C 86.464844 58.476562 86.75 59.265625 86.75 60.320312 C 86.75 61.308594 86.640625 62.289062 86.433594 63.246094 C 86.222656 64.199219 85.984375 65.144531 85.71875 66.078125 C 85.152344 68.019531 84.691406 70.097656 84.332031 72.3125 C 83.976562 74.53125 83.796875 76.648438 83.796875 78.667969 C 83.796875 78.957031 83.816406 79.394531 83.859375 79.972656 C 83.898438 80.542969 84.015625 81.0625 84.214844 81.535156 C 84.414062 82 84.753906 82.230469 85.246094 82.230469 C 85.824219 82.230469 86.394531 81.988281 86.949219 81.496094 C 87.515625 80.996094 88.027344 80.363281 88.496094 79.597656 C 88.96875 78.820312 89.394531 77.992188 89.78125 77.121094 C 90.164062 76.242188 90.484375 75.410156 90.753906 74.628906 C 91.015625 73.835938 91.21875 73.183594 91.367188 72.667969 C 91.765625 72.40625 92.011719 72.3125 92.121094 72.390625 C 92.226562 72.472656 92.277344 72.566406 92.277344 72.667969 Z M 87.363281 51.726562 C 87.363281 52.535156 87.207031 53.207031 86.890625 53.746094 C 86.582031 54.277344 85.984375 54.539062 85.085938 54.539062 C 84.492188 54.539062 84 54.394531 83.621094 54.101562 C 83.234375 53.800781 83.046875 53.332031 83.046875 52.699219 C 83.046875 51.976562 83.070312 51.351562 83.125 50.835938 C 83.175781 50.3125 83.367188 49.917969 83.699219 49.648438 C 84.027344 49.386719 84.609375 49.253906 85.441406 49.253906 C 86.207031 49.253906 86.714844 49.507812 86.96875 50.007812 C 87.230469 50.496094 87.363281 51.070312 87.363281 51.726562 Z M 87.363281 51.726562 " fill-opacity="1" fill-rule="nonzero"/><path fill="#c43c3c" d="M 109.238281 67.996094 L 110.347656 68.15625 C 110.082031 69.042969 109.644531 70.164062 109.042969 71.519531 C 108.449219 72.882812 107.695312 74.3125 106.78125 75.816406 C 105.882812 77.320312 104.847656 78.742188 103.671875 80.070312 C 102.492188 81.40625 101.195312 82.515625 99.769531 83.398438 C 98.339844 84.265625 96.800781 84.742188 95.152344 84.820312 C 94.027344 84.875 93.042969 84.585938 92.199219 83.949219 C 91.367188 83.308594 90.664062 82.480469 90.097656 81.476562 C 89.542969 80.460938 89.132812 79.386719 88.871094 78.25 C 88.601562 77.117188 88.472656 76.082031 88.472656 75.144531 C 88.472656 73.8125 88.617188 72.363281 88.910156 70.789062 C 89.195312 69.21875 89.648438 67.675781 90.257812 66.15625 C 90.875 64.644531 91.664062 63.257812 92.613281 62 C 93.566406 60.75 94.664062 59.746094 95.925781 58.992188 C 97.191406 58.230469 98.644531 57.84375 100.285156 57.84375 C 101.617188 57.84375 102.652344 58.21875 103.394531 58.972656 C 104.148438 59.714844 104.523438 60.75 104.523438 62.078125 C 104.523438 63.386719 104.292969 64.664062 103.832031 65.898438 C 103.378906 67.140625 102.742188 68.246094 101.910156 69.207031 C 101.085938 70.15625 100.109375 70.921875 98.976562 71.5 C 97.835938 72.070312 96.589844 72.351562 95.230469 72.351562 C 95.019531 72.351562 94.785156 72.347656 94.539062 72.332031 C 94.285156 72.324219 94.050781 72.289062 93.84375 72.234375 C 93.589844 73.199219 93.46875 74.191406 93.46875 75.222656 C 93.46875 76.164062 93.605469 77.082031 93.882812 77.992188 C 94.171875 78.894531 94.644531 79.632812 95.308594 80.210938 C 95.984375 80.777344 96.867188 81.0625 97.964844 81.0625 C 98.78125 81.0625 99.640625 80.738281 100.542969 80.089844 C 101.453125 79.433594 102.355469 78.582031 103.253906 77.539062 C 104.152344 76.484375 104.988281 75.355469 105.773438 74.152344 C 106.566406 72.957031 107.257812 71.808594 107.851562 70.710938 C 108.457031 69.617188 108.921875 68.710938 109.238281 67.996094 Z M 101.117188 60.675781 C 100.070312 60.675781 99.140625 61.03125 98.320312 61.742188 C 97.515625 62.445312 96.804688 63.316406 96.203125 64.355469 C 95.605469 65.398438 95.121094 66.464844 94.753906 67.542969 C 94.382812 68.625 94.105469 69.550781 93.921875 70.3125 C 94.050781 70.34375 94.183594 70.351562 94.320312 70.351562 C 94.449219 70.351562 94.582031 70.351562 94.714844 70.351562 C 96.128906 70.351562 97.429688 69.988281 98.617188 69.246094 C 99.808594 68.492188 100.765625 67.503906 101.492188 66.277344 C 102.230469 65.046875 102.601562 63.734375 102.601562 62.316406 C 102.601562 61.84375 102.472656 61.457031 102.226562 61.148438 C 101.988281 60.832031 101.617188 60.675781 101.117188 60.675781 Z M 101.117188 60.675781 " fill-opacity="1" fill-rule="nonzero"/><path fill="#c43c3c" d="M 112.785156 50.460938 C 112.835938 50.105469 112.882812 49.703125 112.921875 49.253906 C 112.964844 48.808594 112.933594 48.375 112.84375 47.949219 C 112.75 47.511719 112.546875 47.175781 112.230469 46.9375 C 112.863281 46.730469 113.558594 46.597656 114.308594 46.542969 C 115.378906 46.492188 116.183594 46.671875 116.726562 47.078125 C 117.28125 47.488281 117.640625 48.027344 117.796875 48.699219 C 117.957031 49.363281 117.964844 50.054688 117.835938 50.777344 C 118.074219 50.777344 118.480469 50.808594 119.066406 50.859375 C 119.660156 50.910156 120.246094 50.957031 120.828125 50.996094 C 121.425781 51.035156 121.839844 51.054688 122.078125 51.054688 C 122.65625 51.054688 123.425781 51.03125 124.375 50.976562 C 125.335938 50.925781 126.328125 50.792969 127.347656 50.582031 C 128.363281 50.371094 129.261719 50.046875 130.042969 49.609375 C 130.835938 49.164062 131.351562 48.550781 131.589844 47.769531 C 131.746094 48.15625 131.875 48.542969 131.984375 48.9375 C 132.089844 49.332031 132.144531 49.746094 132.144531 50.164062 C 132.144531 51.15625 131.855469 51.957031 131.292969 52.558594 C 130.722656 53.152344 129.96875 53.617188 129.03125 53.945312 C 128.09375 54.261719 127.054688 54.472656 125.921875 54.578125 C 124.796875 54.6875 123.671875 54.71875 122.554688 54.675781 C 121.429688 54.636719 120.398438 54.578125 119.460938 54.5 C 118.535156 54.410156 117.804688 54.335938 117.261719 54.28125 C 116.96875 55.589844 116.609375 57.066406 116.171875 58.714844 C 115.738281 60.351562 115.273438 62.058594 114.785156 63.839844 C 114.308594 65.621094 113.855469 67.402344 113.417969 69.183594 C 112.992188 70.957031 112.652344 72.644531 112.386719 74.253906 C 112.121094 75.867188 111.992188 77.296875 111.992188 78.546875 C 111.992188 78.785156 112.011719 79.097656 112.050781 79.476562 C 112.089844 79.847656 112.191406 80.171875 112.347656 80.449219 C 112.507812 80.722656 112.769531 80.863281 113.140625 80.863281 C 113.839844 80.863281 114.574219 80.523438 115.339844 79.832031 C 116.117188 79.136719 116.875 78.25 117.621094 77.183594 C 118.371094 76.101562 119.085938 74.960938 119.757812 73.757812 C 120.441406 72.558594 121.03125 71.433594 121.523438 70.371094 C 122.023438 69.320312 122.40625 68.503906 122.671875 67.917969 L 122.710938 67.878906 C 122.921875 68.011719 123.058594 68.207031 123.128906 68.453125 C 123.191406 68.707031 123.253906 68.941406 123.304688 69.164062 C 122.960938 70.144531 122.523438 71.3125 122 72.667969 C 121.484375 74.03125 120.878906 75.421875 120.195312 76.84375 C 119.523438 78.269531 118.738281 79.597656 117.855469 80.824219 C 116.984375 82.050781 116 83.050781 114.90625 83.8125 C 113.820312 84.5625 112.597656 84.941406 111.238281 84.941406 C 110.089844 84.941406 109.226562 84.703125 108.664062 84.226562 C 108.109375 83.742188 107.746094 83.09375 107.574219 82.289062 C 107.40625 81.472656 107.316406 80.566406 107.316406 79.578125 C 107.316406 78.285156 107.429688 76.992188 107.652344 75.695312 C 107.878906 74.40625 108.132812 73.132812 108.425781 71.878906 C 109.125 68.898438 109.78125 65.898438 110.40625 62.890625 C 111.042969 59.875 111.644531 56.855469 112.230469 53.847656 C 110.550781 53.796875 109.070312 53.816406 107.792969 53.90625 C 106.511719 54 105.402344 54.25 104.460938 54.65625 C 103.511719 55.054688 102.6875 55.722656 101.984375 56.65625 C 101.960938 56.511719 101.941406 56.359375 101.925781 56.203125 C 101.917969 56.042969 101.90625 55.898438 101.90625 55.765625 C 101.90625 54.332031 102.257812 53.234375 102.957031 52.480469 C 103.644531 51.71875 104.542969 51.1875 105.652344 50.898438 C 106.761719 50.609375 107.941406 50.457031 109.179688 50.441406 C 110.433594 50.433594 111.636719 50.4375 112.785156 50.460938 Z M 112.785156 50.460938 " fill-opacity="1" fill-rule="nonzero"/><path fill="#c43c3c" d="M 138.433594 64.832031 C 138.007812 64.386719 137.527344 64.019531 136.984375 63.742188 C 136.457031 63.464844 135.882812 63.328125 135.261719 63.328125 C 134.121094 63.328125 132.992188 63.738281 131.875 64.554688 C 130.75 65.359375 129.683594 66.414062 128.683594 67.722656 C 127.691406 69.027344 126.8125 70.441406 126.046875 71.957031 C 125.28125 73.476562 124.679688 74.960938 124.246094 76.410156 C 123.808594 77.863281 123.589844 79.121094 123.589844 80.191406 C 123.589844 80.617188 123.671875 81.054688 123.828125 81.515625 C 123.988281 81.964844 124.34375 82.1875 124.898438 82.1875 C 125.542969 82.1875 126.210938 81.902344 126.898438 81.320312 C 127.597656 80.722656 128.277344 80.003906 128.941406 79.140625 C 129.613281 78.269531 130.199219 77.414062 130.703125 76.566406 C 131.21875 75.726562 131.605469 75.0625 131.875 74.589844 C 132.347656 73.707031 132.75 72.683594 133.082031 71.519531 C 133.425781 70.347656 133.714844 69.15625 133.953125 67.9375 C 134.191406 66.726562 134.359375 65.621094 134.46875 64.632812 C 134.675781 64.554688 134.90625 64.484375 135.144531 64.414062 C 135.378906 64.351562 135.625 64.316406 135.875 64.316406 C 136.457031 64.316406 136.90625 64.496094 137.222656 64.851562 C 137.550781 65.199219 137.777344 65.617188 137.898438 66.117188 C 138.015625 66.621094 138.074219 67.117188 138.074219 67.601562 C 138.074219 68.859375 137.957031 70.109375 137.71875 71.363281 C 137.492188 72.605469 137.261719 73.855469 137.023438 75.125 C 136.789062 76.390625 136.667969 77.667969 136.667969 78.941406 C 136.667969 79.132812 136.679688 79.449219 136.707031 79.894531 C 136.734375 80.328125 136.8125 80.738281 136.945312 81.121094 C 137.074219 81.507812 137.289062 81.695312 137.578125 81.695312 C 138.09375 81.695312 138.601562 81.414062 139.105469 80.84375 C 139.621094 80.277344 140.136719 79.515625 140.652344 78.566406 C 141.167969 77.617188 141.652344 76.597656 142.117188 75.5 C 142.59375 74.390625 143.035156 73.292969 143.445312 72.195312 C 143.867188 71.101562 144.226562 70.109375 144.535156 69.226562 C 144.835938 68.328125 145.070312 67.65625 145.230469 67.207031 L 146.160156 68.117188 C 145.933594 68.644531 145.65625 69.421875 145.328125 70.453125 C 144.996094 71.480469 144.597656 72.628906 144.140625 73.894531 C 143.6875 75.164062 143.1875 76.449219 142.632812 77.753906 C 142.089844 79.0625 141.503906 80.265625 140.871094 81.359375 C 140.234375 82.441406 139.550781 83.316406 138.828125 83.992188 C 138.113281 84.652344 137.351562 84.980469 136.550781 84.980469 C 135.664062 84.980469 134.96875 84.683594 134.46875 84.089844 C 133.964844 83.484375 133.585938 82.738281 133.339844 81.851562 C 133.101562 80.957031 132.941406 80.0625 132.863281 79.160156 C 132.785156 78.25 132.746094 77.488281 132.746094 76.863281 C 132.746094 76.65625 132.746094 76.445312 132.746094 76.230469 C 132.746094 76.023438 132.753906 75.824219 132.785156 75.636719 C 132.308594 76.5625 131.738281 77.566406 131.082031 78.644531 C 130.433594 79.730469 129.695312 80.753906 128.863281 81.714844 C 128.039062 82.664062 127.117188 83.449219 126.085938 84.070312 C 125.058594 84.679688 123.925781 84.980469 122.699219 84.980469 C 121.746094 84.980469 121.023438 84.742188 120.539062 84.265625 C 120.0625 83.78125 119.742188 83.160156 119.566406 82.40625 C 119.398438 81.644531 119.3125 80.878906 119.3125 80.109375 C 119.3125 79.28125 119.363281 78.457031 119.46875 77.636719 C 119.578125 76.804688 119.707031 75.988281 119.867188 75.183594 C 120.101562 74.050781 120.542969 72.789062 121.191406 71.402344 C 121.851562 70.015625 122.667969 68.632812 123.648438 67.246094 C 124.625 65.859375 125.699219 64.589844 126.878906 63.425781 C 128.070312 62.269531 129.308594 61.335938 130.605469 60.636719 C 131.898438 59.921875 133.1875 59.566406 134.46875 59.566406 C 135.128906 59.566406 135.800781 59.664062 136.488281 59.863281 C 137.1875 60.0625 137.777344 60.40625 138.253906 60.890625 C 138.738281 61.367188 138.988281 62 138.988281 62.792969 C 138.988281 63.574219 138.796875 64.253906 138.433594 64.832031 Z M 127.355469 44.464844 L 130.03125 44.304688 L 135.757812 52.777344 L 132.746094 53.609375 C 132.746094 53.609375 132.585938 53.410156 132.269531 53.015625 C 131.953125 52.617188 131.535156 52.097656 131.019531 51.453125 C 130.515625 50.792969 130 50.09375 129.476562 49.351562 C 128.960938 48.601562 128.496094 47.882812 128.089844 47.195312 C 127.675781 46.5 127.386719 45.90625 127.21875 45.414062 C 127.058594 44.914062 127.101562 44.597656 127.355469 44.464844 Z M 127.355469 44.464844 " fill-opacity="1" fill-rule="nonzero"/><path fill="#c43c3c" d="M 54.105469 3.855469 C 55.421875 3.855469 56.441406 4.089844 57.15625 4.546875 C 57.867188 5.015625 58.226562 5.824219 58.226562 6.984375 C 58.226562 7.988281 58.007812 8.839844 57.570312 9.535156 C 57.144531 10.238281 56.765625 10.757812 56.421875 11.101562 L 56.203125 11.316406 C 55.925781 11.570312 55.613281 11.8125 55.273438 12.050781 C 54.925781 12.277344 54.570312 12.386719 54.203125 12.386719 C 54.003906 12.386719 53.746094 12.308594 53.429688 12.148438 C 53.113281 11.992188 52.953125 11.628906 52.953125 11.058594 C 52.953125 10.664062 53.132812 10.398438 53.488281 10.25 C 53.847656 10.105469 54.109375 10.03125 54.28125 10.03125 C 54.449219 10.03125 54.621094 10.046875 54.777344 10.070312 C 54.9375 10.101562 55.101562 10.109375 55.273438 10.109375 C 55.5625 10.109375 55.839844 10.046875 56.105469 9.914062 C 56.382812 9.769531 56.660156 9.46875 56.9375 9.003906 C 56.9375 8.976562 56.96875 8.960938 57.035156 8.960938 C 57.164062 8.675781 57.265625 8.386719 57.335938 8.109375 C 57.414062 7.824219 57.453125 7.507812 57.453125 7.160156 C 57.453125 6.875 57.402344 6.519531 57.3125 6.09375 C 57.234375 5.65625 56.960938 5.28125 56.5 4.964844 C 56.050781 4.636719 55.253906 4.46875 54.105469 4.46875 C 53.042969 4.46875 51.929688 4.914062 50.753906 5.796875 C 49.589844 6.679688 48.460938 7.863281 47.367188 9.339844 C 46.265625 10.804688 45.265625 12.421875 44.355469 14.1875 C 43.453125 15.960938 42.742188 17.742188 42.214844 19.53125 C 41.683594 21.328125 41.421875 22.996094 41.421875 24.539062 C 41.421875 26.082031 41.546875 27.503906 41.800781 28.792969 C 42.0625 30.078125 42.4375 31.101562 42.929688 31.863281 C 43.414062 32.628906 44.003906 33.011719 44.691406 33.011719 C 45.707031 33.011719 46.617188 32.808594 47.425781 32.398438 C 48.230469 31.992188 48.902344 31.519531 49.449219 30.992188 C 49.988281 30.46875 50.398438 29.996094 50.675781 29.585938 C 50.964844 29.164062 51.113281 28.953125 51.113281 28.953125 C 51.113281 28.953125 51.152344 28.949219 51.230469 28.933594 C 51.320312 28.921875 51.429688 28.914062 51.546875 28.914062 C 51.796875 28.914062 51.925781 28.96875 51.925781 29.070312 L 51.925781 29.132812 C 51.0625 30.386719 50.164062 31.378906 49.230469 32.101562 C 48.289062 32.828125 47.398438 33.335938 46.554688 33.625 C 45.707031 33.902344 44.980469 34.039062 44.375 34.039062 C 44.175781 34.039062 43.808594 33.988281 43.285156 33.902344 C 42.753906 33.796875 42.144531 33.574219 41.460938 33.226562 C 40.773438 32.886719 40.105469 32.335938 39.460938 31.585938 C 38.828125 30.832031 38.292969 29.8125 37.855469 28.515625 C 37.429688 27.210938 37.222656 25.542969 37.222656 23.511719 C 37.222656 21.175781 37.644531 19.007812 38.488281 17 C 39.332031 14.980469 40.421875 13.167969 41.757812 11.554688 C 43.105469 9.933594 44.554688 8.558594 46.097656 7.417969 C 47.644531 6.269531 49.121094 5.394531 50.539062 4.785156 C 51.949219 4.167969 53.136719 3.855469 54.105469 3.855469 Z M 54.105469 3.855469 " fill-opacity="1" fill-rule="nonzero"/><path fill="#c43c3c" d="M 67.910156 18.640625 C 67.910156 18.867188 67.832031 19.324219 67.671875 20.007812 C 67.511719 20.695312 67.304688 21.492188 67.058594 22.402344 C 66.820312 23.3125 66.582031 24.230469 66.34375 25.152344 C 66.105469 26.0625 65.878906 26.875 65.671875 27.585938 C 65.472656 28.300781 65.34375 28.8125 65.292969 29.132812 C 65.265625 29.238281 65.253906 29.363281 65.253906 29.507812 C 65.253906 29.65625 65.253906 29.8125 65.253906 29.980469 C 65.253906 30.605469 65.324219 31.257812 65.472656 31.941406 C 65.617188 32.628906 65.898438 32.972656 66.324219 32.972656 C 66.746094 32.972656 67.148438 32.832031 67.53125 32.554688 C 67.929688 32.269531 68.269531 31.941406 68.5625 31.585938 C 68.867188 31.230469 69.101562 30.914062 69.277344 30.636719 C 69.445312 30.347656 69.535156 30.199219 69.535156 30.199219 C 69.535156 30.199219 69.605469 30.234375 69.753906 30.300781 C 69.894531 30.367188 69.96875 30.449219 69.96875 30.535156 C 69.96875 30.683594 69.800781 31.019531 69.476562 31.546875 C 69.144531 32.074219 68.671875 32.574219 68.066406 33.050781 C 67.472656 33.515625 66.78125 33.742188 65.988281 33.742188 C 64.585938 33.742188 63.59375 33.257812 63.015625 32.277344 C 62.445312 31.289062 62.164062 30.171875 62.164062 28.914062 C 62.164062 28.769531 62.164062 28.625 62.164062 28.476562 C 62.164062 28.335938 62.171875 28.210938 62.203125 28.101562 C 61.433594 29.042969 60.582031 29.9375 59.648438 30.792969 C 58.71875 31.65625 57.8125 32.355469 56.933594 32.910156 C 56.046875 33.464844 55.308594 33.742188 54.714844 33.742188 C 54.167969 33.742188 53.730469 33.613281 53.40625 33.347656 C 53.074219 33.070312 52.832031 32.753906 52.671875 32.398438 C 52.511719 32.039062 52.414062 31.734375 52.375 31.464844 C 52.335938 31.191406 52.316406 31.050781 52.316406 31.050781 C 52.316406 31.050781 52.304688 30.96875 52.277344 30.792969 C 52.234375 30.625 52.214844 30.394531 52.214844 30.101562 C 52.214844 29.480469 52.355469 28.597656 52.632812 27.449219 C 52.894531 26.289062 53.515625 25.007812 54.496094 23.609375 C 55.40625 22.292969 56.386719 21.1875 57.449219 20.304688 C 58.503906 19.421875 59.511719 18.753906 60.480469 18.304688 C 61.453125 17.84375 62.273438 17.613281 62.9375 17.613281 C 63.371094 17.613281 63.71875 17.710938 63.984375 17.910156 C 64.265625 18.105469 64.46875 18.335938 64.601562 18.582031 C 64.691406 18.304688 64.765625 18.097656 64.820312 17.949219 C 64.882812 17.804688 65.023438 17.710938 65.234375 17.671875 C 65.441406 17.632812 65.847656 17.613281 66.441406 17.613281 C 66.824219 17.613281 67.160156 17.6875 67.453125 17.828125 C 67.757812 17.964844 67.910156 18.234375 67.910156 18.640625 Z M 56.933594 31.785156 C 57.296875 31.785156 57.734375 31.582031 58.238281 31.167969 C 58.742188 30.75 59.261719 30.230469 59.804688 29.605469 C 60.34375 28.972656 60.859375 28.335938 61.351562 27.6875 C 61.835938 27.042969 62.242188 26.492188 62.558594 26.042969 L 63.964844 20.816406 C 63.964844 20.621094 63.992188 20.398438 64.046875 20.144531 C 64.109375 19.882812 64.144531 19.640625 64.144531 19.414062 C 64.144531 19.152344 64.066406 18.929688 63.90625 18.738281 C 63.75 18.558594 63.410156 18.460938 62.894531 18.460938 C 62.152344 18.460938 61.355469 18.730469 60.5 19.253906 C 59.636719 19.785156 58.855469 20.441406 58.140625 21.234375 C 57.425781 22.015625 56.882812 22.808594 56.515625 23.609375 C 56.027344 24.71875 55.6875 25.84375 55.503906 26.992188 C 55.316406 28.132812 55.226562 28.992188 55.226562 29.585938 C 55.226562 30.171875 55.347656 30.683594 55.585938 31.128906 C 55.832031 31.566406 56.285156 31.785156 56.933594 31.785156 Z M 56.933594 31.785156 " fill-opacity="1" fill-rule="nonzero"/><path fill="#c43c3c" d="M 70.734375 25.3125 L 73.132812 23.6875 C 73.015625 23.402344 72.925781 23.113281 72.875 22.835938 C 72.820312 22.550781 72.796875 22.234375 72.796875 21.886719 C 72.796875 20.976562 72.980469 20.246094 73.351562 19.691406 C 73.71875 19.125 74.175781 18.695312 74.71875 18.402344 C 75.257812 18.101562 75.777344 17.898438 76.285156 17.789062 C 76.785156 17.671875 77.144531 17.613281 77.375 17.613281 C 77.859375 17.613281 78.207031 17.761719 78.40625 18.046875 C 78.601562 18.324219 78.703125 18.652344 78.703125 19.015625 C 78.703125 19.53125 78.414062 20.105469 77.851562 20.738281 C 77.28125 21.363281 76.621094 22 75.867188 22.660156 C 76.210938 23.054688 76.652344 23.570312 77.195312 24.203125 C 77.75 24.828125 78.246094 25.507812 78.683594 26.261719 C 79.128906 27.003906 79.355469 27.765625 79.355469 28.558594 C 79.355469 28.992188 79.238281 29.46875 79 29.980469 C 78.453125 31.121094 77.851562 31.953125 77.175781 32.476562 C 76.511719 33.003906 75.808594 33.347656 75.054688 33.503906 C 74.3125 33.664062 73.558594 33.742188 72.796875 33.742188 C 71.648438 33.742188 70.742188 33.382812 70.082031 32.652344 C 69.4375 31.933594 69.113281 31.210938 69.113281 30.496094 C 69.113281 29.8125 69.210938 29.285156 69.410156 28.914062 C 69.605469 28.546875 69.796875 28.359375 69.964844 28.359375 C 70.210938 28.359375 70.464844 28.394531 70.714844 28.457031 C 70.980469 28.527344 71.113281 28.789062 71.113281 29.25 C 71.113281 29.683594 70.992188 30.011719 70.757812 30.21875 C 70.519531 30.433594 70.398438 30.722656 70.398438 31.089844 C 70.398438 31.527344 70.546875 31.898438 70.855469 32.199219 C 71.171875 32.492188 71.527344 32.722656 71.925781 32.890625 C 72.332031 33.066406 72.664062 33.148438 72.914062 33.148438 C 73.257812 33.148438 73.71875 33.097656 74.304688 32.992188 C 74.898438 32.871094 75.433594 32.59375 75.90625 32.160156 C 76.394531 31.714844 76.640625 30.988281 76.640625 29.980469 C 76.640625 29.246094 76.453125 28.585938 76.085938 28.003906 C 75.714844 27.410156 75.277344 26.835938 74.777344 26.28125 C 74.273438 25.726562 73.835938 25.125 73.46875 24.460938 C 72.820312 24.886719 72.261719 25.230469 71.785156 25.507812 C 71.3125 25.777344 71.042969 25.90625 70.992188 25.90625 C 70.9375 25.90625 70.863281 25.859375 70.777344 25.765625 C 70.695312 25.664062 70.65625 25.570312 70.65625 25.488281 C 70.65625 25.425781 70.683594 25.367188 70.734375 25.3125 Z M 76.957031 18.285156 C 76.375 18.285156 75.96875 18.597656 75.730469 19.214844 C 75.492188 19.824219 75.371094 20.433594 75.371094 21.035156 C 75.371094 21.210938 75.378906 21.367188 75.394531 21.511719 C 75.402344 21.644531 75.421875 21.78125 75.453125 21.925781 C 76.625 21.015625 77.335938 20.378906 77.574219 20.007812 C 77.808594 19.640625 77.929688 19.367188 77.929688 19.195312 C 77.929688 18.957031 77.878906 18.75 77.789062 18.5625 C 77.710938 18.378906 77.433594 18.285156 76.957031 18.285156 Z M 76.957031 18.285156 " fill-opacity="1" fill-rule="nonzero"/><path fill="#c43c3c" d="M 82.261719 25.3125 L 84.660156 23.6875 C 84.542969 23.402344 84.453125 23.113281 84.402344 22.835938 C 84.347656 22.550781 84.324219 22.234375 84.324219 21.886719 C 84.324219 20.976562 84.507812 20.246094 84.878906 19.691406 C 85.246094 19.125 85.699219 18.695312 86.246094 18.402344 C 86.785156 18.101562 87.304688 17.898438 87.8125 17.789062 C 88.3125 17.671875 88.671875 17.613281 88.902344 17.613281 C 89.386719 17.613281 89.734375 17.761719 89.929688 18.046875 C 90.128906 18.324219 90.226562 18.652344 90.226562 19.015625 C 90.226562 19.53125 89.941406 20.105469 89.375 20.738281 C 88.804688 21.363281 88.148438 22 87.394531 22.660156 C 87.738281 23.054688 88.175781 23.570312 88.722656 24.203125 C 89.277344 24.828125 89.773438 25.507812 90.207031 26.261719 C 90.65625 27.003906 90.882812 27.765625 90.882812 28.558594 C 90.882812 28.992188 90.761719 29.46875 90.527344 29.980469 C 89.980469 31.121094 89.375 31.953125 88.703125 32.476562 C 88.039062 33.003906 87.335938 33.347656 86.582031 33.503906 C 85.839844 33.664062 85.085938 33.742188 84.324219 33.742188 C 83.175781 33.742188 82.269531 33.382812 81.609375 32.652344 C 80.964844 31.933594 80.636719 31.210938 80.636719 30.496094 C 80.636719 29.8125 80.738281 29.285156 80.933594 28.914062 C 81.132812 28.546875 81.320312 28.359375 81.488281 28.359375 C 81.738281 28.359375 81.992188 28.394531 82.242188 28.457031 C 82.503906 28.527344 82.640625 28.789062 82.640625 29.25 C 82.640625 29.683594 82.519531 30.011719 82.28125 30.21875 C 82.042969 30.433594 81.925781 30.722656 81.925781 31.089844 C 81.925781 31.527344 82.074219 31.898438 82.382812 32.199219 C 82.699219 32.492188 83.054688 32.722656 83.453125 32.890625 C 83.859375 33.066406 84.191406 33.148438 84.441406 33.148438 C 84.785156 33.148438 85.246094 33.097656 85.828125 32.992188 C 86.425781 32.871094 86.957031 32.59375 87.433594 32.160156 C 87.917969 31.714844 88.167969 30.988281 88.167969 29.980469 C 88.167969 29.246094 87.980469 28.585938 87.613281 28.003906 C 87.242188 27.410156 86.804688 26.835938 86.304688 26.28125 C 85.800781 25.726562 85.363281 25.125 84.996094 24.460938 C 84.347656 24.886719 83.789062 25.230469 83.3125 25.507812 C 82.835938 25.777344 82.570312 25.90625 82.519531 25.90625 C 82.464844 25.90625 82.390625 25.859375 82.300781 25.765625 C 82.222656 25.664062 82.183594 25.570312 82.183594 25.488281 C 82.183594 25.425781 82.207031 25.367188 82.261719 25.3125 Z M 88.484375 18.285156 C 87.898438 18.285156 87.492188 18.597656 87.257812 19.214844 C 87.019531 19.824219 86.898438 20.433594 86.898438 21.035156 C 86.898438 21.210938 86.90625 21.367188 86.917969 21.511719 C 86.929688 21.644531 86.949219 21.78125 86.980469 21.925781 C 88.152344 21.015625 88.859375 20.378906 89.097656 20.007812 C 89.335938 19.640625 89.457031 19.367188 89.457031 19.195312 C 89.457031 18.957031 89.40625 18.75 89.316406 18.5625 C 89.238281 18.378906 88.960938 18.285156 88.484375 18.285156 Z M 88.484375 18.285156 " fill-opacity="1" fill-rule="nonzero"/><path fill="#c43c3c" d="M 108.273438 18.640625 C 108.273438 18.867188 108.195312 19.324219 108.035156 20.007812 C 107.878906 20.695312 107.667969 21.492188 107.421875 22.402344 C 107.183594 23.3125 106.945312 24.230469 106.707031 25.152344 C 106.472656 26.0625 106.242188 26.875 106.035156 27.585938 C 105.835938 28.300781 105.707031 28.8125 105.660156 29.132812 C 105.628906 29.238281 105.617188 29.363281 105.617188 29.507812 C 105.617188 29.65625 105.617188 29.8125 105.617188 29.980469 C 105.617188 30.605469 105.6875 31.257812 105.835938 31.941406 C 105.980469 32.628906 106.261719 32.972656 106.6875 32.972656 C 107.109375 32.972656 107.511719 32.832031 107.898438 32.554688 C 108.292969 32.269531 108.636719 31.941406 108.929688 31.585938 C 109.230469 31.230469 109.46875 30.914062 109.640625 30.636719 C 109.808594 30.347656 109.898438 30.199219 109.898438 30.199219 C 109.898438 30.199219 109.96875 30.234375 110.117188 30.300781 C 110.261719 30.367188 110.335938 30.449219 110.335938 30.535156 C 110.335938 30.683594 110.167969 31.019531 109.839844 31.546875 C 109.507812 32.074219 109.035156 32.574219 108.433594 33.050781 C 107.839844 33.515625 107.144531 33.742188 106.351562 33.742188 C 104.949219 33.742188 103.960938 33.257812 103.378906 32.277344 C 102.808594 31.289062 102.527344 30.171875 102.527344 28.914062 C 102.527344 28.769531 102.527344 28.625 102.527344 28.476562 C 102.527344 28.335938 102.539062 28.210938 102.566406 28.101562 C 101.800781 29.042969 100.949219 29.9375 100.011719 30.792969 C 99.085938 31.65625 98.179688 32.355469 97.296875 32.910156 C 96.410156 33.464844 95.671875 33.742188 95.078125 33.742188 C 94.53125 33.742188 94.097656 33.613281 93.769531 33.347656 C 93.4375 33.070312 93.195312 32.753906 93.035156 32.398438 C 92.878906 32.039062 92.777344 31.734375 92.738281 31.464844 C 92.699219 31.191406 92.679688 31.050781 92.679688 31.050781 C 92.679688 31.050781 92.667969 30.96875 92.640625 30.792969 C 92.601562 30.625 92.582031 30.394531 92.582031 30.101562 C 92.582031 29.480469 92.71875 28.597656 92.996094 27.449219 C 93.257812 26.289062 93.878906 25.007812 94.859375 23.609375 C 95.769531 22.292969 96.75 21.1875 97.8125 20.304688 C 98.867188 19.421875 99.878906 18.753906 100.84375 18.304688 C 101.820312 17.84375 102.636719 17.613281 103.300781 17.613281 C 103.738281 17.613281 104.082031 17.710938 104.351562 17.910156 C 104.628906 18.105469 104.832031 18.335938 104.964844 18.582031 C 105.054688 18.304688 105.128906 18.097656 105.183594 17.949219 C 105.246094 17.804688 105.386719 17.710938 105.597656 17.671875 C 105.808594 17.632812 106.214844 17.613281 106.808594 17.613281 C 107.1875 17.613281 107.527344 17.6875 107.816406 17.828125 C 108.121094 17.964844 108.273438 18.234375 108.273438 18.640625 Z M 97.296875 31.785156 C 97.664062 31.785156 98.097656 31.582031 98.605469 31.167969 C 99.105469 30.75 99.625 30.230469 100.167969 29.605469 C 100.710938 28.972656 101.226562 28.335938 101.714844 27.6875 C 102.199219 27.042969 102.605469 26.492188 102.925781 26.042969 L 104.332031 20.816406 C 104.332031 20.621094 104.355469 20.398438 104.410156 20.144531 C 104.472656 19.882812 104.507812 19.640625 104.507812 19.414062 C 104.507812 19.152344 104.429688 18.929688 104.269531 18.738281 C 104.113281 18.558594 103.777344 18.460938 103.261719 18.460938 C 102.519531 18.460938 101.71875 18.730469 100.863281 19.253906 C 100 19.785156 99.21875 20.441406 98.503906 21.234375 C 97.792969 22.015625 97.246094 22.808594 96.878906 23.609375 C 96.390625 24.71875 96.054688 25.84375 95.871094 26.992188 C 95.679688 28.132812 95.59375 28.992188 95.59375 29.585938 C 95.59375 30.171875 95.710938 30.683594 95.949219 31.128906 C 96.195312 31.566406 96.648438 31.785156 97.296875 31.785156 Z M 97.296875 31.785156 " fill-opacity="1" fill-rule="nonzero"/><path fill="#c43c3c" d="M 24.867188 81.378906 C 25.421875 81.378906 26 81.082031 26.609375 80.488281 C 27.230469 79.882812 27.84375 79.117188 28.453125 78.191406 C 29.074219 77.257812 29.648438 76.28125 30.175781 75.261719 C 30.703125 74.234375 31.171875 73.273438 31.585938 72.371094 C 32.003906 71.476562 32.308594 70.789062 32.496094 70.3125 L 33.210938 72.429688 C 32.785156 73.738281 32.28125 75.144531 31.703125 76.648438 C 31.132812 78.152344 30.433594 79.570312 29.601562 80.902344 C 28.78125 82.238281 27.78125 83.328125 26.589844 84.167969 C 25.402344 85 23.964844 85.414062 22.292969 85.414062 C 21.523438 85.414062 20.925781 85.144531 20.488281 84.605469 C 20.0625 84.050781 19.761719 83.375 19.578125 82.585938 C 19.386719 81.785156 19.28125 80.976562 19.238281 80.171875 C 19.199219 79.355469 19.179688 78.695312 19.179688 78.191406 C 19.179688 77.335938 19.203125 76.488281 19.257812 75.65625 C 19.308594 74.816406 19.386719 73.976562 19.496094 73.144531 C 19.023438 73.738281 18.554688 74.523438 18.109375 75.5 C 17.675781 76.464844 17.207031 77.488281 16.722656 78.566406 C 16.246094 79.652344 15.722656 80.675781 15.15625 81.636719 C 14.589844 82.585938 13.9375 83.371094 13.214844 83.992188 C 12.488281 84.597656 11.652344 84.902344 10.699219 84.902344 C 8.53125 84.902344 7.039062 84.402344 6.222656 83.398438 C 5.414062 82.382812 5.011719 80.9375 5.011719 79.0625 C 5.011719 76.78125 5.328125 74.484375 5.964844 72.175781 C 6.609375 69.867188 7.570312 67.710938 8.835938 65.703125 C 10.105469 63.683594 11.671875 61.972656 13.53125 60.554688 C 14.152344 60.109375 14.839844 59.679688 15.59375 59.269531 C 16.355469 58.863281 17.125 58.65625 17.890625 58.65625 C 18.644531 58.65625 19.367188 58.855469 20.070312 59.25 C 20.785156 59.644531 21.339844 60.15625 21.738281 60.773438 C 22.132812 58.980469 22.5 57.160156 22.847656 55.3125 C 23.203125 53.464844 23.382812 51.621094 23.382812 49.769531 C 23.382812 49.453125 23.351562 48.992188 23.300781 48.382812 C 23.246094 47.765625 23.109375 47.207031 22.886719 46.699219 C 22.671875 46.1875 22.316406 45.929688 21.816406 45.929688 C 21.628906 45.929688 21.429688 45.988281 21.222656 46.105469 C 21.640625 45.671875 22.164062 45.238281 22.785156 44.800781 C 23.421875 44.367188 24.054688 44.148438 24.6875 44.148438 C 25.230469 44.148438 25.785156 44.339844 26.351562 44.722656 C 26.933594 45.109375 27.421875 45.582031 27.820312 46.148438 C 28.214844 46.699219 28.414062 47.246094 28.414062 47.769531 C 28.414062 49.589844 28.242188 51.511719 27.898438 53.53125 C 27.550781 55.539062 27.125 57.597656 26.609375 59.703125 C 26.105469 61.804688 25.589844 63.910156 25.066406 66.019531 C 24.550781 68.117188 24.121094 70.164062 23.777344 72.15625 C 23.429688 74.148438 23.261719 76.054688 23.261719 77.875 C 23.261719 78.222656 23.285156 78.675781 23.339844 79.238281 C 23.390625 79.792969 23.53125 80.289062 23.757812 80.722656 C 23.980469 81.160156 24.351562 81.378906 24.867188 81.378906 Z M 10.820312 81.695312 C 11.609375 81.695312 12.402344 81.308594 13.195312 80.527344 C 13.988281 79.734375 14.742188 78.707031 15.453125 77.4375 C 16.179688 76.164062 16.847656 74.761719 17.457031 73.242188 C 18.0625 71.714844 18.617188 70.191406 19.121094 68.671875 C 19.636719 67.15625 20.070312 65.777344 20.429688 64.535156 C 20.796875 63.296875 21.0625 62.347656 21.222656 61.683594 L 20.667969 61.644531 C 19.859375 61.644531 19.0625 61.863281 18.269531 62.296875 C 17.484375 62.722656 16.734375 63.265625 16.011719 63.941406 C 15.296875 64.601562 14.632812 65.296875 14.027344 66.019531 C 13.433594 66.730469 12.9375 67.394531 12.542969 67.996094 C 12.15625 68.550781 11.78125 69.3125 11.414062 70.273438 C 11.042969 71.238281 10.699219 72.273438 10.382812 73.382812 C 10.074219 74.480469 9.835938 75.539062 9.667969 76.566406 C 9.496094 77.597656 9.410156 78.445312 9.410156 79.101562 C 9.410156 79.394531 9.4375 79.75 9.492188 80.171875 C 9.539062 80.582031 9.667969 80.9375 9.867188 81.238281 C 10.074219 81.546875 10.390625 81.695312 10.820312 81.695312 Z M 10.820312 81.695312 " fill-opacity="1" fill-rule="nonzero"/><path fill="#c43c3c" d="M 32.847656 49.847656 C 32.847656 49.847656 33.046875 49.84375 33.441406 49.828125 C 33.847656 49.820312 34.285156 49.882812 34.75 50.027344 C 35.210938 50.160156 35.574219 50.4375 35.839844 50.859375 C 36.117188 51.28125 36.117188 51.9375 35.839844 52.816406 C 35.574219 53.6875 35.226562 54.527344 34.789062 55.332031 C 34.355469 56.136719 33.898438 56.816406 33.421875 57.371094 C 32.957031 57.921875 32.535156 58.328125 32.15625 58.578125 C 31.785156 58.8125 31.53125 58.84375 31.402344 58.65625 C 31.269531 58.433594 31.304688 58.078125 31.5 57.585938 C 31.710938 57.101562 31.957031 56.566406 32.234375 55.984375 C 32.511719 55.390625 32.695312 54.847656 32.789062 54.339844 C 32.878906 53.828125 32.769531 53.480469 32.453125 53.292969 C 32.027344 53.003906 31.722656 52.613281 31.539062 52.125 C 31.367188 51.625 31.382812 51.15625 31.582031 50.71875 C 31.789062 50.273438 32.214844 49.980469 32.847656 49.847656 Z M 32.847656 49.847656 " fill-opacity="1" fill-rule="nonzero"/><path fill="#c43c3c" d="M 67.210938 45.175781 C 70.035156 45.175781 72.546875 45.609375 74.738281 46.464844 C 76.945312 47.308594 78.667969 48.617188 79.910156 50.382812 C 81.148438 52.140625 81.734375 54.359375 81.65625 57.050781 C 81.601562 58.96875 81.164062 60.585938 80.347656 61.902344 C 79.527344 63.222656 78.425781 64.292969 77.039062 65.109375 C 75.652344 65.914062 74.054688 66.507812 72.261719 66.890625 C 70.464844 67.261719 68.523438 67.445312 66.4375 67.445312 C 66.25 67.445312 66.0625 67.445312 65.863281 67.445312 C 65.664062 67.445312 65.457031 67.433594 65.25 67.402344 C 65.25 67.402344 65.238281 67.714844 65.230469 68.335938 C 65.214844 68.941406 65.210938 69.71875 65.210938 70.671875 C 65.210938 71.609375 65.210938 72.621094 65.210938 73.699219 C 65.210938 74.765625 65.199219 75.796875 65.1875 76.785156 C 65.175781 77.777344 65.15625 78.585938 65.128906 79.21875 C 65.101562 79.710938 65.089844 80.300781 65.089844 80.980469 C 65.089844 81.65625 65.019531 82.316406 64.890625 82.960938 C 64.757812 83.59375 64.503906 84.125 64.140625 84.542969 C 63.78125 84.964844 63.238281 85.179688 62.515625 85.179688 C 61.746094 85.179688 61.113281 85.144531 60.613281 85.078125 C 60.121094 85.007812 59.53125 84.8125 58.847656 84.464844 L 59.007812 49.414062 C 58.359375 49.414062 57.785156 49.691406 57.285156 50.242188 C 56.78125 50.789062 56.332031 51.460938 55.9375 52.261719 C 55.53125 53.054688 55.183594 53.855469 54.90625 54.65625 C 54.628906 55.449219 54.398438 56.121094 54.210938 56.675781 C 54.015625 57.222656 53.863281 57.488281 53.757812 57.488281 C 53.492188 57.488281 53.25 57.320312 53.023438 56.972656 C 52.800781 56.617188 52.601562 56.203125 52.429688 55.726562 C 52.261719 55.25 52.132812 54.796875 52.050781 54.359375 C 51.964844 53.914062 51.914062 53.597656 51.914062 53.410156 C 51.914062 51.84375 52.261719 50.539062 52.945312 49.511719 C 53.617188 48.480469 54.523438 47.679688 55.660156 47.097656 C 56.796875 46.519531 58.035156 46.097656 59.382812 45.832031 C 60.730469 45.554688 62.082031 45.375 63.445312 45.296875 C 64.804688 45.214844 66.0625 45.175781 67.210938 45.175781 Z M 66.277344 63.882812 C 67.53125 63.882812 68.800781 63.777344 70.082031 63.5625 C 71.363281 63.355469 72.539062 62.96875 73.609375 62.417969 C 74.679688 61.851562 75.53125 61.039062 76.167969 59.980469 C 76.800781 58.929688 77.089844 57.5625 77.039062 55.886719 C 77.007812 54.554688 76.613281 53.445312 75.851562 52.558594 C 75.097656 51.664062 74.132812 50.957031 72.957031 50.441406 C 71.792969 49.917969 70.550781 49.542969 69.230469 49.3125 C 67.910156 49.089844 66.660156 48.976562 65.488281 48.976562 L 64.734375 49.015625 L 65.128906 63.800781 C 65.3125 63.832031 65.507812 63.851562 65.703125 63.859375 C 65.902344 63.875 66.089844 63.882812 66.277344 63.882812 Z M 66.277344 63.882812 " fill-opacity="1" fill-rule="nonzero"/><path fill="#c43c3c" d="M 92.277344 72.667969 C 92.277344 73.371094 92.125 74.246094 91.824219 75.300781 C 91.515625 76.34375 91.089844 77.433594 90.535156 78.566406 C 89.992188 79.707031 89.347656 80.773438 88.59375 81.773438 C 87.851562 82.761719 87.046875 83.554688 86.175781 84.148438 C 85.304688 84.734375 84.394531 84.980469 83.441406 84.902344 C 82.6875 84.851562 82.085938 84.578125 81.636719 84.089844 C 81.1875 83.589844 80.855469 82.992188 80.648438 82.289062 C 80.449219 81.574219 80.316406 80.859375 80.25 80.128906 C 80.183594 79.394531 80.152344 78.761719 80.152344 78.230469 C 80.152344 76.25 80.292969 74.308594 80.570312 72.390625 C 80.855469 70.480469 81.1875 68.570312 81.558594 66.671875 C 81.925781 64.761719 82.242188 62.847656 82.511719 60.933594 C 82.535156 60.710938 82.554688 60.507812 82.570312 60.320312 C 82.578125 60.136719 82.589844 59.953125 82.589844 59.765625 C 82.589844 59.605469 82.554688 59.304688 82.492188 58.855469 C 82.421875 58.394531 82.257812 58.121094 81.996094 58.042969 C 82.042969 57.675781 82.238281 57.4375 82.570312 57.328125 C 82.910156 57.226562 83.230469 57.171875 83.519531 57.171875 C 84.535156 57.171875 85.328125 57.4375 85.898438 57.964844 C 86.464844 58.476562 86.75 59.265625 86.75 60.320312 C 86.75 61.308594 86.640625 62.289062 86.433594 63.246094 C 86.222656 64.199219 85.984375 65.144531 85.71875 66.078125 C 85.152344 68.019531 84.691406 70.097656 84.332031 72.3125 C 83.976562 74.53125 83.796875 76.648438 83.796875 78.667969 C 83.796875 78.957031 83.816406 79.394531 83.859375 79.972656 C 83.898438 80.542969 84.015625 81.0625 84.214844 81.535156 C 84.414062 82 84.753906 82.230469 85.246094 82.230469 C 85.824219 82.230469 86.394531 81.988281 86.949219 81.496094 C 87.515625 80.996094 88.027344 80.363281 88.496094 79.597656 C 88.96875 78.820312 89.394531 77.992188 89.78125 77.121094 C 90.164062 76.242188 90.484375 75.410156 90.753906 74.628906 C 91.015625 73.835938 91.21875 73.183594 91.367188 72.667969 C 91.765625 72.40625 92.011719 72.3125 92.121094 72.390625 C 92.226562 72.472656 92.277344 72.566406 92.277344 72.667969 Z M 87.363281 51.726562 C 87.363281 52.535156 87.207031 53.207031 86.890625 53.746094 C 86.582031 54.277344 85.984375 54.539062 85.085938 54.539062 C 84.492188 54.539062 84 54.394531 83.621094 54.101562 C 83.234375 53.800781 83.046875 53.332031 83.046875 52.699219 C 83.046875 51.976562 83.070312 51.351562 83.125 50.835938 C 83.175781 50.3125 83.367188 49.917969 83.699219 49.648438 C 84.027344 49.386719 84.609375 49.253906 85.441406 49.253906 C 86.207031 49.253906 86.714844 49.507812 86.96875 50.007812 C 87.230469 50.496094 87.363281 51.070312 87.363281 51.726562 Z M 87.363281 51.726562 " fill-opacity="1" fill-rule="nonzero"/><path fill="#c43c3c" d="M 109.238281 67.996094 L 110.347656 68.15625 C 110.082031 69.042969 109.644531 70.164062 109.042969 71.519531 C 108.449219 72.882812 107.695312 74.3125 106.78125 75.816406 C 105.882812 77.320312 104.847656 78.742188 103.671875 80.070312 C 102.492188 81.40625 101.195312 82.515625 99.769531 83.398438 C 98.339844 84.265625 96.800781 84.742188 95.152344 84.820312 C 94.027344 84.875 93.042969 84.585938 92.199219 83.949219 C 91.367188 83.308594 90.664062 82.480469 90.097656 81.476562 C 89.542969 80.460938 89.132812 79.386719 88.871094 78.25 C 88.601562 77.117188 88.472656 76.082031 88.472656 75.144531 C 88.472656 73.8125 88.617188 72.363281 88.910156 70.789062 C 89.195312 69.21875 89.648438 67.675781 90.257812 66.15625 C 90.875 64.644531 91.664062 63.257812 92.613281 62 C 93.566406 60.75 94.664062 59.746094 95.925781 58.992188 C 97.191406 58.230469 98.644531 57.84375 100.285156 57.84375 C 101.617188 57.84375 102.652344 58.21875 103.394531 58.972656 C 104.148438 59.714844 104.523438 60.75 104.523438 62.078125 C 104.523438 63.386719 104.292969 64.664062 103.832031 65.898438 C 103.378906 67.140625 102.742188 68.246094 101.910156 69.207031 C 101.085938 70.15625 100.109375 70.921875 98.976562 71.5 C 97.835938 72.070312 96.589844 72.351562 95.230469 72.351562 C 95.019531 72.351562 94.785156 72.347656 94.539062 72.332031 C 94.285156 72.324219 94.050781 72.289062 93.84375 72.234375 C 93.589844 73.199219 93.46875 74.191406 93.46875 75.222656 C 93.46875 76.164062 93.605469 77.082031 93.882812 77.992188 C 94.171875 78.894531 94.644531 79.632812 95.308594 80.210938 C 95.984375 80.777344 96.867188 81.0625 97.964844 81.0625 C 98.78125 81.0625 99.640625 80.738281 100.542969 80.089844 C 101.453125 79.433594 102.355469 78.582031 103.253906 77.539062 C 104.152344 76.484375 104.988281 75.355469 105.773438 74.152344 C 106.566406 72.957031 107.257812 71.808594 107.851562 70.710938 C 108.457031 69.617188 108.921875 68.710938 109.238281 67.996094 Z M 101.117188 60.675781 C 100.070312 60.675781 99.140625 61.03125 98.320312 61.742188 C 97.515625 62.445312 96.804688 63.316406 96.203125 64.355469 C 95.605469 65.398438 95.121094 66.464844 94.753906 67.542969 C 94.382812 68.625 94.105469 69.550781 93.921875 70.3125 C 94.050781 70.34375 94.183594 70.351562 94.320312 70.351562 C 94.449219 70.351562 94.582031 70.351562 94.714844 70.351562 C 96.128906 70.351562 97.429688 69.988281 98.617188 69.246094 C 99.808594 68.492188 100.765625 67.503906 101.492188 66.277344 C 102.230469 65.046875 102.601562 63.734375 102.601562 62.316406 C 102.601562 61.84375 102.472656 61.457031 102.226562 61.148438 C 101.988281 60.832031 101.617188 60.675781 101.117188 60.675781 Z M 101.117188 60.675781 " fill-opacity="1" fill-rule="nonzero"/><path fill="#c43c3c" d="M 112.785156 50.460938 C 112.835938 50.105469 112.882812 49.703125 112.921875 49.253906 C 112.964844 48.808594 112.933594 48.375 112.84375 47.949219 C 112.75 47.511719 112.546875 47.175781 112.230469 46.9375 C 112.863281 46.730469 113.558594 46.597656 114.308594 46.542969 C 115.378906 46.492188 116.183594 46.671875 116.726562 47.078125 C 117.28125 47.488281 117.640625 48.027344 117.796875 48.699219 C 117.957031 49.363281 117.964844 50.054688 117.835938 50.777344 C 118.074219 50.777344 118.480469 50.808594 119.066406 50.859375 C 119.660156 50.910156 120.246094 50.957031 120.828125 50.996094 C 121.425781 51.035156 121.839844 51.054688 122.078125 51.054688 C 122.65625 51.054688 123.425781 51.03125 124.375 50.976562 C 125.335938 50.925781 126.328125 50.792969 127.347656 50.582031 C 128.363281 50.371094 129.261719 50.046875 130.042969 49.609375 C 130.835938 49.164062 131.351562 48.550781 131.589844 47.769531 C 131.746094 48.15625 131.875 48.542969 131.984375 48.9375 C 132.089844 49.332031 132.144531 49.746094 132.144531 50.164062 C 132.144531 51.15625 131.855469 51.957031 131.292969 52.558594 C 130.722656 53.152344 129.96875 53.617188 129.03125 53.945312 C 128.09375 54.261719 127.054688 54.472656 125.921875 54.578125 C 124.796875 54.6875 123.671875 54.71875 122.554688 54.675781 C 121.429688 54.636719 120.398438 54.578125 119.460938 54.5 C 118.535156 54.410156 117.804688 54.335938 117.261719 54.28125 C 116.96875 55.589844 116.609375 57.066406 116.171875 58.714844 C 115.738281 60.351562 115.273438 62.058594 114.785156 63.839844 C 114.308594 65.621094 113.855469 67.402344 113.417969 69.183594 C 112.992188 70.957031 112.652344 72.644531 112.386719 74.253906 C 112.121094 75.867188 111.992188 77.296875 111.992188 78.546875 C 111.992188 78.785156 112.011719 79.097656 112.050781 79.476562 C 112.089844 79.847656 112.191406 80.171875 112.347656 80.449219 C 112.507812 80.722656 112.769531 80.863281 113.140625 80.863281 C 113.839844 80.863281 114.574219 80.523438 115.339844 79.832031 C 116.117188 79.136719 116.875 78.25 117.621094 77.183594 C 118.371094 76.101562 119.085938 74.960938 119.757812 73.757812 C 120.441406 72.558594 121.03125 71.433594 121.523438 70.371094 C 122.023438 69.320312 122.40625 68.503906 122.671875 67.917969 L 122.710938 67.878906 C 122.921875 68.011719 123.058594 68.207031 123.128906 68.453125 C 123.191406 68.707031 123.253906 68.941406 123.304688 69.164062 C 122.960938 70.144531 122.523438 71.3125 122 72.667969 C 121.484375 74.03125 120.878906 75.421875 120.195312 76.84375 C 119.523438 78.269531 118.738281 79.597656 117.855469 80.824219 C 116.984375 82.050781 116 83.050781 114.90625 83.8125 C 113.820312 84.5625 112.597656 84.941406 111.238281 84.941406 C 110.089844 84.941406 109.226562 84.703125 108.664062 84.226562 C 108.109375 83.742188 107.746094 83.09375 107.574219 82.289062 C 107.40625 81.472656 107.316406 80.566406 107.316406 79.578125 C 107.316406 78.285156 107.429688 76.992188 107.652344 75.695312 C 107.878906 74.40625 108.132812 73.132812 108.425781 71.878906 C 109.125 68.898438 109.78125 65.898438 110.40625 62.890625 C 111.042969 59.875 111.644531 56.855469 112.230469 53.847656 C 110.550781 53.796875 109.070312 53.816406 107.792969 53.90625 C 106.511719 54 105.402344 54.25 104.460938 54.65625 C 103.511719 55.054688 102.6875 55.722656 101.984375 56.65625 C 101.960938 56.511719 101.941406 56.359375 101.925781 56.203125 C 101.917969 56.042969 101.90625 55.898438 101.90625 55.765625 C 101.90625 54.332031 102.257812 53.234375 102.957031 52.480469 C 103.644531 51.71875 104.542969 51.1875 105.652344 50.898438 C 106.761719 50.609375 107.941406 50.457031 109.179688 50.441406 C 110.433594 50.433594 111.636719 50.4375 112.785156 50.460938 Z M 112.785156 50.460938 " fill-opacity="1" fill-rule="nonzero"/><path fill="#c43c3c" d="M 138.433594 64.832031 C 138.007812 64.386719 137.527344 64.019531 136.984375 63.742188 C 136.457031 63.464844 135.882812 63.328125 135.261719 63.328125 C 134.121094 63.328125 132.992188 63.738281 131.875 64.554688 C 130.75 65.359375 129.683594 66.414062 128.683594 67.722656 C 127.691406 69.027344 126.8125 70.441406 126.046875 71.957031 C 125.28125 73.476562 124.679688 74.960938 124.246094 76.410156 C 123.808594 77.863281 123.589844 79.121094 123.589844 80.191406 C 123.589844 80.617188 123.671875 81.054688 123.828125 81.515625 C 123.988281 81.964844 124.34375 82.1875 124.898438 82.1875 C 125.542969 82.1875 126.210938 81.902344 126.898438 81.320312 C 127.597656 80.722656 128.277344 80.003906 128.941406 79.140625 C 129.613281 78.269531 130.199219 77.414062 130.703125 76.566406 C 131.21875 75.726562 131.605469 75.0625 131.875 74.589844 C 132.347656 73.707031 132.75 72.683594 133.082031 71.519531 C 133.425781 70.347656 133.714844 69.15625 133.953125 67.9375 C 134.191406 66.726562 134.359375 65.621094 134.46875 64.632812 C 134.675781 64.554688 134.90625 64.484375 135.144531 64.414062 C 135.378906 64.351562 135.625 64.316406 135.875 64.316406 C 136.457031 64.316406 136.90625 64.496094 137.222656 64.851562 C 137.550781 65.199219 137.777344 65.617188 137.898438 66.117188 C 138.015625 66.621094 138.074219 67.117188 138.074219 67.601562 C 138.074219 68.859375 137.957031 70.109375 137.71875 71.363281 C 137.492188 72.605469 137.261719 73.855469 137.023438 75.125 C 136.789062 76.390625 136.667969 77.667969 136.667969 78.941406 C 136.667969 79.132812 136.679688 79.449219 136.707031 79.894531 C 136.734375 80.328125 136.8125 80.738281 136.945312 81.121094 C 137.074219 81.507812 137.289062 81.695312 137.578125 81.695312 C 138.09375 81.695312 138.601562 81.414062 139.105469 80.84375 C 139.621094 80.277344 140.136719 79.515625 140.652344 78.566406 C 141.167969 77.617188 141.652344 76.597656 142.117188 75.5 C 142.59375 74.390625 143.035156 73.292969 143.445312 72.195312 C 143.867188 71.101562 144.226562 70.109375 144.535156 69.226562 C 144.835938 68.328125 145.070312 67.65625 145.230469 67.207031 L 146.160156 68.117188 C 145.933594 68.644531 145.65625 69.421875 145.328125 70.453125 C 144.996094 71.480469 144.597656 72.628906 144.140625 73.894531 C 143.6875 75.164062 143.1875 76.449219 142.632812 77.753906 C 142.089844 79.0625 141.503906 80.265625 140.871094 81.359375 C 140.234375 82.441406 139.550781 83.316406 138.828125 83.992188 C 138.113281 84.652344 137.351562 84.980469 136.550781 84.980469 C 135.664062 84.980469 134.96875 84.683594 134.46875 84.089844 C 133.964844 83.484375 133.585938 82.738281 133.339844 81.851562 C 133.101562 80.957031 132.941406 80.0625 132.863281 79.160156 C 132.785156 78.25 132.746094 77.488281 132.746094 76.863281 C 132.746094 76.65625 132.746094 76.445312 132.746094 76.230469 C 132.746094 76.023438 132.753906 75.824219 132.785156 75.636719 C 132.308594 76.5625 131.738281 77.566406 131.082031 78.644531 C 130.433594 79.730469 129.695312 80.753906 128.863281 81.714844 C 128.039062 82.664062 127.117188 83.449219 126.085938 84.070312 C 125.058594 84.679688 123.925781 84.980469 122.699219 84.980469 C 121.746094 84.980469 121.023438 84.742188 120.539062 84.265625 C 120.0625 83.78125 119.742188 83.160156 119.566406 82.40625 C 119.398438 81.644531 119.3125 80.878906 119.3125 80.109375 C 119.3125 79.28125 119.363281 78.457031 119.46875 77.636719 C 119.578125 76.804688 119.707031 75.988281 119.867188 75.183594 C 120.101562 74.050781 120.542969 72.789062 121.191406 71.402344 C 121.851562 70.015625 122.667969 68.632812 123.648438 67.246094 C 124.625 65.859375 125.699219 64.589844 126.878906 63.425781 C 128.070312 62.269531 129.308594 61.335938 130.605469 60.636719 C 131.898438 59.921875 133.1875 59.566406 134.46875 59.566406 C 135.128906 59.566406 135.800781 59.664062 136.488281 59.863281 C 137.1875 60.0625 137.777344 60.40625 138.253906 60.890625 C 138.738281 61.367188 138.988281 62 138.988281 62.792969 C 138.988281 63.574219 138.796875 64.253906 138.433594 64.832031 Z M 127.355469 44.464844 L 130.03125 44.304688 L 135.757812 52.777344 L 132.746094 53.609375 C 132.746094 53.609375 132.585938 53.410156 132.269531 53.015625 C 131.953125 52.617188 131.535156 52.097656 131.019531 51.453125 C 130.515625 50.792969 130 50.09375 129.476562 49.351562 C 128.960938 48.601562 128.496094 47.882812 128.089844 47.195312 C 127.675781 46.5 127.386719 45.90625 127.21875 45.414062 C 127.058594 44.914062 127.101562 44.597656 127.355469 44.464844 Z M 127.355469 44.464844 " fill-opacity="1" fill-rule="nonzero"/><path fill="#c43c3c" d="M 54.105469 3.855469 C 55.421875 3.855469 56.441406 4.089844 57.15625 4.546875 C 57.867188 5.015625 58.226562 5.824219 58.226562 6.984375 C 58.226562 7.988281 58.007812 8.839844 57.570312 9.535156 C 57.144531 10.238281 56.765625 10.757812 56.421875 11.101562 L 56.203125 11.316406 C 55.925781 11.570312 55.613281 11.8125 55.273438 12.050781 C 54.925781 12.277344 54.570312 12.386719 54.203125 12.386719 C 54.003906 12.386719 53.746094 12.308594 53.429688 12.148438 C 53.113281 11.992188 52.953125 11.628906 52.953125 11.058594 C 52.953125 10.664062 53.132812 10.398438 53.488281 10.25 C 53.847656 10.105469 54.109375 10.03125 54.28125 10.03125 C 54.449219 10.03125 54.621094 10.046875 54.777344 10.070312 C 54.9375 10.101562 55.101562 10.109375 55.273438 10.109375 C 55.5625 10.109375 55.839844 10.046875 56.105469 9.914062 C 56.382812 9.769531 56.660156 9.46875 56.9375 9.003906 C 56.9375 8.976562 56.96875 8.960938 57.035156 8.960938 C 57.164062 8.675781 57.265625 8.386719 57.335938 8.109375 C 57.414062 7.824219 57.453125 7.507812 57.453125 7.160156 C 57.453125 6.875 57.402344 6.519531 57.3125 6.09375 C 57.234375 5.65625 56.960938 5.28125 56.5 4.964844 C 56.050781 4.636719 55.253906 4.46875 54.105469 4.46875 C 53.042969 4.46875 51.929688 4.914062 50.753906 5.796875 C 49.589844 6.679688 48.460938 7.863281 47.367188 9.339844 C 46.265625 10.804688 45.265625 12.421875 44.355469 14.1875 C 43.453125 15.960938 42.742188 17.742188 42.214844 19.53125 C 41.683594 21.328125 41.421875 22.996094 41.421875 24.539062 C 41.421875 26.082031 41.546875 27.503906 41.800781 28.792969 C 42.0625 30.078125 42.4375 31.101562 42.929688 31.863281 C 43.414062 32.628906 44.003906 33.011719 44.691406 33.011719 C 45.707031 33.011719 46.617188 32.808594 47.425781 32.398438 C 48.230469 31.992188 48.902344 31.519531 49.449219 30.992188 C 49.988281 30.46875 50.398438 29.996094 50.675781 29.585938 C 50.964844 29.164062 51.113281 28.953125 51.113281 28.953125 C 51.113281 28.953125 51.152344 28.949219 51.230469 28.933594 C 51.320312 28.921875 51.429688 28.914062 51.546875 28.914062 C 51.796875 28.914062 51.925781 28.96875 51.925781 29.070312 L 51.925781 29.132812 C 51.0625 30.386719 50.164062 31.378906 49.230469 32.101562 C 48.289062 32.828125 47.398438 33.335938 46.554688 33.625 C 45.707031 33.902344 44.980469 34.039062 44.375 34.039062 C 44.175781 34.039062 43.808594 33.988281 43.285156 33.902344 C 42.753906 33.796875 42.144531 33.574219 41.460938 33.226562 C 40.773438 32.886719 40.105469 32.335938 39.460938 31.585938 C 38.828125 30.832031 38.292969 29.8125 37.855469 28.515625 C 37.429688 27.210938 37.222656 25.542969 37.222656 23.511719 C 37.222656 21.175781 37.644531 19.007812 38.488281 17 C 39.332031 14.980469 40.421875 13.167969 41.757812 11.554688 C 43.105469 9.933594 44.554688 8.558594 46.097656 7.417969 C 47.644531 6.269531 49.121094 5.394531 50.539062 4.785156 C 51.949219 4.167969 53.136719 3.855469 54.105469 3.855469 Z M 54.105469 3.855469 " fill-opacity="1" fill-rule="nonzero"/><path fill="#c43c3c" d="M 67.910156 18.640625 C 67.910156 18.867188 67.832031 19.324219 67.671875 20.007812 C 67.511719 20.695312 67.304688 21.492188 67.058594 22.402344 C 66.820312 23.3125 66.582031 24.230469 66.34375 25.152344 C 66.105469 26.0625 65.878906 26.875 65.671875 27.585938 C 65.472656 28.300781 65.34375 28.8125 65.292969 29.132812 C 65.265625 29.238281 65.253906 29.363281 65.253906 29.507812 C 65.253906 29.65625 65.253906 29.8125 65.253906 29.980469 C 65.253906 30.605469 65.324219 31.257812 65.472656 31.941406 C 65.617188 32.628906 65.898438 32.972656 66.324219 32.972656 C 66.746094 32.972656 67.148438 32.832031 67.53125 32.554688 C 67.929688 32.269531 68.269531 31.941406 68.5625 31.585938 C 68.867188 31.230469 69.101562 30.914062 69.277344 30.636719 C 69.445312 30.347656 69.535156 30.199219 69.535156 30.199219 C 69.535156 30.199219 69.605469 30.234375 69.753906 30.300781 C 69.894531 30.367188 69.96875 30.449219 69.96875 30.535156 C 69.96875 30.683594 69.800781 31.019531 69.476562 31.546875 C 69.144531 32.074219 68.671875 32.574219 68.066406 33.050781 C 67.472656 33.515625 66.78125 33.742188 65.988281 33.742188 C 64.585938 33.742188 63.59375 33.257812 63.015625 32.277344 C 62.445312 31.289062 62.164062 30.171875 62.164062 28.914062 C 62.164062 28.769531 62.164062 28.625 62.164062 28.476562 C 62.164062 28.335938 62.171875 28.210938 62.203125 28.101562 C 61.433594 29.042969 60.582031 29.9375 59.648438 30.792969 C 58.71875 31.65625 57.8125 32.355469 56.933594 32.910156 C 56.046875 33.464844 55.308594 33.742188 54.714844 33.742188 C 54.167969 33.742188 53.730469 33.613281 53.40625 33.347656 C 53.074219 33.070312 52.832031 32.753906 52.671875 32.398438 C 52.511719 32.039062 52.414062 31.734375 52.375 31.464844 C 52.335938 31.191406 52.316406 31.050781 52.316406 31.050781 C 52.316406 31.050781 52.304688 30.96875 52.277344 30.792969 C 52.234375 30.625 52.214844 30.394531 52.214844 30.101562 C 52.214844 29.480469 52.355469 28.597656 52.632812 27.449219 C 52.894531 26.289062 53.515625 25.007812 54.496094 23.609375 C 55.40625 22.292969 56.386719 21.1875 57.449219 20.304688 C 58.503906 19.421875 59.511719 18.753906 60.480469 18.304688 C 61.453125 17.84375 62.273438 17.613281 62.9375 17.613281 C 63.371094 17.613281 63.71875 17.710938 63.984375 17.910156 C 64.265625 18.105469 64.46875 18.335938 64.601562 18.582031 C 64.691406 18.304688 64.765625 18.097656 64.820312 17.949219 C 64.882812 17.804688 65.023438 17.710938 65.234375 17.671875 C 65.441406 17.632812 65.847656 17.613281 66.441406 17.613281 C 66.824219 17.613281 67.160156 17.6875 67.453125 17.828125 C 67.757812 17.964844 67.910156 18.234375 67.910156 18.640625 Z M 56.933594 31.785156 C 57.296875 31.785156 57.734375 31.582031 58.238281 31.167969 C 58.742188 30.75 59.261719 30.230469 59.804688 29.605469 C 60.34375 28.972656 60.859375 28.335938 61.351562 27.6875 C 61.835938 27.042969 62.242188 26.492188 62.558594 26.042969 L 63.964844 20.816406 C 63.964844 20.621094 63.992188 20.398438 64.046875 20.144531 C 64.109375 19.882812 64.144531 19.640625 64.144531 19.414062 C 64.144531 19.152344 64.066406 18.929688 63.90625 18.738281 C 63.75 18.558594 63.410156 18.460938 62.894531 18.460938 C 62.152344 18.460938 61.355469 18.730469 60.5 19.253906 C 59.636719 19.785156 58.855469 20.441406 58.140625 21.234375 C 57.425781 22.015625 56.882812 22.808594 56.515625 23.609375 C 56.027344 24.71875 55.6875 25.84375 55.503906 26.992188 C 55.316406 28.132812 55.226562 28.992188 55.226562 29.585938 C 55.226562 30.171875 55.347656 30.683594 55.585938 31.128906 C 55.832031 31.566406 56.285156 31.785156 56.933594 31.785156 Z M 56.933594 31.785156 " fill-opacity="1" fill-rule="nonzero"/><path fill="#c43c3c" d="M 70.734375 25.3125 L 73.132812 23.6875 C 73.015625 23.402344 72.925781 23.113281 72.875 22.835938 C 72.820312 22.550781 72.796875 22.234375 72.796875 21.886719 C 72.796875 20.976562 72.980469 20.246094 73.351562 19.691406 C 73.71875 19.125 74.175781 18.695312 74.71875 18.402344 C 75.257812 18.101562 75.777344 17.898438 76.285156 17.789062 C 76.785156 17.671875 77.144531 17.613281 77.375 17.613281 C 77.859375 17.613281 78.207031 17.761719 78.40625 18.046875 C 78.601562 18.324219 78.703125 18.652344 78.703125 19.015625 C 78.703125 19.53125 78.414062 20.105469 77.851562 20.738281 C 77.28125 21.363281 76.621094 22 75.867188 22.660156 C 76.210938 23.054688 76.652344 23.570312 77.195312 24.203125 C 77.75 24.828125 78.246094 25.507812 78.683594 26.261719 C 79.128906 27.003906 79.355469 27.765625 79.355469 28.558594 C 79.355469 28.992188 79.238281 29.46875 79 29.980469 C 78.453125 31.121094 77.851562 31.953125 77.175781 32.476562 C 76.511719 33.003906 75.808594 33.347656 75.054688 33.503906 C 74.3125 33.664062 73.558594 33.742188 72.796875 33.742188 C 71.648438 33.742188 70.742188 33.382812 70.082031 32.652344 C 69.4375 31.933594 69.113281 31.210938 69.113281 30.496094 C 69.113281 29.8125 69.210938 29.285156 69.410156 28.914062 C 69.605469 28.546875 69.796875 28.359375 69.964844 28.359375 C 70.210938 28.359375 70.464844 28.394531 70.714844 28.457031 C 70.980469 28.527344 71.113281 28.789062 71.113281 29.25 C 71.113281 29.683594 70.992188 30.011719 70.757812 30.21875 C 70.519531 30.433594 70.398438 30.722656 70.398438 31.089844 C 70.398438 31.527344 70.546875 31.898438 70.855469 32.199219 C 71.171875 32.492188 71.527344 32.722656 71.925781 32.890625 C 72.332031 33.066406 72.664062 33.148438 72.914062 33.148438 C 73.257812 33.148438 73.71875 33.097656 74.304688 32.992188 C 74.898438 32.871094 75.433594 32.59375 75.90625 32.160156 C 76.394531 31.714844 76.640625 30.988281 76.640625 29.980469 C 76.640625 29.246094 76.453125 28.585938 76.085938 28.003906 C 75.714844 27.410156 75.277344 26.835938 74.777344 26.28125 C 74.273438 25.726562 73.835938 25.125 73.46875 24.460938 C 72.820312 24.886719 72.261719 25.230469 71.785156 25.507812 C 71.3125 25.777344 71.042969 25.90625 70.992188 25.90625 C 70.9375 25.90625 70.863281 25.859375 70.777344 25.765625 C 70.695312 25.664062 70.65625 25.570312 70.65625 25.488281 C 70.65625 25.425781 70.683594 25.367188 70.734375 25.3125 Z M 76.957031 18.285156 C 76.375 18.285156 75.96875 18.597656 75.730469 19.214844 C 75.492188 19.824219 75.371094 20.433594 75.371094 21.035156 C 75.371094 21.210938 75.378906 21.367188 75.394531 21.511719 C 75.402344 21.644531 75.421875 21.78125 75.453125 21.925781 C 76.625 21.015625 77.335938 20.378906 77.574219 20.007812 C 77.808594 19.640625 77.929688 19.367188 77.929688 19.195312 C 77.929688 18.957031 77.878906 18.75 77.789062 18.5625 C 77.710938 18.378906 77.433594 18.285156 76.957031 18.285156 Z M 76.957031 18.285156 " fill-opacity="1" fill-rule="nonzero"/><path fill="#c43c3c" d="M 82.261719 25.3125 L 84.660156 23.6875 C 84.542969 23.402344 84.453125 23.113281 84.402344 22.835938 C 84.347656 22.550781 84.324219 22.234375 84.324219 21.886719 C 84.324219 20.976562 84.507812 20.246094 84.878906 19.691406 C 85.246094 19.125 85.699219 18.695312 86.246094 18.402344 C 86.785156 18.101562 87.304688 17.898438 87.8125 17.789062 C 88.3125 17.671875 88.671875 17.613281 88.902344 17.613281 C 89.386719 17.613281 89.734375 17.761719 89.929688 18.046875 C 90.128906 18.324219 90.226562 18.652344 90.226562 19.015625 C 90.226562 19.53125 89.941406 20.105469 89.375 20.738281 C 88.804688 21.363281 88.148438 22 87.394531 22.660156 C 87.738281 23.054688 88.175781 23.570312 88.722656 24.203125 C 89.277344 24.828125 89.773438 25.507812 90.207031 26.261719 C 90.65625 27.003906 90.882812 27.765625 90.882812 28.558594 C 90.882812 28.992188 90.761719 29.46875 90.527344 29.980469 C 89.980469 31.121094 89.375 31.953125 88.703125 32.476562 C 88.039062 33.003906 87.335938 33.347656 86.582031 33.503906 C 85.839844 33.664062 85.085938 33.742188 84.324219 33.742188 C 83.175781 33.742188 82.269531 33.382812 81.609375 32.652344 C 80.964844 31.933594 80.636719 31.210938 80.636719 30.496094 C 80.636719 29.8125 80.738281 29.285156 80.933594 28.914062 C 81.132812 28.546875 81.320312 28.359375 81.488281 28.359375 C 81.738281 28.359375 81.992188 28.394531 82.242188 28.457031 C 82.503906 28.527344 82.640625 28.789062 82.640625 29.25 C 82.640625 29.683594 82.519531 30.011719 82.28125 30.21875 C 82.042969 30.433594 81.925781 30.722656 81.925781 31.089844 C 81.925781 31.527344 82.074219 31.898438 82.382812 32.199219 C 82.699219 32.492188 83.054688 32.722656 83.453125 32.890625 C 83.859375 33.066406 84.191406 33.148438 84.441406 33.148438 C 84.785156 33.148438 85.246094 33.097656 85.828125 32.992188 C 86.425781 32.871094 86.957031 32.59375 87.433594 32.160156 C 87.917969 31.714844 88.167969 30.988281 88.167969 29.980469 C 88.167969 29.246094 87.980469 28.585938 87.613281 28.003906 C 87.242188 27.410156 86.804688 26.835938 86.304688 26.28125 C 85.800781 25.726562 85.363281 25.125 84.996094 24.460938 C 84.347656 24.886719 83.789062 25.230469 83.3125 25.507812 C 82.835938 25.777344 82.570312 25.90625 82.519531 25.90625 C 82.464844 25.90625 82.390625 25.859375 82.300781 25.765625 C 82.222656 25.664062 82.183594 25.570312 82.183594 25.488281 C 82.183594 25.425781 82.207031 25.367188 82.261719 25.3125 Z M 88.484375 18.285156 C 87.898438 18.285156 87.492188 18.597656 87.257812 19.214844 C 87.019531 19.824219 86.898438 20.433594 86.898438 21.035156 C 86.898438 21.210938 86.90625 21.367188 86.917969 21.511719 C 86.929688 21.644531 86.949219 21.78125 86.980469 21.925781 C 88.152344 21.015625 88.859375 20.378906 89.097656 20.007812 C 89.335938 19.640625 89.457031 19.367188 89.457031 19.195312 C 89.457031 18.957031 89.40625 18.75 89.316406 18.5625 C 89.238281 18.378906 88.960938 18.285156 88.484375 18.285156 Z M 88.484375 18.285156 " fill-opacity="1" fill-rule="nonzero"/><path fill="#c43c3c" d="M 108.273438 18.640625 C 108.273438 18.867188 108.195312 19.324219 108.035156 20.007812 C 107.878906 20.695312 107.667969 21.492188 107.421875 22.402344 C 107.183594 23.3125 106.945312 24.230469 106.707031 25.152344 C 106.472656 26.0625 106.242188 26.875 106.035156 27.585938 C 105.835938 28.300781 105.707031 28.8125 105.660156 29.132812 C 105.628906 29.238281 105.617188 29.363281 105.617188 29.507812 C 105.617188 29.65625 105.617188 29.8125 105.617188 29.980469 C 105.617188 30.605469 105.6875 31.257812 105.835938 31.941406 C 105.980469 32.628906 106.261719 32.972656 106.6875 32.972656 C 107.109375 32.972656 107.511719 32.832031 107.898438 32.554688 C 108.292969 32.269531 108.636719 31.941406 108.929688 31.585938 C 109.230469 31.230469 109.46875 30.914062 109.640625 30.636719 C 109.808594 30.347656 109.898438 30.199219 109.898438 30.199219 C 109.898438 30.199219 109.96875 30.234375 110.117188 30.300781 C 110.261719 30.367188 110.335938 30.449219 110.335938 30.535156 C 110.335938 30.683594 110.167969 31.019531 109.839844 31.546875 C 109.507812 32.074219 109.035156 32.574219 108.433594 33.050781 C 107.839844 33.515625 107.144531 33.742188 106.351562 33.742188 C 104.949219 33.742188 103.960938 33.257812 103.378906 32.277344 C 102.808594 31.289062 102.527344 30.171875 102.527344 28.914062 C 102.527344 28.769531 102.527344 28.625 102.527344 28.476562 C 102.527344 28.335938 102.539062 28.210938 102.566406 28.101562 C 101.800781 29.042969 100.949219 29.9375 100.011719 30.792969 C 99.085938 31.65625 98.179688 32.355469 97.296875 32.910156 C 96.410156 33.464844 95.671875 33.742188 95.078125 33.742188 C 94.53125 33.742188 94.097656 33.613281 93.769531 33.347656 C 93.4375 33.070312 93.195312 32.753906 93.035156 32.398438 C 92.878906 32.039062 92.777344 31.734375 92.738281 31.464844 C 92.699219 31.191406 92.679688 31.050781 92.679688 31.050781 C 92.679688 31.050781 92.667969 30.96875 92.640625 30.792969 C 92.601562 30.625 92.582031 30.394531 92.582031 30.101562 C 92.582031 29.480469 92.71875 28.597656 92.996094 27.449219 C 93.257812 26.289062 93.878906 25.007812 94.859375 23.609375 C 95.769531 22.292969 96.75 21.1875 97.8125 20.304688 C 98.867188 19.421875 99.878906 18.753906 100.84375 18.304688 C 101.820312 17.84375 102.636719 17.613281 103.300781 17.613281 C 103.738281 17.613281 104.082031 17.710938 104.351562 17.910156 C 104.628906 18.105469 104.832031 18.335938 104.964844 18.582031 C 105.054688 18.304688 105.128906 18.097656 105.183594 17.949219 C 105.246094 17.804688 105.386719 17.710938 105.597656 17.671875 C 105.808594 17.632812 106.214844 17.613281 106.808594 17.613281 C 107.1875 17.613281 107.527344 17.6875 107.816406 17.828125 C 108.121094 17.964844 108.273438 18.234375 108.273438 18.640625 Z M 97.296875 31.785156 C 97.664062 31.785156 98.097656 31.582031 98.605469 31.167969 C 99.105469 30.75 99.625 30.230469 100.167969 29.605469 C 100.710938 28.972656 101.226562 28.335938 101.714844 27.6875 C 102.199219 27.042969 102.605469 26.492188 102.925781 26.042969 L 104.332031 20.816406 C 104.332031 20.621094 104.355469 20.398438 104.410156 20.144531 C 104.472656 19.882812 104.507812 19.640625 104.507812 19.414062 C 104.507812 19.152344 104.429688 18.929688 104.269531 18.738281 C 104.113281 18.558594 103.777344 18.460938 103.261719 18.460938 C 102.519531 18.460938 101.71875 18.730469 100.863281 19.253906 C 100 19.785156 99.21875 20.441406 98.503906 21.234375 C 97.792969 22.015625 97.246094 22.808594 96.878906 23.609375 C 96.390625 24.71875 96.054688 25.84375 95.871094 26.992188 C 95.679688 28.132812 95.59375 28.992188 95.59375 29.585938 C 95.59375 30.171875 95.710938 30.683594 95.949219 31.128906 C 96.195312 31.566406 96.648438 31.785156 97.296875 31.785156 Z M 97.296875 31.785156 " fill-opacity="1" fill-rule="nonzero"/></svg>