<svg xmlns="http://www.w3.org/2000/svg" xmlns:xlink="http://www.w3.org/1999/xlink" width="507" zoomAndPan="magnify" viewBox="0 0 380.25 167.999997" height="224" preserveAspectRatio="xMidYMid meet" version="1.0"><defs><clipPath id="92060b4730"><path d="M 0 0.164062 L 379.5 0.164062 L 379.5 70 L 0 70 Z M 0 0.164062 " clip-rule="nonzero"/></clipPath><clipPath id="9f4bdd6144"><path d="M 0 97 L 379.5 97 L 379.5 167.832031 L 0 167.832031 Z M 0 97 " clip-rule="nonzero"/></clipPath><clipPath id="c55ad40090"><path d="M 0 0.164062 L 379.5 0.164062 L 379.5 70 L 0 70 Z M 0 0.164062 " clip-rule="nonzero"/></clipPath><clipPath id="97800a5dff"><path d="M 0 97 L 379.5 97 L 379.5 167.832031 L 0 167.832031 Z M 0 97 " clip-rule="nonzero"/></clipPath></defs><path fill="#c43c3c" d="M 34.914062 96.617188 C 35.46875 96.617188 36.050781 96.316406 36.664062 95.722656 C 37.285156 95.117188 37.902344 94.347656 38.511719 93.417969 C 39.132812 92.480469 39.710938 91.5 40.242188 90.476562 C 40.769531 89.445312 41.242188 88.480469 41.65625 87.578125 C 42.078125 86.679688 42.378906 85.988281 42.570312 85.511719 L 43.285156 87.636719 C 42.859375 88.949219 42.355469 90.359375 41.773438 91.867188 C 41.203125 93.378906 40.5 94.804688 39.664062 96.140625 C 38.839844 97.480469 37.835938 98.574219 36.644531 99.417969 C 35.449219 100.25 34.007812 100.667969 32.328125 100.667969 C 31.554688 100.667969 30.953125 100.394531 30.515625 99.855469 C 30.089844 99.296875 29.785156 98.621094 29.601562 97.828125 C 29.414062 97.023438 29.304688 96.214844 29.265625 95.402344 C 29.226562 94.585938 29.203125 93.925781 29.203125 93.417969 C 29.203125 92.558594 29.230469 91.710938 29.285156 90.875 C 29.335938 90.03125 29.414062 89.1875 29.523438 88.351562 C 29.046875 88.949219 28.578125 89.738281 28.132812 90.714844 C 27.691406 91.683594 27.226562 92.710938 26.738281 93.796875 C 26.261719 94.882812 25.734375 95.910156 25.167969 96.875 C 24.597656 97.828125 23.945312 98.617188 23.21875 99.238281 C 22.488281 99.847656 21.648438 100.152344 20.691406 100.152344 C 18.515625 100.152344 17.019531 99.652344 16.199219 98.640625 C 15.386719 97.625 14.984375 96.175781 14.984375 94.292969 C 14.984375 92.003906 15.304688 89.699219 15.941406 87.378906 C 16.585938 85.0625 17.550781 82.898438 18.824219 80.882812 C 20.097656 78.855469 21.667969 77.136719 23.535156 75.71875 C 24.160156 75.269531 24.847656 74.839844 25.605469 74.425781 C 26.371094 74.019531 27.140625 73.8125 27.914062 73.8125 C 28.667969 73.8125 29.394531 74.007812 30.101562 74.40625 C 30.816406 74.804688 31.371094 75.316406 31.769531 75.9375 C 32.167969 74.136719 32.535156 72.3125 32.882812 70.453125 C 33.242188 68.601562 33.421875 66.75 33.421875 64.890625 C 33.421875 64.574219 33.390625 64.113281 33.339844 63.5 C 33.285156 62.878906 33.148438 62.320312 32.921875 61.8125 C 32.710938 61.296875 32.351562 61.039062 31.851562 61.039062 C 31.660156 61.039062 31.460938 61.097656 31.253906 61.214844 C 31.675781 60.777344 32.199219 60.34375 32.824219 59.90625 C 33.460938 59.46875 34.097656 59.25 34.734375 59.25 C 35.277344 59.25 35.832031 59.441406 36.402344 59.824219 C 36.984375 60.214844 37.476562 60.691406 37.875 61.257812 C 38.273438 61.8125 38.472656 62.359375 38.472656 62.886719 C 38.472656 64.710938 38.296875 66.640625 37.957031 68.664062 C 37.605469 70.683594 37.179688 72.746094 36.664062 74.863281 C 36.15625 76.96875 35.636719 79.085938 35.113281 81.199219 C 34.59375 83.304688 34.160156 85.363281 33.820312 87.359375 C 33.472656 89.359375 33.300781 91.273438 33.300781 93.101562 C 33.300781 93.449219 33.328125 93.90625 33.382812 94.46875 C 33.429688 95.027344 33.570312 95.523438 33.800781 95.960938 C 34.023438 96.398438 34.394531 96.617188 34.914062 96.617188 Z M 20.8125 96.933594 C 21.609375 96.933594 22.402344 96.546875 23.199219 95.761719 C 23.996094 94.96875 24.75 93.933594 25.464844 92.664062 C 26.191406 91.382812 26.863281 89.976562 27.472656 88.453125 C 28.082031 86.917969 28.636719 85.386719 29.144531 83.863281 C 29.664062 82.34375 30.101562 80.957031 30.457031 79.710938 C 30.824219 78.46875 31.09375 77.515625 31.253906 76.851562 L 30.695312 76.808594 C 29.886719 76.808594 29.085938 77.027344 28.289062 77.464844 C 27.503906 77.894531 26.75 78.4375 26.023438 79.113281 C 25.308594 79.78125 24.640625 80.476562 24.035156 81.199219 C 23.4375 81.914062 22.941406 82.582031 22.542969 83.1875 C 22.15625 83.742188 21.777344 84.507812 21.410156 85.472656 C 21.035156 86.441406 20.691406 87.476562 20.375 88.589844 C 20.066406 89.691406 19.828125 90.753906 19.660156 91.789062 C 19.484375 92.820312 19.398438 93.671875 19.398438 94.332031 C 19.398438 94.625 19.425781 94.980469 19.480469 95.402344 C 19.53125 95.816406 19.660156 96.175781 19.859375 96.476562 C 20.066406 96.785156 20.382812 96.933594 20.8125 96.933594 Z M 20.8125 96.933594 " fill-opacity="1" fill-rule="nonzero"/><path fill="#c43c3c" d="M 42.921875 64.96875 C 42.921875 64.96875 43.121094 64.964844 43.519531 64.949219 C 43.925781 64.941406 44.363281 65.003906 44.832031 65.148438 C 45.292969 65.285156 45.65625 65.5625 45.925781 65.984375 C 46.203125 66.410156 46.203125 67.066406 45.925781 67.949219 C 45.65625 68.824219 45.308594 69.667969 44.871094 70.472656 C 44.433594 71.28125 43.976562 71.964844 43.5 72.519531 C 43.03125 73.074219 42.609375 73.484375 42.226562 73.730469 C 41.855469 73.96875 41.601562 74 41.472656 73.8125 C 41.335938 73.585938 41.371094 73.230469 41.570312 72.738281 C 41.78125 72.25 42.027344 71.714844 42.308594 71.128906 C 42.585938 70.53125 42.769531 69.988281 42.863281 69.480469 C 42.953125 68.964844 42.84375 68.617188 42.527344 68.425781 C 42.097656 68.140625 41.792969 67.746094 41.609375 67.253906 C 41.4375 66.753906 41.453125 66.28125 41.652344 65.84375 C 41.859375 65.398438 42.285156 65.105469 42.921875 64.96875 Z M 42.921875 64.96875 " fill-opacity="1" fill-rule="nonzero"/><path fill="#c43c3c" d="M 77.410156 60.28125 C 80.246094 60.28125 82.765625 60.714844 84.96875 61.574219 C 87.179688 62.421875 88.910156 63.734375 90.160156 65.507812 C 91.402344 67.269531 91.988281 69.5 91.910156 72.203125 C 91.855469 74.125 91.417969 75.746094 90.597656 77.070312 C 89.773438 78.394531 88.667969 79.46875 87.277344 80.285156 C 85.882812 81.097656 84.28125 81.691406 82.484375 82.074219 C 80.679688 82.445312 78.730469 82.632812 76.636719 82.632812 C 76.445312 82.632812 76.257812 82.632812 76.058594 82.632812 C 75.859375 82.632812 75.652344 82.621094 75.441406 82.589844 C 75.441406 82.589844 75.433594 82.902344 75.421875 83.523438 C 75.40625 84.136719 75.402344 84.914062 75.402344 85.867188 C 75.402344 86.8125 75.402344 87.824219 75.402344 88.910156 C 75.402344 89.980469 75.394531 91.015625 75.382812 92.007812 C 75.367188 93 75.347656 93.816406 75.324219 94.449219 C 75.292969 94.941406 75.285156 95.535156 75.285156 96.21875 C 75.285156 96.894531 75.214844 97.558594 75.085938 98.207031 C 74.949219 98.839844 74.695312 99.371094 74.328125 99.792969 C 73.972656 100.214844 73.425781 100.429688 72.699219 100.429688 C 71.925781 100.429688 71.289062 100.394531 70.789062 100.332031 C 70.296875 100.261719 69.703125 100.0625 69.019531 99.714844 L 69.179688 64.535156 C 68.527344 64.535156 67.949219 64.8125 67.449219 65.367188 C 66.945312 65.914062 66.492188 66.589844 66.09375 67.394531 C 65.6875 68.1875 65.339844 68.992188 65.0625 69.796875 C 64.78125 70.59375 64.554688 71.269531 64.363281 71.824219 C 64.167969 72.371094 64.015625 72.640625 63.90625 72.640625 C 63.644531 72.640625 63.402344 72.46875 63.171875 72.121094 C 62.949219 71.765625 62.75 71.347656 62.574219 70.871094 C 62.40625 70.394531 62.277344 69.9375 62.195312 69.5 C 62.109375 69.054688 62.058594 68.734375 62.058594 68.546875 C 62.058594 66.972656 62.40625 65.664062 63.09375 64.632812 C 63.769531 63.601562 64.679688 62.796875 65.816406 62.210938 C 66.960938 61.628906 68.203125 61.207031 69.554688 60.9375 C 70.90625 60.660156 72.265625 60.480469 73.632812 60.402344 C 74.996094 60.320312 76.257812 60.28125 77.410156 60.28125 Z M 76.476562 79.054688 C 77.734375 79.054688 79.007812 78.949219 80.296875 78.738281 C 81.578125 78.527344 82.761719 78.140625 83.835938 77.585938 C 84.910156 77.019531 85.765625 76.203125 86.402344 75.140625 C 87.035156 74.082031 87.324219 72.714844 87.277344 71.03125 C 87.246094 69.695312 86.847656 68.582031 86.082031 67.691406 C 85.328125 66.792969 84.355469 66.082031 83.179688 65.566406 C 82.011719 65.039062 80.761719 64.664062 79.441406 64.433594 C 78.113281 64.210938 76.859375 64.097656 75.679688 64.097656 L 74.925781 64.136719 L 75.324219 78.976562 C 75.507812 79.003906 75.699219 79.023438 75.898438 79.035156 C 76.097656 79.050781 76.289062 79.054688 76.476562 79.054688 Z M 76.476562 79.054688 " fill-opacity="1" fill-rule="nonzero"/><path fill="#c43c3c" d="M 102.570312 87.875 C 102.570312 88.582031 102.417969 89.460938 102.113281 90.515625 C 101.804688 91.566406 101.378906 92.65625 100.820312 93.796875 C 100.273438 94.9375 99.628906 96.011719 98.871094 97.011719 C 98.128906 98.007812 97.320312 98.800781 96.445312 99.398438 C 95.570312 99.984375 94.65625 100.230469 93.703125 100.152344 C 92.945312 100.101562 92.339844 99.828125 91.890625 99.335938 C 91.441406 98.835938 91.105469 98.234375 90.898438 97.53125 C 90.699219 96.816406 90.566406 96.09375 90.5 95.363281 C 90.429688 94.625 90.402344 93.988281 90.402344 93.457031 C 90.402344 91.472656 90.539062 89.519531 90.820312 87.597656 C 91.105469 85.679688 91.441406 83.761719 91.8125 81.855469 C 92.179688 79.9375 92.5 78.015625 92.765625 76.09375 C 92.792969 75.871094 92.8125 75.667969 92.828125 75.480469 C 92.835938 75.296875 92.847656 75.113281 92.847656 74.921875 C 92.847656 74.765625 92.8125 74.460938 92.746094 74.007812 C 92.679688 73.546875 92.515625 73.273438 92.25 73.195312 C 92.300781 72.828125 92.492188 72.589844 92.828125 72.480469 C 93.171875 72.375 93.488281 72.320312 93.78125 72.320312 C 94.800781 72.320312 95.597656 72.589844 96.167969 73.117188 C 96.734375 73.632812 97.023438 74.421875 97.023438 75.480469 C 97.023438 76.472656 96.914062 77.457031 96.707031 78.417969 C 96.492188 79.371094 96.253906 80.320312 95.988281 81.261719 C 95.417969 83.207031 94.957031 85.292969 94.597656 87.519531 C 94.238281 89.742188 94.058594 91.867188 94.058594 93.894531 C 94.058594 94.1875 94.078125 94.625 94.121094 95.207031 C 94.160156 95.777344 94.277344 96.296875 94.476562 96.773438 C 94.675781 97.242188 95.019531 97.46875 95.511719 97.46875 C 96.09375 97.46875 96.664062 97.226562 97.222656 96.734375 C 97.789062 96.234375 98.304688 95.597656 98.773438 94.828125 C 99.25 94.046875 99.679688 93.21875 100.066406 92.34375 C 100.449219 91.460938 100.773438 90.625 101.039062 89.84375 C 101.304688 89.046875 101.507812 88.390625 101.65625 87.875 C 102.054688 87.613281 102.304688 87.519531 102.414062 87.597656 C 102.515625 87.675781 102.570312 87.769531 102.570312 87.875 Z M 97.640625 66.859375 C 97.640625 67.667969 97.480469 68.34375 97.164062 68.882812 C 96.855469 69.414062 96.253906 69.679688 95.351562 69.679688 C 94.757812 69.679688 94.265625 69.535156 93.882812 69.242188 C 93.492188 68.9375 93.304688 68.46875 93.304688 67.832031 C 93.304688 67.105469 93.328125 66.480469 93.382812 65.964844 C 93.433594 65.4375 93.628906 65.039062 93.960938 64.773438 C 94.289062 64.507812 94.875 64.375 95.710938 64.375 C 96.476562 64.375 96.988281 64.628906 97.242188 65.128906 C 97.503906 65.621094 97.640625 66.199219 97.640625 66.859375 Z M 97.640625 66.859375 " fill-opacity="1" fill-rule="nonzero"/><path fill="#c43c3c" d="M 119.59375 83.1875 L 120.707031 83.347656 C 120.441406 84.234375 120.003906 85.363281 119.394531 86.722656 C 118.800781 88.089844 118.042969 89.523438 117.128906 91.035156 C 116.222656 92.542969 115.183594 93.96875 114.007812 95.304688 C 112.824219 96.644531 111.519531 97.757812 110.089844 98.640625 C 108.65625 99.515625 107.109375 99.992188 105.453125 100.074219 C 104.328125 100.128906 103.335938 99.835938 102.492188 99.199219 C 101.65625 98.554688 100.949219 97.722656 100.382812 96.714844 C 99.828125 95.699219 99.414062 94.621094 99.152344 93.476562 C 98.882812 92.339844 98.753906 91.300781 98.753906 90.359375 C 98.753906 89.023438 98.898438 87.566406 99.191406 85.988281 C 99.480469 84.414062 99.929688 82.863281 100.542969 81.339844 C 101.164062 79.820312 101.953125 78.429688 102.910156 77.167969 C 103.863281 75.910156 104.96875 74.902344 106.230469 74.148438 C 107.503906 73.382812 108.960938 72.996094 110.605469 72.996094 C 111.941406 72.996094 112.980469 73.375 113.726562 74.128906 C 114.484375 74.875 114.863281 75.910156 114.863281 77.246094 C 114.863281 78.558594 114.628906 79.839844 114.164062 81.082031 C 113.714844 82.328125 113.070312 83.433594 112.238281 84.398438 C 111.410156 85.351562 110.433594 86.121094 109.292969 86.703125 C 108.148438 87.273438 106.898438 87.558594 105.535156 87.558594 C 105.320312 87.558594 105.085938 87.550781 104.839844 87.539062 C 104.585938 87.527344 104.351562 87.492188 104.140625 87.4375 C 103.886719 88.40625 103.765625 89.40625 103.765625 90.4375 C 103.765625 91.382812 103.902344 92.304688 104.183594 93.21875 C 104.46875 94.121094 104.949219 94.863281 105.613281 95.445312 C 106.289062 96.015625 107.175781 96.296875 108.277344 96.296875 C 109.097656 96.296875 109.960938 95.976562 110.863281 95.324219 C 111.777344 94.664062 112.683594 93.808594 113.589844 92.761719 C 114.488281 91.703125 115.328125 90.570312 116.113281 89.367188 C 116.910156 88.164062 117.605469 87.011719 118.203125 85.910156 C 118.808594 84.8125 119.277344 83.902344 119.59375 83.1875 Z M 111.441406 75.835938 C 110.390625 75.835938 109.457031 76.195312 108.636719 76.910156 C 107.828125 77.613281 107.117188 78.488281 106.507812 79.53125 C 105.914062 80.578125 105.425781 81.648438 105.058594 82.730469 C 104.683594 83.816406 104.40625 84.746094 104.222656 85.511719 C 104.351562 85.542969 104.484375 85.550781 104.621094 85.550781 C 104.75 85.550781 104.882812 85.550781 105.015625 85.550781 C 106.433594 85.550781 107.742188 85.183594 108.933594 84.4375 C 110.128906 83.683594 111.089844 82.691406 111.820312 81.457031 C 112.558594 80.226562 112.933594 78.90625 112.933594 77.484375 C 112.933594 77.007812 112.804688 76.621094 112.554688 76.3125 C 112.316406 75.996094 111.941406 75.835938 111.441406 75.835938 Z M 111.441406 75.835938 " fill-opacity="1" fill-rule="nonzero"/><path fill="#c43c3c" d="M 123.152344 65.585938 C 123.203125 65.230469 123.253906 64.828125 123.292969 64.375 C 123.332031 63.929688 123.300781 63.492188 123.210938 63.0625 C 123.117188 62.625 122.914062 62.289062 122.597656 62.050781 C 123.230469 61.84375 123.929688 61.707031 124.683594 61.652344 C 125.757812 61.601562 126.5625 61.78125 127.109375 62.191406 C 127.667969 62.601562 128.023438 63.144531 128.183594 63.820312 C 128.34375 64.484375 128.351562 65.179688 128.222656 65.90625 C 128.460938 65.90625 128.871094 65.933594 129.457031 65.984375 C 130.054688 66.039062 130.640625 66.082031 131.226562 66.121094 C 131.824219 66.164062 132.242188 66.183594 132.480469 66.183594 C 133.0625 66.183594 133.832031 66.15625 134.789062 66.101562 C 135.75 66.054688 136.746094 65.917969 137.769531 65.707031 C 138.789062 65.496094 139.691406 65.167969 140.476562 64.730469 C 141.269531 64.285156 141.789062 63.667969 142.027344 62.886719 C 142.183594 63.273438 142.316406 63.660156 142.425781 64.058594 C 142.527344 64.453125 142.582031 64.867188 142.582031 65.289062 C 142.582031 66.28125 142.292969 67.085938 141.726562 67.691406 C 141.15625 68.289062 140.402344 68.753906 139.460938 69.082031 C 138.515625 69.402344 137.476562 69.613281 136.339844 69.71875 C 135.210938 69.828125 134.082031 69.859375 132.957031 69.816406 C 131.828125 69.777344 130.792969 69.71875 129.855469 69.640625 C 128.925781 69.550781 128.1875 69.476562 127.648438 69.421875 C 127.355469 70.730469 126.992188 72.214844 126.554688 73.871094 C 126.117188 75.515625 125.648438 77.226562 125.160156 79.015625 C 124.683594 80.804688 124.226562 82.589844 123.789062 84.378906 C 123.363281 86.15625 123.019531 87.851562 122.753906 89.464844 C 122.488281 91.082031 122.355469 92.519531 122.355469 93.773438 C 122.355469 94.015625 122.378906 94.328125 122.417969 94.710938 C 122.457031 95.082031 122.554688 95.402344 122.714844 95.683594 C 122.875 95.960938 123.136719 96.097656 123.511719 96.097656 C 124.210938 96.097656 124.949219 95.757812 125.71875 95.066406 C 126.5 94.367188 127.257812 93.476562 128.003906 92.40625 C 128.761719 91.320312 129.476562 90.175781 130.152344 88.96875 C 130.839844 87.765625 131.429688 86.632812 131.921875 85.570312 C 132.425781 84.511719 132.808594 83.695312 133.078125 83.109375 L 133.117188 83.066406 C 133.324219 83.203125 133.464844 83.394531 133.535156 83.644531 C 133.597656 83.898438 133.660156 84.136719 133.714844 84.359375 C 133.363281 85.34375 132.925781 86.515625 132.402344 87.875 C 131.882812 89.242188 131.277344 90.636719 130.589844 92.066406 C 129.914062 93.496094 129.128906 94.828125 128.242188 96.058594 C 127.367188 97.292969 126.378906 98.292969 125.28125 99.058594 C 124.191406 99.8125 122.964844 100.191406 121.601562 100.191406 C 120.449219 100.191406 119.582031 99.953125 119.015625 99.476562 C 118.460938 98.988281 118.097656 98.339844 117.921875 97.53125 C 117.753906 96.710938 117.664062 95.800781 117.664062 94.808594 C 117.664062 93.511719 117.777344 92.214844 118 90.914062 C 118.230469 89.617188 118.484375 88.34375 118.777344 87.082031 C 119.480469 84.089844 120.140625 81.082031 120.765625 78.0625 C 121.402344 75.03125 122.007812 72.003906 122.597656 68.984375 C 120.910156 68.933594 119.425781 68.953125 118.140625 69.042969 C 116.859375 69.136719 115.746094 69.390625 114.800781 69.796875 C 113.84375 70.195312 113.019531 70.867188 112.3125 71.804688 C 112.289062 71.660156 112.269531 71.507812 112.253906 71.347656 C 112.246094 71.1875 112.234375 71.042969 112.234375 70.910156 C 112.234375 69.46875 112.585938 68.367188 113.289062 67.613281 C 113.980469 66.847656 114.878906 66.316406 115.992188 66.023438 C 117.105469 65.734375 118.289062 65.582031 119.535156 65.566406 C 120.792969 65.558594 122 65.5625 123.152344 65.585938 Z M 123.152344 65.585938 " fill-opacity="1" fill-rule="nonzero"/><path fill="#c43c3c" d="M 148.894531 80.007812 C 148.464844 79.5625 147.984375 79.195312 147.441406 78.917969 C 146.910156 78.636719 146.332031 78.5 145.710938 78.5 C 144.570312 78.5 143.433594 78.910156 142.3125 79.730469 C 141.183594 80.539062 140.113281 81.597656 139.109375 82.910156 C 138.113281 84.21875 137.230469 85.640625 136.464844 87.160156 C 135.695312 88.683594 135.09375 90.175781 134.65625 91.628906 C 134.21875 93.089844 134 94.351562 134 95.425781 C 134 95.851562 134.078125 96.292969 134.238281 96.753906 C 134.394531 97.207031 134.753906 97.429688 135.3125 97.429688 C 135.957031 97.429688 136.628906 97.140625 137.320312 96.554688 C 138.019531 95.960938 138.703125 95.234375 139.367188 94.371094 C 140.042969 93.496094 140.632812 92.636719 141.136719 91.789062 C 141.65625 90.945312 142.042969 90.277344 142.3125 89.800781 C 142.789062 88.917969 143.191406 87.890625 143.523438 86.722656 C 143.867188 85.546875 144.160156 84.347656 144.398438 83.128906 C 144.636719 81.910156 144.808594 80.804688 144.917969 79.808594 C 145.125 79.730469 145.355469 79.660156 145.59375 79.589844 C 145.832031 79.527344 146.074219 79.492188 146.328125 79.492188 C 146.910156 79.492188 147.363281 79.671875 147.679688 80.027344 C 148.007812 80.375 148.238281 80.796875 148.355469 81.300781 C 148.476562 81.804688 148.535156 82.304688 148.535156 82.789062 C 148.535156 84.050781 148.417969 85.308594 148.179688 86.5625 C 147.949219 87.8125 147.722656 89.066406 147.480469 90.339844 C 147.242188 91.609375 147.125 92.890625 147.125 94.171875 C 147.125 94.363281 147.132812 94.679688 147.164062 95.125 C 147.1875 95.5625 147.269531 95.976562 147.402344 96.359375 C 147.53125 96.746094 147.746094 96.933594 148.039062 96.933594 C 148.554688 96.933594 149.0625 96.652344 149.570312 96.078125 C 150.085938 95.511719 150.605469 94.75 151.121094 93.796875 C 151.640625 92.839844 152.125 91.820312 152.59375 90.714844 C 153.070312 89.605469 153.511719 88.5 153.925781 87.398438 C 154.347656 86.300781 154.710938 85.308594 155.019531 84.417969 C 155.324219 83.519531 155.558594 82.84375 155.714844 82.390625 L 156.652344 83.304688 C 156.421875 83.835938 156.144531 84.617188 155.816406 85.652344 C 155.480469 86.683594 155.085938 87.835938 154.621094 89.105469 C 154.167969 90.378906 153.667969 91.667969 153.109375 92.980469 C 152.5625 94.292969 151.976562 95.5 151.339844 96.597656 C 150.703125 97.683594 150.019531 98.5625 149.292969 99.238281 C 148.574219 99.902344 147.808594 100.230469 147.003906 100.230469 C 146.113281 100.230469 145.417969 99.933594 144.917969 99.335938 C 144.410156 98.730469 144.03125 97.980469 143.78125 97.09375 C 143.542969 96.195312 143.386719 95.296875 143.304688 94.390625 C 143.226562 93.476562 143.1875 92.710938 143.1875 92.085938 C 143.1875 91.878906 143.1875 91.664062 143.1875 91.449219 C 143.1875 91.242188 143.195312 91.042969 143.226562 90.855469 C 142.75 91.785156 142.175781 92.792969 141.515625 93.875 C 140.863281 94.960938 140.125 95.992188 139.289062 96.953125 C 138.464844 97.90625 137.539062 98.695312 136.503906 99.316406 C 135.46875 99.929688 134.335938 100.230469 133.101562 100.230469 C 132.148438 100.230469 131.421875 99.992188 130.9375 99.515625 C 130.457031 99.03125 130.136719 98.402344 129.960938 97.648438 C 129.792969 96.882812 129.703125 96.113281 129.703125 95.34375 C 129.703125 94.511719 129.757812 93.6875 129.863281 92.863281 C 129.972656 92.027344 130.101562 91.207031 130.257812 90.398438 C 130.5 89.261719 130.941406 87.996094 131.59375 86.605469 C 132.253906 85.214844 133.074219 83.824219 134.058594 82.433594 C 135.039062 81.042969 136.117188 79.765625 137.300781 78.597656 C 138.492188 77.4375 139.734375 76.503906 141.039062 75.796875 C 142.335938 75.082031 143.628906 74.722656 144.917969 74.722656 C 145.578125 74.722656 146.253906 74.824219 146.945312 75.023438 C 147.644531 75.222656 148.238281 75.570312 148.714844 76.054688 C 149.203125 76.53125 149.449219 77.167969 149.449219 77.960938 C 149.449219 78.746094 149.261719 79.425781 148.894531 80.007812 Z M 137.777344 59.566406 L 140.460938 59.410156 L 146.210938 67.910156 L 143.1875 68.746094 C 143.1875 68.746094 143.027344 68.546875 142.710938 68.148438 C 142.390625 67.75 141.972656 67.230469 141.457031 66.578125 C 140.949219 65.917969 140.433594 65.21875 139.90625 64.472656 C 139.386719 63.71875 138.921875 63 138.511719 62.308594 C 138.101562 61.609375 137.808594 61.011719 137.636719 60.519531 C 137.480469 60.019531 137.523438 59.703125 137.777344 59.566406 Z M 137.777344 59.566406 " fill-opacity="1" fill-rule="nonzero"/><path fill="#c43c3c" d="M 64.257812 18.808594 C 65.578125 18.808594 66.605469 19.042969 67.320312 19.503906 C 68.035156 19.972656 68.394531 20.785156 68.394531 21.949219 C 68.394531 22.957031 68.175781 23.8125 67.738281 24.511719 C 67.308594 25.214844 66.925781 25.738281 66.582031 26.082031 L 66.363281 26.300781 C 66.085938 26.550781 65.773438 26.796875 65.429688 27.035156 C 65.082031 27.261719 64.722656 27.371094 64.355469 27.371094 C 64.15625 27.371094 63.898438 27.292969 63.582031 27.132812 C 63.261719 26.972656 63.101562 26.613281 63.101562 26.039062 C 63.101562 25.644531 63.28125 25.375 63.640625 25.226562 C 64 25.082031 64.261719 25.007812 64.4375 25.007812 C 64.605469 25.007812 64.773438 25.023438 64.933594 25.046875 C 65.09375 25.078125 65.257812 25.085938 65.429688 25.085938 C 65.71875 25.085938 65.996094 25.023438 66.265625 24.886719 C 66.542969 24.746094 66.824219 24.441406 67.101562 23.976562 C 67.101562 23.949219 67.128906 23.933594 67.199219 23.933594 C 67.328125 23.648438 67.429688 23.359375 67.5 23.082031 C 67.578125 22.792969 67.617188 22.476562 67.617188 22.128906 C 67.617188 21.839844 67.566406 21.480469 67.480469 21.054688 C 67.398438 20.617188 67.125 20.238281 66.664062 19.921875 C 66.210938 19.59375 65.410156 19.425781 64.257812 19.425781 C 63.191406 19.425781 62.074219 19.871094 60.894531 20.757812 C 59.726562 21.644531 58.59375 22.832031 57.496094 24.3125 C 56.390625 25.78125 55.386719 27.40625 54.472656 29.179688 C 53.566406 30.957031 52.851562 32.746094 52.324219 34.542969 C 51.792969 36.347656 51.527344 38.019531 51.527344 39.570312 C 51.527344 41.117188 51.652344 42.542969 51.90625 43.839844 C 52.171875 45.125 52.546875 46.152344 53.039062 46.917969 C 53.527344 47.6875 54.121094 48.070312 54.808594 48.070312 C 55.828125 48.070312 56.746094 47.867188 57.554688 47.457031 C 58.359375 47.046875 59.035156 46.578125 59.582031 46.046875 C 60.125 45.519531 60.539062 45.046875 60.816406 44.632812 C 61.105469 44.210938 61.253906 44 61.253906 44 C 61.253906 44 61.292969 43.992188 61.375 43.980469 C 61.460938 43.96875 61.570312 43.960938 61.691406 43.960938 C 61.941406 43.960938 62.070312 44.015625 62.070312 44.117188 L 62.070312 44.175781 C 61.203125 45.4375 60.304688 46.433594 59.363281 47.15625 C 58.417969 47.886719 57.523438 48.398438 56.679688 48.6875 C 55.828125 48.964844 55.097656 49.105469 54.492188 49.105469 C 54.292969 49.105469 53.925781 49.054688 53.398438 48.964844 C 52.867188 48.859375 52.253906 48.636719 51.570312 48.289062 C 50.878906 47.945312 50.207031 47.394531 49.558594 46.640625 C 48.921875 45.886719 48.386719 44.863281 47.949219 43.5625 C 47.519531 42.25 47.3125 40.578125 47.3125 38.535156 C 47.3125 36.191406 47.734375 34.015625 48.585938 32 C 49.429688 29.972656 50.523438 28.15625 51.867188 26.539062 C 53.21875 24.910156 54.671875 23.527344 56.222656 22.386719 C 57.773438 21.234375 59.253906 20.355469 60.675781 19.742188 C 62.09375 19.121094 63.289062 18.808594 64.257812 18.808594 Z M 64.257812 18.808594 " fill-opacity="1" fill-rule="nonzero"/><path fill="#c43c3c" d="M 78.113281 33.648438 C 78.113281 33.878906 78.035156 34.335938 77.875 35.019531 C 77.714844 35.710938 77.507812 36.507812 77.257812 37.421875 C 77.019531 38.335938 76.78125 39.261719 76.542969 40.183594 C 76.304688 41.097656 76.074219 41.914062 75.867188 42.628906 C 75.667969 43.34375 75.539062 43.859375 75.488281 44.175781 C 75.457031 44.285156 75.449219 44.410156 75.449219 44.554688 C 75.449219 44.703125 75.449219 44.863281 75.449219 45.03125 C 75.449219 45.65625 75.519531 46.3125 75.667969 47 C 75.8125 47.6875 76.09375 48.03125 76.523438 48.03125 C 76.945312 48.03125 77.347656 47.890625 77.734375 47.613281 C 78.132812 47.328125 78.476562 47 78.769531 46.640625 C 79.074219 46.285156 79.3125 45.964844 79.484375 45.6875 C 79.65625 45.398438 79.742188 45.25 79.742188 45.25 C 79.742188 45.25 79.8125 45.285156 79.960938 45.351562 C 80.105469 45.417969 80.179688 45.5 80.179688 45.589844 C 80.179688 45.738281 80.011719 46.074219 79.683594 46.601562 C 79.351562 47.132812 78.878906 47.632812 78.273438 48.109375 C 77.675781 48.578125 76.980469 48.804688 76.183594 48.804688 C 74.777344 48.804688 73.78125 48.320312 73.199219 47.335938 C 72.628906 46.34375 72.34375 45.21875 72.34375 43.960938 C 72.34375 43.816406 72.34375 43.671875 72.34375 43.523438 C 72.34375 43.378906 72.355469 43.253906 72.386719 43.144531 C 71.613281 44.089844 70.757812 44.988281 69.820312 45.847656 C 68.890625 46.710938 67.980469 47.414062 67.09375 47.972656 C 66.207031 48.527344 65.464844 48.804688 64.867188 48.804688 C 64.320312 48.804688 63.882812 48.675781 63.554688 48.410156 C 63.222656 48.128906 62.976562 47.8125 62.820312 47.457031 C 62.660156 47.097656 62.5625 46.789062 62.519531 46.523438 C 62.480469 46.242188 62.460938 46.105469 62.460938 46.105469 C 62.460938 46.105469 62.453125 46.019531 62.421875 45.847656 C 62.382812 45.675781 62.363281 45.445312 62.363281 45.152344 C 62.363281 44.53125 62.5 43.640625 62.78125 42.488281 C 63.042969 41.328125 63.664062 40.039062 64.648438 38.636719 C 65.5625 37.3125 66.546875 36.207031 67.613281 35.316406 C 68.671875 34.433594 69.6875 33.761719 70.65625 33.3125 C 71.632812 32.847656 72.453125 32.617188 73.121094 32.617188 C 73.558594 32.617188 73.90625 32.714844 74.175781 32.914062 C 74.453125 33.113281 74.65625 33.339844 74.792969 33.589844 C 74.882812 33.3125 74.957031 33.101562 75.011719 32.953125 C 75.074219 32.808594 75.214844 32.714844 75.429688 32.675781 C 75.636719 32.636719 76.042969 32.617188 76.640625 32.617188 C 77.023438 32.617188 77.363281 32.691406 77.65625 32.835938 C 77.957031 32.96875 78.113281 33.242188 78.113281 33.648438 Z M 67.09375 46.839844 C 67.464844 46.839844 67.902344 46.636719 68.40625 46.222656 C 68.910156 45.800781 69.433594 45.28125 69.980469 44.65625 C 70.519531 44.019531 71.039062 43.378906 71.53125 42.726562 C 72.015625 42.082031 72.425781 41.53125 72.742188 41.078125 L 74.15625 35.835938 C 74.15625 35.636719 74.179688 35.410156 74.234375 35.160156 C 74.300781 34.894531 74.335938 34.652344 74.335938 34.421875 C 74.335938 34.160156 74.253906 33.9375 74.097656 33.75 C 73.9375 33.566406 73.597656 33.46875 73.082031 33.46875 C 72.335938 33.46875 71.535156 33.738281 70.675781 34.265625 C 69.808594 34.796875 69.023438 35.457031 68.308594 36.25 C 67.59375 37.035156 67.046875 37.832031 66.675781 38.636719 C 66.183594 39.746094 65.847656 40.878906 65.664062 42.03125 C 65.472656 43.175781 65.386719 44.039062 65.386719 44.632812 C 65.386719 45.21875 65.503906 45.738281 65.742188 46.183594 C 65.992188 46.621094 66.445312 46.839844 67.09375 46.839844 Z M 67.09375 46.839844 " fill-opacity="1" fill-rule="nonzero"/><path fill="#c43c3c" d="M 80.949219 40.34375 L 83.355469 38.714844 C 83.238281 38.425781 83.148438 38.136719 83.097656 37.859375 C 83.042969 37.574219 83.019531 37.253906 83.019531 36.90625 C 83.019531 35.992188 83.203125 35.257812 83.574219 34.703125 C 83.941406 34.136719 84.402344 33.703125 84.949219 33.410156 C 85.488281 33.109375 86.011719 32.902344 86.519531 32.792969 C 87.019531 32.675781 87.382812 32.617188 87.613281 32.617188 C 88.097656 32.617188 88.449219 32.765625 88.644531 33.054688 C 88.84375 33.332031 88.945312 33.660156 88.945312 34.027344 C 88.945312 34.542969 88.65625 35.117188 88.089844 35.753906 C 87.519531 36.378906 86.855469 37.019531 86.101562 37.683594 C 86.445312 38.078125 86.886719 38.59375 87.433594 39.230469 C 87.988281 39.855469 88.488281 40.542969 88.925781 41.296875 C 89.371094 42.042969 89.601562 42.808594 89.601562 43.601562 C 89.601562 44.039062 89.480469 44.515625 89.242188 45.03125 C 88.695312 46.175781 88.089844 47.007812 87.414062 47.535156 C 86.746094 48.066406 86.042969 48.410156 85.285156 48.566406 C 84.539062 48.726562 83.785156 48.804688 83.019531 48.804688 C 81.863281 48.804688 80.953125 48.445312 80.292969 47.714844 C 79.648438 46.988281 79.320312 46.261719 79.320312 45.546875 C 79.320312 44.863281 79.417969 44.332031 79.617188 43.960938 C 79.816406 43.589844 80.003906 43.402344 80.175781 43.402344 C 80.421875 43.402344 80.675781 43.4375 80.929688 43.503906 C 81.195312 43.570312 81.328125 43.835938 81.328125 44.296875 C 81.328125 44.734375 81.207031 45.0625 80.96875 45.269531 C 80.730469 45.484375 80.613281 45.777344 80.613281 46.144531 C 80.613281 46.582031 80.761719 46.953125 81.070312 47.257812 C 81.386719 47.550781 81.746094 47.785156 82.144531 47.953125 C 82.550781 48.125 82.882812 48.210938 83.136719 48.210938 C 83.480469 48.210938 83.941406 48.160156 84.53125 48.050781 C 85.125 47.933594 85.664062 47.652344 86.140625 47.21875 C 86.628906 46.769531 86.875 46.039062 86.875 45.03125 C 86.875 44.292969 86.6875 43.632812 86.320312 43.046875 C 85.945312 42.449219 85.507812 41.875 85.007812 41.316406 C 84.5 40.761719 84.0625 40.15625 83.695312 39.488281 C 83.042969 39.917969 82.480469 40.265625 82.003906 40.542969 C 81.527344 40.808594 81.257812 40.941406 81.207031 40.941406 C 81.152344 40.941406 81.078125 40.894531 80.988281 40.800781 C 80.910156 40.695312 80.871094 40.601562 80.871094 40.523438 C 80.871094 40.457031 80.894531 40.398438 80.949219 40.34375 Z M 87.195312 33.292969 C 86.609375 33.292969 86.199219 33.605469 85.960938 34.226562 C 85.722656 34.835938 85.605469 35.445312 85.605469 36.054688 C 85.605469 36.226562 85.609375 36.386719 85.625 36.53125 C 85.632812 36.664062 85.652344 36.800781 85.683594 36.945312 C 86.863281 36.03125 87.574219 35.390625 87.8125 35.019531 C 88.050781 34.652344 88.167969 34.378906 88.167969 34.207031 C 88.167969 33.96875 88.121094 33.757812 88.03125 33.570312 C 87.949219 33.386719 87.671875 33.292969 87.195312 33.292969 Z M 87.195312 33.292969 " fill-opacity="1" fill-rule="nonzero"/><path fill="#c43c3c" d="M 92.519531 40.34375 L 94.925781 38.714844 C 94.804688 38.425781 94.714844 38.136719 94.667969 37.859375 C 94.613281 37.574219 94.585938 37.253906 94.585938 36.90625 C 94.585938 35.992188 94.769531 35.257812 95.144531 34.703125 C 95.511719 34.136719 95.96875 33.703125 96.515625 33.410156 C 97.058594 33.109375 97.582031 32.902344 98.085938 32.792969 C 98.589844 32.675781 98.953125 32.617188 99.179688 32.617188 C 99.667969 32.617188 100.015625 32.765625 100.214844 33.054688 C 100.414062 33.332031 100.511719 33.660156 100.511719 34.027344 C 100.511719 34.542969 100.226562 35.117188 99.660156 35.753906 C 99.085938 36.378906 98.425781 37.019531 97.667969 37.683594 C 98.011719 38.078125 98.457031 38.59375 99.003906 39.230469 C 99.558594 39.855469 100.054688 40.542969 100.492188 41.296875 C 100.941406 42.042969 101.167969 42.808594 101.167969 43.601562 C 101.167969 44.039062 101.050781 44.515625 100.8125 45.03125 C 100.265625 46.175781 99.660156 47.007812 98.980469 47.535156 C 98.316406 48.066406 97.609375 48.410156 96.855469 48.566406 C 96.109375 48.726562 95.351562 48.804688 94.585938 48.804688 C 93.433594 48.804688 92.523438 48.445312 91.863281 47.714844 C 91.214844 46.988281 90.886719 46.261719 90.886719 45.546875 C 90.886719 44.863281 90.988281 44.332031 91.1875 43.960938 C 91.386719 43.589844 91.574219 43.402344 91.742188 43.402344 C 91.992188 43.402344 92.246094 43.4375 92.5 43.503906 C 92.761719 43.570312 92.898438 43.835938 92.898438 44.296875 C 92.898438 44.734375 92.777344 45.0625 92.539062 45.269531 C 92.300781 45.484375 92.179688 45.777344 92.179688 46.144531 C 92.179688 46.582031 92.328125 46.953125 92.636719 47.257812 C 92.957031 47.550781 93.3125 47.785156 93.710938 47.953125 C 94.121094 48.125 94.453125 48.210938 94.707031 48.210938 C 95.050781 48.210938 95.511719 48.160156 96.097656 48.050781 C 96.695312 47.933594 97.230469 47.652344 97.710938 47.21875 C 98.195312 46.769531 98.445312 46.039062 98.445312 45.03125 C 98.445312 44.292969 98.257812 43.632812 97.886719 43.046875 C 97.515625 42.449219 97.078125 41.875 96.574219 41.316406 C 96.070312 40.761719 95.632812 40.15625 95.261719 39.488281 C 94.613281 39.917969 94.050781 40.265625 93.574219 40.542969 C 93.09375 40.808594 92.828125 40.941406 92.777344 40.941406 C 92.722656 40.941406 92.648438 40.894531 92.558594 40.800781 C 92.480469 40.695312 92.4375 40.601562 92.4375 40.523438 C 92.4375 40.457031 92.464844 40.398438 92.519531 40.34375 Z M 98.761719 33.292969 C 98.175781 33.292969 97.769531 33.605469 97.53125 34.226562 C 97.292969 34.835938 97.171875 35.445312 97.171875 36.054688 C 97.171875 36.226562 97.175781 36.386719 97.191406 36.53125 C 97.203125 36.664062 97.222656 36.800781 97.253906 36.945312 C 98.429688 36.03125 99.140625 35.390625 99.378906 35.019531 C 99.617188 34.652344 99.738281 34.378906 99.738281 34.207031 C 99.738281 33.96875 99.6875 33.757812 99.597656 33.570312 C 99.519531 33.386719 99.242188 33.292969 98.761719 33.292969 Z M 98.761719 33.292969 " fill-opacity="1" fill-rule="nonzero"/><path fill="#c43c3c" d="M 118.625 33.648438 C 118.625 33.878906 118.546875 34.335938 118.386719 35.019531 C 118.226562 35.710938 118.019531 36.507812 117.769531 37.421875 C 117.53125 38.335938 117.292969 39.261719 117.054688 40.183594 C 116.816406 41.097656 116.585938 41.914062 116.378906 42.628906 C 116.179688 43.34375 116.050781 43.859375 116 44.175781 C 115.96875 44.285156 115.960938 44.410156 115.960938 44.554688 C 115.960938 44.703125 115.960938 44.863281 115.960938 45.03125 C 115.960938 45.65625 116.03125 46.3125 116.179688 47 C 116.324219 47.6875 116.605469 48.03125 117.035156 48.03125 C 117.457031 48.03125 117.859375 47.890625 118.246094 47.613281 C 118.644531 47.328125 118.988281 47 119.28125 46.640625 C 119.585938 46.285156 119.824219 45.964844 119.996094 45.6875 C 120.167969 45.398438 120.257812 45.25 120.257812 45.25 C 120.257812 45.25 120.324219 45.285156 120.476562 45.351562 C 120.621094 45.417969 120.695312 45.5 120.695312 45.589844 C 120.695312 45.738281 120.523438 46.074219 120.195312 46.601562 C 119.863281 47.132812 119.390625 47.632812 118.785156 48.109375 C 118.1875 48.578125 117.492188 48.804688 116.695312 48.804688 C 115.289062 48.804688 114.296875 48.320312 113.714844 47.335938 C 113.140625 46.34375 112.859375 45.21875 112.859375 43.960938 C 112.859375 43.816406 112.859375 43.671875 112.859375 43.523438 C 112.859375 43.378906 112.867188 43.253906 112.898438 43.144531 C 112.128906 44.089844 111.273438 44.988281 110.332031 45.847656 C 109.402344 46.710938 108.492188 47.414062 107.609375 47.972656 C 106.71875 48.527344 105.976562 48.804688 105.378906 48.804688 C 104.832031 48.804688 104.394531 48.675781 104.066406 48.410156 C 103.734375 48.128906 103.492188 47.8125 103.332031 47.457031 C 103.171875 47.097656 103.074219 46.789062 103.035156 46.523438 C 102.992188 46.242188 102.972656 46.105469 102.972656 46.105469 C 102.972656 46.105469 102.964844 46.019531 102.933594 45.847656 C 102.894531 45.675781 102.875 45.445312 102.875 45.152344 C 102.875 44.53125 103.015625 43.640625 103.292969 42.488281 C 103.554688 41.328125 104.175781 40.039062 105.160156 38.636719 C 106.078125 37.3125 107.0625 36.207031 108.125 35.316406 C 109.183594 34.433594 110.199219 33.761719 111.167969 33.3125 C 112.148438 32.847656 112.96875 32.617188 113.632812 32.617188 C 114.070312 32.617188 114.417969 32.714844 114.6875 32.914062 C 114.964844 33.113281 115.171875 33.339844 115.304688 33.589844 C 115.394531 33.3125 115.46875 33.101562 115.523438 32.953125 C 115.585938 32.808594 115.726562 32.714844 115.941406 32.675781 C 116.148438 32.636719 116.558594 32.617188 117.152344 32.617188 C 117.535156 32.617188 117.875 32.691406 118.167969 32.835938 C 118.472656 32.96875 118.625 33.242188 118.625 33.648438 Z M 107.609375 46.839844 C 107.976562 46.839844 108.414062 46.636719 108.921875 46.222656 C 109.421875 45.800781 109.945312 45.28125 110.492188 44.65625 C 111.035156 44.019531 111.550781 43.378906 112.042969 42.726562 C 112.53125 42.082031 112.9375 41.53125 113.253906 41.078125 L 114.667969 35.835938 C 114.667969 35.636719 114.691406 35.410156 114.746094 35.160156 C 114.8125 34.894531 114.847656 34.652344 114.847656 34.421875 C 114.847656 34.160156 114.765625 33.9375 114.609375 33.75 C 114.449219 33.566406 114.109375 33.46875 113.59375 33.46875 C 112.847656 33.46875 112.046875 33.738281 111.1875 34.265625 C 110.324219 34.796875 109.535156 35.457031 108.820312 36.25 C 108.105469 37.035156 107.558594 37.832031 107.191406 38.636719 C 106.699219 39.746094 106.359375 40.878906 106.175781 42.03125 C 105.988281 43.175781 105.898438 44.039062 105.898438 44.632812 C 105.898438 45.21875 106.015625 45.738281 106.253906 46.183594 C 106.503906 46.621094 106.957031 46.839844 107.609375 46.839844 Z M 107.609375 46.839844 " fill-opacity="1" fill-rule="nonzero"/><g clip-path="url(#92060b4730)"><path stroke-linecap="butt" transform="matrix(0.748524, 0, 0, 0.748524, -0.000000000000021274, 0.165353)" fill="none" stroke-linejoin="miter" d="M 0.000000000000028422 2.002221 L 229.430812 2.002221 C 242.686072 2.002221 253.431182 12.747332 253.431182 26.002592 L 253.431182 46.511715 C 253.431182 52.878415 255.962207 58.984184 260.460645 63.482623 C 264.964303 67.98628 271.064854 70.512086 277.431553 70.512086 L 506.867584 70.512086 " stroke="#c43c3c" stroke-width="4" stroke-opacity="1" stroke-miterlimit="4"/></g><g clip-path="url(#9f4bdd6144)"><path stroke-linecap="butt" transform="matrix(0.748524, 0, 0, 0.748524, -0.000000000000021274, 113.065269)" fill="none" stroke-linejoin="miter" d="M 0.000000000000028422 2.000246 L 229.430812 2.000246 C 242.686072 2.000246 253.431182 12.745356 253.431182 26.000616 L 253.431182 46.514958 C 253.431182 52.876439 255.962207 58.982209 260.460645 63.485866 C 264.964303 67.984305 271.064854 70.515329 277.431553 70.515329 L 506.867584 70.515329 " stroke="#c43c3c" stroke-width="4" stroke-opacity="1" stroke-miterlimit="4"/></g><path fill="#c43c3c" d="M 34.914062 96.617188 C 35.46875 96.617188 36.050781 96.316406 36.664062 95.722656 C 37.285156 95.117188 37.902344 94.347656 38.511719 93.417969 C 39.132812 92.480469 39.710938 91.5 40.242188 90.476562 C 40.769531 89.445312 41.242188 88.480469 41.65625 87.578125 C 42.078125 86.679688 42.378906 85.988281 42.570312 85.511719 L 43.285156 87.636719 C 42.859375 88.949219 42.355469 90.359375 41.773438 91.867188 C 41.203125 93.378906 40.5 94.804688 39.664062 96.140625 C 38.839844 97.480469 37.835938 98.574219 36.644531 99.417969 C 35.449219 100.25 34.007812 100.667969 32.328125 100.667969 C 31.554688 100.667969 30.953125 100.394531 30.515625 99.855469 C 30.089844 99.296875 29.785156 98.621094 29.601562 97.828125 C 29.414062 97.023438 29.304688 96.214844 29.265625 95.402344 C 29.226562 94.585938 29.203125 93.925781 29.203125 93.417969 C 29.203125 92.558594 29.230469 91.710938 29.285156 90.875 C 29.335938 90.03125 29.414062 89.1875 29.523438 88.351562 C 29.046875 88.949219 28.578125 89.738281 28.132812 90.714844 C 27.691406 91.683594 27.226562 92.710938 26.738281 93.796875 C 26.261719 94.882812 25.734375 95.910156 25.167969 96.875 C 24.597656 97.828125 23.945312 98.617188 23.21875 99.238281 C 22.488281 99.847656 21.648438 100.152344 20.691406 100.152344 C 18.515625 100.152344 17.019531 99.652344 16.199219 98.640625 C 15.386719 97.625 14.984375 96.175781 14.984375 94.292969 C 14.984375 92.003906 15.304688 89.699219 15.941406 87.378906 C 16.585938 85.0625 17.550781 82.898438 18.824219 80.882812 C 20.097656 78.855469 21.667969 77.136719 23.535156 75.71875 C 24.160156 75.269531 24.847656 74.839844 25.605469 74.425781 C 26.371094 74.019531 27.140625 73.8125 27.914062 73.8125 C 28.667969 73.8125 29.394531 74.007812 30.101562 74.40625 C 30.816406 74.804688 31.371094 75.316406 31.769531 75.9375 C 32.167969 74.136719 32.535156 72.3125 32.882812 70.453125 C 33.242188 68.601562 33.421875 66.75 33.421875 64.890625 C 33.421875 64.574219 33.390625 64.113281 33.339844 63.5 C 33.285156 62.878906 33.148438 62.320312 32.921875 61.8125 C 32.710938 61.296875 32.351562 61.039062 31.851562 61.039062 C 31.660156 61.039062 31.460938 61.097656 31.253906 61.214844 C 31.675781 60.777344 32.199219 60.34375 32.824219 59.90625 C 33.460938 59.46875 34.097656 59.25 34.734375 59.25 C 35.277344 59.25 35.832031 59.441406 36.402344 59.824219 C 36.984375 60.214844 37.476562 60.691406 37.875 61.257812 C 38.273438 61.8125 38.472656 62.359375 38.472656 62.886719 C 38.472656 64.710938 38.296875 66.640625 37.957031 68.664062 C 37.605469 70.683594 37.179688 72.746094 36.664062 74.863281 C 36.15625 76.96875 35.636719 79.085938 35.113281 81.199219 C 34.59375 83.304688 34.160156 85.363281 33.820312 87.359375 C 33.472656 89.359375 33.300781 91.273438 33.300781 93.101562 C 33.300781 93.449219 33.328125 93.90625 33.382812 94.46875 C 33.429688 95.027344 33.570312 95.523438 33.800781 95.960938 C 34.023438 96.398438 34.394531 96.617188 34.914062 96.617188 Z M 20.8125 96.933594 C 21.609375 96.933594 22.402344 96.546875 23.199219 95.761719 C 23.996094 94.96875 24.75 93.933594 25.464844 92.664062 C 26.191406 91.382812 26.863281 89.976562 27.472656 88.453125 C 28.082031 86.917969 28.636719 85.386719 29.144531 83.863281 C 29.664062 82.34375 30.101562 80.957031 30.457031 79.710938 C 30.824219 78.46875 31.09375 77.515625 31.253906 76.851562 L 30.695312 76.808594 C 29.886719 76.808594 29.085938 77.027344 28.289062 77.464844 C 27.503906 77.894531 26.75 78.4375 26.023438 79.113281 C 25.308594 79.78125 24.640625 80.476562 24.035156 81.199219 C 23.4375 81.914062 22.941406 82.582031 22.542969 83.1875 C 22.15625 83.742188 21.777344 84.507812 21.410156 85.472656 C 21.035156 86.441406 20.691406 87.476562 20.375 88.589844 C 20.066406 89.691406 19.828125 90.753906 19.660156 91.789062 C 19.484375 92.820312 19.398438 93.671875 19.398438 94.332031 C 19.398438 94.625 19.425781 94.980469 19.480469 95.402344 C 19.53125 95.816406 19.660156 96.175781 19.859375 96.476562 C 20.066406 96.785156 20.382812 96.933594 20.8125 96.933594 Z M 20.8125 96.933594 " fill-opacity="1" fill-rule="nonzero"/><path fill="#c43c3c" d="M 42.921875 64.96875 C 42.921875 64.96875 43.121094 64.964844 43.519531 64.949219 C 43.925781 64.941406 44.363281 65.003906 44.832031 65.148438 C 45.292969 65.285156 45.65625 65.5625 45.925781 65.984375 C 46.203125 66.410156 46.203125 67.066406 45.925781 67.949219 C 45.65625 68.824219 45.308594 69.667969 44.871094 70.472656 C 44.433594 71.28125 43.976562 71.964844 43.5 72.519531 C 43.03125 73.074219 42.609375 73.484375 42.226562 73.730469 C 41.855469 73.96875 41.601562 74 41.472656 73.8125 C 41.335938 73.585938 41.371094 73.230469 41.570312 72.738281 C 41.78125 72.25 42.027344 71.714844 42.308594 71.128906 C 42.585938 70.53125 42.769531 69.988281 42.863281 69.480469 C 42.953125 68.964844 42.84375 68.617188 42.527344 68.425781 C 42.097656 68.140625 41.792969 67.746094 41.609375 67.253906 C 41.4375 66.753906 41.453125 66.28125 41.652344 65.84375 C 41.859375 65.398438 42.285156 65.105469 42.921875 64.96875 Z M 42.921875 64.96875 " fill-opacity="1" fill-rule="nonzero"/><path fill="#c43c3c" d="M 77.410156 60.28125 C 80.246094 60.28125 82.765625 60.714844 84.96875 61.574219 C 87.179688 62.421875 88.910156 63.734375 90.160156 65.507812 C 91.402344 67.269531 91.988281 69.5 91.910156 72.203125 C 91.855469 74.125 91.417969 75.746094 90.597656 77.070312 C 89.773438 78.394531 88.667969 79.46875 87.277344 80.285156 C 85.882812 81.097656 84.28125 81.691406 82.484375 82.074219 C 80.679688 82.445312 78.730469 82.632812 76.636719 82.632812 C 76.445312 82.632812 76.257812 82.632812 76.058594 82.632812 C 75.859375 82.632812 75.652344 82.621094 75.441406 82.589844 C 75.441406 82.589844 75.433594 82.902344 75.421875 83.523438 C 75.40625 84.136719 75.402344 84.914062 75.402344 85.867188 C 75.402344 86.8125 75.402344 87.824219 75.402344 88.910156 C 75.402344 89.980469 75.394531 91.015625 75.382812 92.007812 C 75.367188 93 75.347656 93.816406 75.324219 94.449219 C 75.292969 94.941406 75.285156 95.535156 75.285156 96.21875 C 75.285156 96.894531 75.214844 97.558594 75.085938 98.207031 C 74.949219 98.839844 74.695312 99.371094 74.328125 99.792969 C 73.972656 100.214844 73.425781 100.429688 72.699219 100.429688 C 71.925781 100.429688 71.289062 100.394531 70.789062 100.332031 C 70.296875 100.261719 69.703125 100.0625 69.019531 99.714844 L 69.179688 64.535156 C 68.527344 64.535156 67.949219 64.8125 67.449219 65.367188 C 66.945312 65.914062 66.492188 66.589844 66.09375 67.394531 C 65.6875 68.1875 65.339844 68.992188 65.0625 69.796875 C 64.78125 70.59375 64.554688 71.269531 64.363281 71.824219 C 64.167969 72.371094 64.015625 72.640625 63.90625 72.640625 C 63.644531 72.640625 63.402344 72.46875 63.171875 72.121094 C 62.949219 71.765625 62.75 71.347656 62.574219 70.871094 C 62.40625 70.394531 62.277344 69.9375 62.195312 69.5 C 62.109375 69.054688 62.058594 68.734375 62.058594 68.546875 C 62.058594 66.972656 62.40625 65.664062 63.09375 64.632812 C 63.769531 63.601562 64.679688 62.796875 65.816406 62.210938 C 66.960938 61.628906 68.203125 61.207031 69.554688 60.9375 C 70.90625 60.660156 72.265625 60.480469 73.632812 60.402344 C 74.996094 60.320312 76.257812 60.28125 77.410156 60.28125 Z M 76.476562 79.054688 C 77.734375 79.054688 79.007812 78.949219 80.296875 78.738281 C 81.578125 78.527344 82.761719 78.140625 83.835938 77.585938 C 84.910156 77.019531 85.765625 76.203125 86.402344 75.140625 C 87.035156 74.082031 87.324219 72.714844 87.277344 71.03125 C 87.246094 69.695312 86.847656 68.582031 86.082031 67.691406 C 85.328125 66.792969 84.355469 66.082031 83.179688 65.566406 C 82.011719 65.039062 80.761719 64.664062 79.441406 64.433594 C 78.113281 64.210938 76.859375 64.097656 75.679688 64.097656 L 74.925781 64.136719 L 75.324219 78.976562 C 75.507812 79.003906 75.699219 79.023438 75.898438 79.035156 C 76.097656 79.050781 76.289062 79.054688 76.476562 79.054688 Z M 76.476562 79.054688 " fill-opacity="1" fill-rule="nonzero"/><path fill="#c43c3c" d="M 102.570312 87.875 C 102.570312 88.582031 102.417969 89.460938 102.113281 90.515625 C 101.804688 91.566406 101.378906 92.65625 100.820312 93.796875 C 100.273438 94.9375 99.628906 96.011719 98.871094 97.011719 C 98.128906 98.007812 97.320312 98.800781 96.445312 99.398438 C 95.570312 99.984375 94.65625 100.230469 93.703125 100.152344 C 92.945312 100.101562 92.339844 99.828125 91.890625 99.335938 C 91.441406 98.835938 91.105469 98.234375 90.898438 97.53125 C 90.699219 96.816406 90.566406 96.09375 90.5 95.363281 C 90.429688 94.625 90.402344 93.988281 90.402344 93.457031 C 90.402344 91.472656 90.539062 89.519531 90.820312 87.597656 C 91.105469 85.679688 91.441406 83.761719 91.8125 81.855469 C 92.179688 79.9375 92.5 78.015625 92.765625 76.09375 C 92.792969 75.871094 92.8125 75.667969 92.828125 75.480469 C 92.835938 75.296875 92.847656 75.113281 92.847656 74.921875 C 92.847656 74.765625 92.8125 74.460938 92.746094 74.007812 C 92.679688 73.546875 92.515625 73.273438 92.25 73.195312 C 92.300781 72.828125 92.492188 72.589844 92.828125 72.480469 C 93.171875 72.375 93.488281 72.320312 93.78125 72.320312 C 94.800781 72.320312 95.597656 72.589844 96.167969 73.117188 C 96.734375 73.632812 97.023438 74.421875 97.023438 75.480469 C 97.023438 76.472656 96.914062 77.457031 96.707031 78.417969 C 96.492188 79.371094 96.253906 80.320312 95.988281 81.261719 C 95.417969 83.207031 94.957031 85.292969 94.597656 87.519531 C 94.238281 89.742188 94.058594 91.867188 94.058594 93.894531 C 94.058594 94.1875 94.078125 94.625 94.121094 95.207031 C 94.160156 95.777344 94.277344 96.296875 94.476562 96.773438 C 94.675781 97.242188 95.019531 97.46875 95.511719 97.46875 C 96.09375 97.46875 96.664062 97.226562 97.222656 96.734375 C 97.789062 96.234375 98.304688 95.597656 98.773438 94.828125 C 99.25 94.046875 99.679688 93.21875 100.066406 92.34375 C 100.449219 91.460938 100.773438 90.625 101.039062 89.84375 C 101.304688 89.046875 101.507812 88.390625 101.65625 87.875 C 102.054688 87.613281 102.304688 87.519531 102.414062 87.597656 C 102.515625 87.675781 102.570312 87.769531 102.570312 87.875 Z M 97.640625 66.859375 C 97.640625 67.667969 97.480469 68.34375 97.164062 68.882812 C 96.855469 69.414062 96.253906 69.679688 95.351562 69.679688 C 94.757812 69.679688 94.265625 69.535156 93.882812 69.242188 C 93.492188 68.9375 93.304688 68.46875 93.304688 67.832031 C 93.304688 67.105469 93.328125 66.480469 93.382812 65.964844 C 93.433594 65.4375 93.628906 65.039062 93.960938 64.773438 C 94.289062 64.507812 94.875 64.375 95.710938 64.375 C 96.476562 64.375 96.988281 64.628906 97.242188 65.128906 C 97.503906 65.621094 97.640625 66.199219 97.640625 66.859375 Z M 97.640625 66.859375 " fill-opacity="1" fill-rule="nonzero"/><path fill="#c43c3c" d="M 119.59375 83.1875 L 120.707031 83.347656 C 120.441406 84.234375 120.003906 85.363281 119.394531 86.722656 C 118.800781 88.089844 118.042969 89.523438 117.128906 91.035156 C 116.222656 92.542969 115.183594 93.96875 114.007812 95.304688 C 112.824219 96.644531 111.519531 97.757812 110.089844 98.640625 C 108.65625 99.515625 107.109375 99.992188 105.453125 100.074219 C 104.328125 100.128906 103.335938 99.835938 102.492188 99.199219 C 101.65625 98.554688 100.949219 97.722656 100.382812 96.714844 C 99.828125 95.699219 99.414062 94.621094 99.152344 93.476562 C 98.882812 92.339844 98.753906 91.300781 98.753906 90.359375 C 98.753906 89.023438 98.898438 87.566406 99.191406 85.988281 C 99.480469 84.414062 99.929688 82.863281 100.542969 81.339844 C 101.164062 79.820312 101.953125 78.429688 102.910156 77.167969 C 103.863281 75.910156 104.96875 74.902344 106.230469 74.148438 C 107.503906 73.382812 108.960938 72.996094 110.605469 72.996094 C 111.941406 72.996094 112.980469 73.375 113.726562 74.128906 C 114.484375 74.875 114.863281 75.910156 114.863281 77.246094 C 114.863281 78.558594 114.628906 79.839844 114.164062 81.082031 C 113.714844 82.328125 113.070312 83.433594 112.238281 84.398438 C 111.410156 85.351562 110.433594 86.121094 109.292969 86.703125 C 108.148438 87.273438 106.898438 87.558594 105.535156 87.558594 C 105.320312 87.558594 105.085938 87.550781 104.839844 87.539062 C 104.585938 87.527344 104.351562 87.492188 104.140625 87.4375 C 103.886719 88.40625 103.765625 89.40625 103.765625 90.4375 C 103.765625 91.382812 103.902344 92.304688 104.183594 93.21875 C 104.46875 94.121094 104.949219 94.863281 105.613281 95.445312 C 106.289062 96.015625 107.175781 96.296875 108.277344 96.296875 C 109.097656 96.296875 109.960938 95.976562 110.863281 95.324219 C 111.777344 94.664062 112.683594 93.808594 113.589844 92.761719 C 114.488281 91.703125 115.328125 90.570312 116.113281 89.367188 C 116.910156 88.164062 117.605469 87.011719 118.203125 85.910156 C 118.808594 84.8125 119.277344 83.902344 119.59375 83.1875 Z M 111.441406 75.835938 C 110.390625 75.835938 109.457031 76.195312 108.636719 76.910156 C 107.828125 77.613281 107.117188 78.488281 106.507812 79.53125 C 105.914062 80.578125 105.425781 81.648438 105.058594 82.730469 C 104.683594 83.816406 104.40625 84.746094 104.222656 85.511719 C 104.351562 85.542969 104.484375 85.550781 104.621094 85.550781 C 104.75 85.550781 104.882812 85.550781 105.015625 85.550781 C 106.433594 85.550781 107.742188 85.183594 108.933594 84.4375 C 110.128906 83.683594 111.089844 82.691406 111.820312 81.457031 C 112.558594 80.226562 112.933594 78.90625 112.933594 77.484375 C 112.933594 77.007812 112.804688 76.621094 112.554688 76.3125 C 112.316406 75.996094 111.941406 75.835938 111.441406 75.835938 Z M 111.441406 75.835938 " fill-opacity="1" fill-rule="nonzero"/><path fill="#c43c3c" d="M 123.152344 65.585938 C 123.203125 65.230469 123.253906 64.828125 123.292969 64.375 C 123.332031 63.929688 123.300781 63.492188 123.210938 63.0625 C 123.117188 62.625 122.914062 62.289062 122.597656 62.050781 C 123.230469 61.84375 123.929688 61.707031 124.683594 61.652344 C 125.757812 61.601562 126.5625 61.78125 127.109375 62.191406 C 127.667969 62.601562 128.023438 63.144531 128.183594 63.820312 C 128.34375 64.484375 128.351562 65.179688 128.222656 65.90625 C 128.460938 65.90625 128.871094 65.933594 129.457031 65.984375 C 130.054688 66.039062 130.640625 66.082031 131.226562 66.121094 C 131.824219 66.164062 132.242188 66.183594 132.480469 66.183594 C 133.0625 66.183594 133.832031 66.15625 134.789062 66.101562 C 135.75 66.054688 136.746094 65.917969 137.769531 65.707031 C 138.789062 65.496094 139.691406 65.167969 140.476562 64.730469 C 141.269531 64.285156 141.789062 63.667969 142.027344 62.886719 C 142.183594 63.273438 142.316406 63.660156 142.425781 64.058594 C 142.527344 64.453125 142.582031 64.867188 142.582031 65.289062 C 142.582031 66.28125 142.292969 67.085938 141.726562 67.691406 C 141.15625 68.289062 140.402344 68.753906 139.460938 69.082031 C 138.515625 69.402344 137.476562 69.613281 136.339844 69.71875 C 135.210938 69.828125 134.082031 69.859375 132.957031 69.816406 C 131.828125 69.777344 130.792969 69.71875 129.855469 69.640625 C 128.925781 69.550781 128.1875 69.476562 127.648438 69.421875 C 127.355469 70.730469 126.992188 72.214844 126.554688 73.871094 C 126.117188 75.515625 125.648438 77.226562 125.160156 79.015625 C 124.683594 80.804688 124.226562 82.589844 123.789062 84.378906 C 123.363281 86.15625 123.019531 87.851562 122.753906 89.464844 C 122.488281 91.082031 122.355469 92.519531 122.355469 93.773438 C 122.355469 94.015625 122.378906 94.328125 122.417969 94.710938 C 122.457031 95.082031 122.554688 95.402344 122.714844 95.683594 C 122.875 95.960938 123.136719 96.097656 123.511719 96.097656 C 124.210938 96.097656 124.949219 95.757812 125.71875 95.066406 C 126.5 94.367188 127.257812 93.476562 128.003906 92.40625 C 128.761719 91.320312 129.476562 90.175781 130.152344 88.96875 C 130.839844 87.765625 131.429688 86.632812 131.921875 85.570312 C 132.425781 84.511719 132.808594 83.695312 133.078125 83.109375 L 133.117188 83.066406 C 133.324219 83.203125 133.464844 83.394531 133.535156 83.644531 C 133.597656 83.898438 133.660156 84.136719 133.714844 84.359375 C 133.363281 85.34375 132.925781 86.515625 132.402344 87.875 C 131.882812 89.242188 131.277344 90.636719 130.589844 92.066406 C 129.914062 93.496094 129.128906 94.828125 128.242188 96.058594 C 127.367188 97.292969 126.378906 98.292969 125.28125 99.058594 C 124.191406 99.8125 122.964844 100.191406 121.601562 100.191406 C 120.449219 100.191406 119.582031 99.953125 119.015625 99.476562 C 118.460938 98.988281 118.097656 98.339844 117.921875 97.53125 C 117.753906 96.710938 117.664062 95.800781 117.664062 94.808594 C 117.664062 93.511719 117.777344 92.214844 118 90.914062 C 118.230469 89.617188 118.484375 88.34375 118.777344 87.082031 C 119.480469 84.089844 120.140625 81.082031 120.765625 78.0625 C 121.402344 75.03125 122.007812 72.003906 122.597656 68.984375 C 120.910156 68.933594 119.425781 68.953125 118.140625 69.042969 C 116.859375 69.136719 115.746094 69.390625 114.800781 69.796875 C 113.84375 70.195312 113.019531 70.867188 112.3125 71.804688 C 112.289062 71.660156 112.269531 71.507812 112.253906 71.347656 C 112.246094 71.1875 112.234375 71.042969 112.234375 70.910156 C 112.234375 69.46875 112.585938 68.367188 113.289062 67.613281 C 113.980469 66.847656 114.878906 66.316406 115.992188 66.023438 C 117.105469 65.734375 118.289062 65.582031 119.535156 65.566406 C 120.792969 65.558594 122 65.5625 123.152344 65.585938 Z M 123.152344 65.585938 " fill-opacity="1" fill-rule="nonzero"/><path fill="#c43c3c" d="M 148.894531 80.007812 C 148.464844 79.5625 147.984375 79.195312 147.441406 78.917969 C 146.910156 78.636719 146.332031 78.5 145.710938 78.5 C 144.570312 78.5 143.433594 78.910156 142.3125 79.730469 C 141.183594 80.539062 140.113281 81.597656 139.109375 82.910156 C 138.113281 84.21875 137.230469 85.640625 136.464844 87.160156 C 135.695312 88.683594 135.09375 90.175781 134.65625 91.628906 C 134.21875 93.089844 134 94.351562 134 95.425781 C 134 95.851562 134.078125 96.292969 134.238281 96.753906 C 134.394531 97.207031 134.753906 97.429688 135.3125 97.429688 C 135.957031 97.429688 136.628906 97.140625 137.320312 96.554688 C 138.019531 95.960938 138.703125 95.234375 139.367188 94.371094 C 140.042969 93.496094 140.632812 92.636719 141.136719 91.789062 C 141.65625 90.945312 142.042969 90.277344 142.3125 89.800781 C 142.789062 88.917969 143.191406 87.890625 143.523438 86.722656 C 143.867188 85.546875 144.160156 84.347656 144.398438 83.128906 C 144.636719 81.910156 144.808594 80.804688 144.917969 79.808594 C 145.125 79.730469 145.355469 79.660156 145.59375 79.589844 C 145.832031 79.527344 146.074219 79.492188 146.328125 79.492188 C 146.910156 79.492188 147.363281 79.671875 147.679688 80.027344 C 148.007812 80.375 148.238281 80.796875 148.355469 81.300781 C 148.476562 81.804688 148.535156 82.304688 148.535156 82.789062 C 148.535156 84.050781 148.417969 85.308594 148.179688 86.5625 C 147.949219 87.8125 147.722656 89.066406 147.480469 90.339844 C 147.242188 91.609375 147.125 92.890625 147.125 94.171875 C 147.125 94.363281 147.132812 94.679688 147.164062 95.125 C 147.1875 95.5625 147.269531 95.976562 147.402344 96.359375 C 147.53125 96.746094 147.746094 96.933594 148.039062 96.933594 C 148.554688 96.933594 149.0625 96.652344 149.570312 96.078125 C 150.085938 95.511719 150.605469 94.75 151.121094 93.796875 C 151.640625 92.839844 152.125 91.820312 152.59375 90.714844 C 153.070312 89.605469 153.511719 88.5 153.925781 87.398438 C 154.347656 86.300781 154.710938 85.308594 155.019531 84.417969 C 155.324219 83.519531 155.558594 82.84375 155.714844 82.390625 L 156.652344 83.304688 C 156.421875 83.835938 156.144531 84.617188 155.816406 85.652344 C 155.480469 86.683594 155.085938 87.835938 154.621094 89.105469 C 154.167969 90.378906 153.667969 91.667969 153.109375 92.980469 C 152.5625 94.292969 151.976562 95.5 151.339844 96.597656 C 150.703125 97.683594 150.019531 98.5625 149.292969 99.238281 C 148.574219 99.902344 147.808594 100.230469 147.003906 100.230469 C 146.113281 100.230469 145.417969 99.933594 144.917969 99.335938 C 144.410156 98.730469 144.03125 97.980469 143.78125 97.09375 C 143.542969 96.195312 143.386719 95.296875 143.304688 94.390625 C 143.226562 93.476562 143.1875 92.710938 143.1875 92.085938 C 143.1875 91.878906 143.1875 91.664062 143.1875 91.449219 C 143.1875 91.242188 143.195312 91.042969 143.226562 90.855469 C 142.75 91.785156 142.175781 92.792969 141.515625 93.875 C 140.863281 94.960938 140.125 95.992188 139.289062 96.953125 C 138.464844 97.90625 137.539062 98.695312 136.503906 99.316406 C 135.46875 99.929688 134.335938 100.230469 133.101562 100.230469 C 132.148438 100.230469 131.421875 99.992188 130.9375 99.515625 C 130.457031 99.03125 130.136719 98.402344 129.960938 97.648438 C 129.792969 96.882812 129.703125 96.113281 129.703125 95.34375 C 129.703125 94.511719 129.757812 93.6875 129.863281 92.863281 C 129.972656 92.027344 130.101562 91.207031 130.257812 90.398438 C 130.5 89.261719 130.941406 87.996094 131.59375 86.605469 C 132.253906 85.214844 133.074219 83.824219 134.058594 82.433594 C 135.039062 81.042969 136.117188 79.765625 137.300781 78.597656 C 138.492188 77.4375 139.734375 76.503906 141.039062 75.796875 C 142.335938 75.082031 143.628906 74.722656 144.917969 74.722656 C 145.578125 74.722656 146.253906 74.824219 146.945312 75.023438 C 147.644531 75.222656 148.238281 75.570312 148.714844 76.054688 C 149.203125 76.53125 149.449219 77.167969 149.449219 77.960938 C 149.449219 78.746094 149.261719 79.425781 148.894531 80.007812 Z M 137.777344 59.566406 L 140.460938 59.410156 L 146.210938 67.910156 L 143.1875 68.746094 C 143.1875 68.746094 143.027344 68.546875 142.710938 68.148438 C 142.390625 67.75 141.972656 67.230469 141.457031 66.578125 C 140.949219 65.917969 140.433594 65.21875 139.90625 64.472656 C 139.386719 63.71875 138.921875 63 138.511719 62.308594 C 138.101562 61.609375 137.808594 61.011719 137.636719 60.519531 C 137.480469 60.019531 137.523438 59.703125 137.777344 59.566406 Z M 137.777344 59.566406 " fill-opacity="1" fill-rule="nonzero"/><path fill="#c43c3c" d="M 64.257812 18.808594 C 65.578125 18.808594 66.605469 19.042969 67.320312 19.503906 C 68.035156 19.972656 68.394531 20.785156 68.394531 21.949219 C 68.394531 22.957031 68.175781 23.8125 67.738281 24.511719 C 67.308594 25.214844 66.925781 25.738281 66.582031 26.082031 L 66.363281 26.300781 C 66.085938 26.550781 65.773438 26.796875 65.429688 27.035156 C 65.082031 27.261719 64.722656 27.371094 64.355469 27.371094 C 64.15625 27.371094 63.898438 27.292969 63.582031 27.132812 C 63.261719 26.972656 63.101562 26.613281 63.101562 26.039062 C 63.101562 25.644531 63.28125 25.375 63.640625 25.226562 C 64 25.082031 64.261719 25.007812 64.4375 25.007812 C 64.605469 25.007812 64.773438 25.023438 64.933594 25.046875 C 65.09375 25.078125 65.257812 25.085938 65.429688 25.085938 C 65.71875 25.085938 65.996094 25.023438 66.265625 24.886719 C 66.542969 24.746094 66.824219 24.441406 67.101562 23.976562 C 67.101562 23.949219 67.128906 23.933594 67.199219 23.933594 C 67.328125 23.648438 67.429688 23.359375 67.5 23.082031 C 67.578125 22.792969 67.617188 22.476562 67.617188 22.128906 C 67.617188 21.839844 67.566406 21.480469 67.480469 21.054688 C 67.398438 20.617188 67.125 20.238281 66.664062 19.921875 C 66.210938 19.59375 65.410156 19.425781 64.257812 19.425781 C 63.191406 19.425781 62.074219 19.871094 60.894531 20.757812 C 59.726562 21.644531 58.59375 22.832031 57.496094 24.3125 C 56.390625 25.78125 55.386719 27.40625 54.472656 29.179688 C 53.566406 30.957031 52.851562 32.746094 52.324219 34.542969 C 51.792969 36.347656 51.527344 38.019531 51.527344 39.570312 C 51.527344 41.117188 51.652344 42.542969 51.90625 43.839844 C 52.171875 45.125 52.546875 46.152344 53.039062 46.917969 C 53.527344 47.6875 54.121094 48.070312 54.808594 48.070312 C 55.828125 48.070312 56.746094 47.867188 57.554688 47.457031 C 58.359375 47.046875 59.035156 46.578125 59.582031 46.046875 C 60.125 45.519531 60.539062 45.046875 60.816406 44.632812 C 61.105469 44.210938 61.253906 44 61.253906 44 C 61.253906 44 61.292969 43.992188 61.375 43.980469 C 61.460938 43.96875 61.570312 43.960938 61.691406 43.960938 C 61.941406 43.960938 62.070312 44.015625 62.070312 44.117188 L 62.070312 44.175781 C 61.203125 45.4375 60.304688 46.433594 59.363281 47.15625 C 58.417969 47.886719 57.523438 48.398438 56.679688 48.6875 C 55.828125 48.964844 55.097656 49.105469 54.492188 49.105469 C 54.292969 49.105469 53.925781 49.054688 53.398438 48.964844 C 52.867188 48.859375 52.253906 48.636719 51.570312 48.289062 C 50.878906 47.945312 50.207031 47.394531 49.558594 46.640625 C 48.921875 45.886719 48.386719 44.863281 47.949219 43.5625 C 47.519531 42.25 47.3125 40.578125 47.3125 38.535156 C 47.3125 36.191406 47.734375 34.015625 48.585938 32 C 49.429688 29.972656 50.523438 28.15625 51.867188 26.539062 C 53.21875 24.910156 54.671875 23.527344 56.222656 22.386719 C 57.773438 21.234375 59.253906 20.355469 60.675781 19.742188 C 62.09375 19.121094 63.289062 18.808594 64.257812 18.808594 Z M 64.257812 18.808594 " fill-opacity="1" fill-rule="nonzero"/><path fill="#c43c3c" d="M 78.113281 33.648438 C 78.113281 33.878906 78.035156 34.335938 77.875 35.019531 C 77.714844 35.710938 77.507812 36.507812 77.257812 37.421875 C 77.019531 38.335938 76.78125 39.261719 76.542969 40.183594 C 76.304688 41.097656 76.074219 41.914062 75.867188 42.628906 C 75.667969 43.34375 75.539062 43.859375 75.488281 44.175781 C 75.457031 44.285156 75.449219 44.410156 75.449219 44.554688 C 75.449219 44.703125 75.449219 44.863281 75.449219 45.03125 C 75.449219 45.65625 75.519531 46.3125 75.667969 47 C 75.8125 47.6875 76.09375 48.03125 76.523438 48.03125 C 76.945312 48.03125 77.347656 47.890625 77.734375 47.613281 C 78.132812 47.328125 78.476562 47 78.769531 46.640625 C 79.074219 46.285156 79.3125 45.964844 79.484375 45.6875 C 79.65625 45.398438 79.742188 45.25 79.742188 45.25 C 79.742188 45.25 79.8125 45.285156 79.960938 45.351562 C 80.105469 45.417969 80.179688 45.5 80.179688 45.589844 C 80.179688 45.738281 80.011719 46.074219 79.683594 46.601562 C 79.351562 47.132812 78.878906 47.632812 78.273438 48.109375 C 77.675781 48.578125 76.980469 48.804688 76.183594 48.804688 C 74.777344 48.804688 73.78125 48.320312 73.199219 47.335938 C 72.628906 46.34375 72.34375 45.21875 72.34375 43.960938 C 72.34375 43.816406 72.34375 43.671875 72.34375 43.523438 C 72.34375 43.378906 72.355469 43.253906 72.386719 43.144531 C 71.613281 44.089844 70.757812 44.988281 69.820312 45.847656 C 68.890625 46.710938 67.980469 47.414062 67.09375 47.972656 C 66.207031 48.527344 65.464844 48.804688 64.867188 48.804688 C 64.320312 48.804688 63.882812 48.675781 63.554688 48.410156 C 63.222656 48.128906 62.976562 47.8125 62.820312 47.457031 C 62.660156 47.097656 62.5625 46.789062 62.519531 46.523438 C 62.480469 46.242188 62.460938 46.105469 62.460938 46.105469 C 62.460938 46.105469 62.453125 46.019531 62.421875 45.847656 C 62.382812 45.675781 62.363281 45.445312 62.363281 45.152344 C 62.363281 44.53125 62.5 43.640625 62.78125 42.488281 C 63.042969 41.328125 63.664062 40.039062 64.648438 38.636719 C 65.5625 37.3125 66.546875 36.207031 67.613281 35.316406 C 68.671875 34.433594 69.6875 33.761719 70.65625 33.3125 C 71.632812 32.847656 72.453125 32.617188 73.121094 32.617188 C 73.558594 32.617188 73.90625 32.714844 74.175781 32.914062 C 74.453125 33.113281 74.65625 33.339844 74.792969 33.589844 C 74.882812 33.3125 74.957031 33.101562 75.011719 32.953125 C 75.074219 32.808594 75.214844 32.714844 75.429688 32.675781 C 75.636719 32.636719 76.042969 32.617188 76.640625 32.617188 C 77.023438 32.617188 77.363281 32.691406 77.65625 32.835938 C 77.957031 32.96875 78.113281 33.242188 78.113281 33.648438 Z M 67.09375 46.839844 C 67.464844 46.839844 67.902344 46.636719 68.40625 46.222656 C 68.910156 45.800781 69.433594 45.28125 69.980469 44.65625 C 70.519531 44.019531 71.039062 43.378906 71.53125 42.726562 C 72.015625 42.082031 72.425781 41.53125 72.742188 41.078125 L 74.15625 35.835938 C 74.15625 35.636719 74.179688 35.410156 74.234375 35.160156 C 74.300781 34.894531 74.335938 34.652344 74.335938 34.421875 C 74.335938 34.160156 74.253906 33.9375 74.097656 33.75 C 73.9375 33.566406 73.597656 33.46875 73.082031 33.46875 C 72.335938 33.46875 71.535156 33.738281 70.675781 34.265625 C 69.808594 34.796875 69.023438 35.457031 68.308594 36.25 C 67.59375 37.035156 67.046875 37.832031 66.675781 38.636719 C 66.183594 39.746094 65.847656 40.878906 65.664062 42.03125 C 65.472656 43.175781 65.386719 44.039062 65.386719 44.632812 C 65.386719 45.21875 65.503906 45.738281 65.742188 46.183594 C 65.992188 46.621094 66.445312 46.839844 67.09375 46.839844 Z M 67.09375 46.839844 " fill-opacity="1" fill-rule="nonzero"/><path fill="#c43c3c" d="M 80.949219 40.34375 L 83.355469 38.714844 C 83.238281 38.425781 83.148438 38.136719 83.097656 37.859375 C 83.042969 37.574219 83.019531 37.253906 83.019531 36.90625 C 83.019531 35.992188 83.203125 35.257812 83.574219 34.703125 C 83.941406 34.136719 84.402344 33.703125 84.949219 33.410156 C 85.488281 33.109375 86.011719 32.902344 86.519531 32.792969 C 87.019531 32.675781 87.382812 32.617188 87.613281 32.617188 C 88.097656 32.617188 88.449219 32.765625 88.644531 33.054688 C 88.84375 33.332031 88.945312 33.660156 88.945312 34.027344 C 88.945312 34.542969 88.65625 35.117188 88.089844 35.753906 C 87.519531 36.378906 86.855469 37.019531 86.101562 37.683594 C 86.445312 38.078125 86.886719 38.59375 87.433594 39.230469 C 87.988281 39.855469 88.488281 40.542969 88.925781 41.296875 C 89.371094 42.042969 89.601562 42.808594 89.601562 43.601562 C 89.601562 44.039062 89.480469 44.515625 89.242188 45.03125 C 88.695312 46.175781 88.089844 47.007812 87.414062 47.535156 C 86.746094 48.066406 86.042969 48.410156 85.285156 48.566406 C 84.539062 48.726562 83.785156 48.804688 83.019531 48.804688 C 81.863281 48.804688 80.953125 48.445312 80.292969 47.714844 C 79.648438 46.988281 79.320312 46.261719 79.320312 45.546875 C 79.320312 44.863281 79.417969 44.332031 79.617188 43.960938 C 79.816406 43.589844 80.003906 43.402344 80.175781 43.402344 C 80.421875 43.402344 80.675781 43.4375 80.929688 43.503906 C 81.195312 43.570312 81.328125 43.835938 81.328125 44.296875 C 81.328125 44.734375 81.207031 45.0625 80.96875 45.269531 C 80.730469 45.484375 80.613281 45.777344 80.613281 46.144531 C 80.613281 46.582031 80.761719 46.953125 81.070312 47.257812 C 81.386719 47.550781 81.746094 47.785156 82.144531 47.953125 C 82.550781 48.125 82.882812 48.210938 83.136719 48.210938 C 83.480469 48.210938 83.941406 48.160156 84.53125 48.050781 C 85.125 47.933594 85.664062 47.652344 86.140625 47.21875 C 86.628906 46.769531 86.875 46.039062 86.875 45.03125 C 86.875 44.292969 86.6875 43.632812 86.320312 43.046875 C 85.945312 42.449219 85.507812 41.875 85.007812 41.316406 C 84.5 40.761719 84.0625 40.15625 83.695312 39.488281 C 83.042969 39.917969 82.480469 40.265625 82.003906 40.542969 C 81.527344 40.808594 81.257812 40.941406 81.207031 40.941406 C 81.152344 40.941406 81.078125 40.894531 80.988281 40.800781 C 80.910156 40.695312 80.871094 40.601562 80.871094 40.523438 C 80.871094 40.457031 80.894531 40.398438 80.949219 40.34375 Z M 87.195312 33.292969 C 86.609375 33.292969 86.199219 33.605469 85.960938 34.226562 C 85.722656 34.835938 85.605469 35.445312 85.605469 36.054688 C 85.605469 36.226562 85.609375 36.386719 85.625 36.53125 C 85.632812 36.664062 85.652344 36.800781 85.683594 36.945312 C 86.863281 36.03125 87.574219 35.390625 87.8125 35.019531 C 88.050781 34.652344 88.167969 34.378906 88.167969 34.207031 C 88.167969 33.96875 88.121094 33.757812 88.03125 33.570312 C 87.949219 33.386719 87.671875 33.292969 87.195312 33.292969 Z M 87.195312 33.292969 " fill-opacity="1" fill-rule="nonzero"/><path fill="#c43c3c" d="M 92.519531 40.34375 L 94.925781 38.714844 C 94.804688 38.425781 94.714844 38.136719 94.667969 37.859375 C 94.613281 37.574219 94.585938 37.253906 94.585938 36.90625 C 94.585938 35.992188 94.769531 35.257812 95.144531 34.703125 C 95.511719 34.136719 95.96875 33.703125 96.515625 33.410156 C 97.058594 33.109375 97.582031 32.902344 98.085938 32.792969 C 98.589844 32.675781 98.953125 32.617188 99.179688 32.617188 C 99.667969 32.617188 100.015625 32.765625 100.214844 33.054688 C 100.414062 33.332031 100.511719 33.660156 100.511719 34.027344 C 100.511719 34.542969 100.226562 35.117188 99.660156 35.753906 C 99.085938 36.378906 98.425781 37.019531 97.667969 37.683594 C 98.011719 38.078125 98.457031 38.59375 99.003906 39.230469 C 99.558594 39.855469 100.054688 40.542969 100.492188 41.296875 C 100.941406 42.042969 101.167969 42.808594 101.167969 43.601562 C 101.167969 44.039062 101.050781 44.515625 100.8125 45.03125 C 100.265625 46.175781 99.660156 47.007812 98.980469 47.535156 C 98.316406 48.066406 97.609375 48.410156 96.855469 48.566406 C 96.109375 48.726562 95.351562 48.804688 94.585938 48.804688 C 93.433594 48.804688 92.523438 48.445312 91.863281 47.714844 C 91.214844 46.988281 90.886719 46.261719 90.886719 45.546875 C 90.886719 44.863281 90.988281 44.332031 91.1875 43.960938 C 91.386719 43.589844 91.574219 43.402344 91.742188 43.402344 C 91.992188 43.402344 92.246094 43.4375 92.5 43.503906 C 92.761719 43.570312 92.898438 43.835938 92.898438 44.296875 C 92.898438 44.734375 92.777344 45.0625 92.539062 45.269531 C 92.300781 45.484375 92.179688 45.777344 92.179688 46.144531 C 92.179688 46.582031 92.328125 46.953125 92.636719 47.257812 C 92.957031 47.550781 93.3125 47.785156 93.710938 47.953125 C 94.121094 48.125 94.453125 48.210938 94.707031 48.210938 C 95.050781 48.210938 95.511719 48.160156 96.097656 48.050781 C 96.695312 47.933594 97.230469 47.652344 97.710938 47.21875 C 98.195312 46.769531 98.445312 46.039062 98.445312 45.03125 C 98.445312 44.292969 98.257812 43.632812 97.886719 43.046875 C 97.515625 42.449219 97.078125 41.875 96.574219 41.316406 C 96.070312 40.761719 95.632812 40.15625 95.261719 39.488281 C 94.613281 39.917969 94.050781 40.265625 93.574219 40.542969 C 93.09375 40.808594 92.828125 40.941406 92.777344 40.941406 C 92.722656 40.941406 92.648438 40.894531 92.558594 40.800781 C 92.480469 40.695312 92.4375 40.601562 92.4375 40.523438 C 92.4375 40.457031 92.464844 40.398438 92.519531 40.34375 Z M 98.761719 33.292969 C 98.175781 33.292969 97.769531 33.605469 97.53125 34.226562 C 97.292969 34.835938 97.171875 35.445312 97.171875 36.054688 C 97.171875 36.226562 97.175781 36.386719 97.191406 36.53125 C 97.203125 36.664062 97.222656 36.800781 97.253906 36.945312 C 98.429688 36.03125 99.140625 35.390625 99.378906 35.019531 C 99.617188 34.652344 99.738281 34.378906 99.738281 34.207031 C 99.738281 33.96875 99.6875 33.757812 99.597656 33.570312 C 99.519531 33.386719 99.242188 33.292969 98.761719 33.292969 Z M 98.761719 33.292969 " fill-opacity="1" fill-rule="nonzero"/><path fill="#c43c3c" d="M 118.625 33.648438 C 118.625 33.878906 118.546875 34.335938 118.386719 35.019531 C 118.226562 35.710938 118.019531 36.507812 117.769531 37.421875 C 117.53125 38.335938 117.292969 39.261719 117.054688 40.183594 C 116.816406 41.097656 116.585938 41.914062 116.378906 42.628906 C 116.179688 43.34375 116.050781 43.859375 116 44.175781 C 115.96875 44.285156 115.960938 44.410156 115.960938 44.554688 C 115.960938 44.703125 115.960938 44.863281 115.960938 45.03125 C 115.960938 45.65625 116.03125 46.3125 116.179688 47 C 116.324219 47.6875 116.605469 48.03125 117.035156 48.03125 C 117.457031 48.03125 117.859375 47.890625 118.246094 47.613281 C 118.644531 47.328125 118.988281 47 119.28125 46.640625 C 119.585938 46.285156 119.824219 45.964844 119.996094 45.6875 C 120.167969 45.398438 120.257812 45.25 120.257812 45.25 C 120.257812 45.25 120.324219 45.285156 120.476562 45.351562 C 120.621094 45.417969 120.695312 45.5 120.695312 45.589844 C 120.695312 45.738281 120.523438 46.074219 120.195312 46.601562 C 119.863281 47.132812 119.390625 47.632812 118.785156 48.109375 C 118.1875 48.578125 117.492188 48.804688 116.695312 48.804688 C 115.289062 48.804688 114.296875 48.320312 113.714844 47.335938 C 113.140625 46.34375 112.859375 45.21875 112.859375 43.960938 C 112.859375 43.816406 112.859375 43.671875 112.859375 43.523438 C 112.859375 43.378906 112.867188 43.253906 112.898438 43.144531 C 112.128906 44.089844 111.273438 44.988281 110.332031 45.847656 C 109.402344 46.710938 108.492188 47.414062 107.609375 47.972656 C 106.71875 48.527344 105.976562 48.804688 105.378906 48.804688 C 104.832031 48.804688 104.394531 48.675781 104.066406 48.410156 C 103.734375 48.128906 103.492188 47.8125 103.332031 47.457031 C 103.171875 47.097656 103.074219 46.789062 103.035156 46.523438 C 102.992188 46.242188 102.972656 46.105469 102.972656 46.105469 C 102.972656 46.105469 102.964844 46.019531 102.933594 45.847656 C 102.894531 45.675781 102.875 45.445312 102.875 45.152344 C 102.875 44.53125 103.015625 43.640625 103.292969 42.488281 C 103.554688 41.328125 104.175781 40.039062 105.160156 38.636719 C 106.078125 37.3125 107.0625 36.207031 108.125 35.316406 C 109.183594 34.433594 110.199219 33.761719 111.167969 33.3125 C 112.148438 32.847656 112.96875 32.617188 113.632812 32.617188 C 114.070312 32.617188 114.417969 32.714844 114.6875 32.914062 C 114.964844 33.113281 115.171875 33.339844 115.304688 33.589844 C 115.394531 33.3125 115.46875 33.101562 115.523438 32.953125 C 115.585938 32.808594 115.726562 32.714844 115.941406 32.675781 C 116.148438 32.636719 116.558594 32.617188 117.152344 32.617188 C 117.535156 32.617188 117.875 32.691406 118.167969 32.835938 C 118.472656 32.96875 118.625 33.242188 118.625 33.648438 Z M 107.609375 46.839844 C 107.976562 46.839844 108.414062 46.636719 108.921875 46.222656 C 109.421875 45.800781 109.945312 45.28125 110.492188 44.65625 C 111.035156 44.019531 111.550781 43.378906 112.042969 42.726562 C 112.53125 42.082031 112.9375 41.53125 113.253906 41.078125 L 114.667969 35.835938 C 114.667969 35.636719 114.691406 35.410156 114.746094 35.160156 C 114.8125 34.894531 114.847656 34.652344 114.847656 34.421875 C 114.847656 34.160156 114.765625 33.9375 114.609375 33.75 C 114.449219 33.566406 114.109375 33.46875 113.59375 33.46875 C 112.847656 33.46875 112.046875 33.738281 111.1875 34.265625 C 110.324219 34.796875 109.535156 35.457031 108.820312 36.25 C 108.105469 37.035156 107.558594 37.832031 107.191406 38.636719 C 106.699219 39.746094 106.359375 40.878906 106.175781 42.03125 C 105.988281 43.175781 105.898438 44.039062 105.898438 44.632812 C 105.898438 45.21875 106.015625 45.738281 106.253906 46.183594 C 106.503906 46.621094 106.957031 46.839844 107.609375 46.839844 Z M 107.609375 46.839844 " fill-opacity="1" fill-rule="nonzero"/><g clip-path="url(#c55ad40090)"><path stroke-linecap="butt" transform="matrix(0.748524, 0, 0, 0.748524, -0.000000000000021274, 0.165353)" fill="none" stroke-linejoin="miter" d="M 0.000000000000028422 2.002221 L 229.430812 2.002221 C 242.686072 2.002221 253.431182 12.747332 253.431182 26.002592 L 253.431182 46.511715 C 253.431182 52.878415 255.962207 58.984184 260.460645 63.482623 C 264.964303 67.98628 271.064854 70.512086 277.431553 70.512086 L 506.867584 70.512086 " stroke="#c43c3c" stroke-width="4" stroke-opacity="1" stroke-miterlimit="4"/></g><g clip-path="url(#97800a5dff)"><path stroke-linecap="butt" transform="matrix(0.748524, 0, 0, 0.748524, -0.000000000000021274, 113.065269)" fill="none" stroke-linejoin="miter" d="M 0.000000000000028422 2.000246 L 229.430812 2.000246 C 242.686072 2.000246 253.431182 12.745356 253.431182 26.000616 L 253.431182 46.514958 C 253.431182 52.876439 255.962207 58.982209 260.460645 63.485866 C 264.964303 67.984305 271.064854 70.515329 277.431553 70.515329 L 506.867584 70.515329 " stroke="#c43c3c" stroke-width="4" stroke-opacity="1" stroke-miterlimit="4"/></g></svg>