<svg xmlns="http://www.w3.org/2000/svg" xmlns:xlink="http://www.w3.org/1999/xlink" width="1440" zoomAndPan="magnify" viewBox="0 0 1080 374.999991" height="500" preserveAspectRatio="xMidYMid meet" version="1.0"><defs><g/><clipPath id="226e86b4bb"><path d="M 854 0 L 1080 0 L 1080 375 L 854 375 Z M 854 0 " clip-rule="nonzero"/></clipPath><clipPath id="194eaaf3a4"><path d="M 854.039062 -48.460938 L 1258.078125 -108.175781 L 1328.527344 368.484375 L 924.488281 428.203125 Z M 854.039062 -48.460938 " clip-rule="nonzero"/></clipPath><clipPath id="7a42a173e1"><path d="M 0 0 L 226 0 L 226 375 L 0 375 Z M 0 0 " clip-rule="nonzero"/></clipPath><clipPath id="e71a750d33"><path d="M 0.0390625 -48.460938 L 404.078125 -108.175781 L 474.527344 368.484375 L 70.488281 428.203125 Z M 0.0390625 -48.460938 " clip-rule="nonzero"/></clipPath><clipPath id="3dac1e3de9"><rect x="0" width="226" y="0" height="375"/></clipPath><clipPath id="ee0ff67376"><path d="M 0 0 L 196 0 L 196 375 L 0 375 Z M 0 0 " clip-rule="nonzero"/></clipPath><clipPath id="6818994528"><path d="M -195.695312 16.582031 L 137.0625 -28.058594 L 195.695312 409.019531 L -137.0625 453.65625 Z M -195.695312 16.582031 " clip-rule="nonzero"/></clipPath><clipPath id="a12ced2762"><path d="M 0 0 L 195.839844 0 L 195.839844 375 L 0 375 Z M 0 0 " clip-rule="nonzero"/></clipPath><clipPath id="b3b48ee9bf"><path d="M -195.695312 16.582031 L 137.0625 -28.058594 L 195.695312 409.019531 L -137.0625 453.65625 Z M -195.695312 16.582031 " clip-rule="nonzero"/></clipPath><clipPath id="00eb197608"><rect x="0" width="196" y="0" height="375"/></clipPath><clipPath id="5cddd30778"><path d="M 23.574219 238.089844 L 148.824219 238.089844 L 148.824219 363.339844 L 23.574219 363.339844 Z M 23.574219 238.089844 " clip-rule="nonzero"/></clipPath><clipPath id="18e39bbcb3"><path d="M 86.347656 238.089844 C 51.679688 238.089844 23.574219 266.195312 23.574219 300.863281 C 23.574219 335.53125 51.679688 363.632812 86.347656 363.632812 C 121.015625 363.632812 149.117188 335.53125 149.117188 300.863281 C 149.117188 266.195312 121.015625 238.089844 86.347656 238.089844 Z M 86.347656 238.089844 " clip-rule="nonzero"/></clipPath><clipPath id="78fbce18bf"><path d="M 0.359375 41 L 58 41 L 58 100 L 0.359375 100 Z M 0.359375 41 " clip-rule="nonzero"/></clipPath><clipPath id="80e6473ba8"><path d="M 78 67 L 95.878906 67 L 95.878906 83 L 78 83 Z M 78 67 " clip-rule="nonzero"/></clipPath><clipPath id="c334a1cd98"><rect x="0" width="96" y="0" height="112"/></clipPath></defs><rect x="-108" width="1296" fill="#ffffff" y="-37.499999" height="449.999989" fill-opacity="1"/><rect x="-108" width="1296" fill="#fff6d2" y="-37.499999" height="449.999989" fill-opacity="1"/><g clip-path="url(#226e86b4bb)"><g clip-path="url(#194eaaf3a4)"><g transform="matrix(1, 0, 0, 1, 854, 0)"><g clip-path="url(#3dac1e3de9)"><g clip-path="url(#7a42a173e1)"><g clip-path="url(#e71a750d33)"><path fill="#c43c3c" d="M 0.0390625 -48.460938 L 404.078125 -108.175781 L 474.527344 368.464844 L 70.488281 428.179688 Z M 0.0390625 -48.460938 " fill-opacity="1" fill-rule="nonzero"/></g></g></g></g></g></g><g clip-path="url(#ee0ff67376)"><g clip-path="url(#6818994528)"><g transform="matrix(1, 0, 0, 1, 0, 0)"><g clip-path="url(#00eb197608)"><g clip-path="url(#a12ced2762)"><g clip-path="url(#b3b48ee9bf)"><path fill="#c43c3c" d="M -195.695312 16.582031 L 137.0625 -28.058594 L 195.652344 408.6875 L -137.105469 453.328125 Z M -195.695312 16.582031 " fill-opacity="1" fill-rule="nonzero"/></g></g></g></g></g></g><g clip-path="url(#5cddd30778)"><g clip-path="url(#18e39bbcb3)"><path stroke-linecap="butt" transform="matrix(0.75, 0, 0, 0.75, 23.574639, 238.091132)" fill="none" stroke-linejoin="miter" d="M 83.697362 -0.00171815 C 37.4734 -0.00171815 -0.000560349 37.472243 -0.000560349 83.696204 C -0.000560349 129.920165 37.4734 167.388918 83.697362 167.388918 C 129.921323 167.388918 167.390076 129.920165 167.390076 83.696204 C 167.390076 37.472243 129.921323 -0.00171815 83.697362 -0.00171815 Z M 83.697362 -0.00171815 " stroke="#fff6d2" stroke-width="6" stroke-opacity="1" stroke-miterlimit="4"/></g></g><g transform="matrix(1, 0, 0, 1, 39, 245)"><g clip-path="url(#c334a1cd98)"><g fill="#fff6d2" fill-opacity="1"><g transform="translate(10.210955, 39.872848)"><g><path d="M 24.703125 -5.546875 C 24.773438 -5.515625 24.8125 -5.453125 24.8125 -5.359375 C 24.8125 -5.265625 24.785156 -5.160156 24.734375 -5.046875 C 24.691406 -4.929688 24.660156 -4.832031 24.640625 -4.75 C 23.828125 -2.84375 22.863281 -1.019531 21.75 0.71875 C 20.632812 2.46875 19.296875 4.007812 17.734375 5.34375 C 16.910156 6.03125 16.039062 6.648438 15.125 7.203125 C 14.207031 7.753906 13.222656 8.21875 12.171875 8.59375 C 11.492188 8.832031 10.878906 9 10.328125 9.09375 C 9.785156 9.195312 9.148438 9.242188 8.421875 9.234375 C 8.015625 9.242188 7.601562 9.234375 7.1875 9.203125 C 6.78125 9.171875 6.363281 9.097656 5.9375 8.984375 C 3.988281 8.421875 2.539062 7.234375 1.59375 5.421875 C 1.269531 4.785156 1.015625 4.140625 0.828125 3.484375 C 0.648438 2.835938 0.519531 2.1875 0.4375 1.53125 C 0.207031 -0.21875 0.195312 -1.941406 0.40625 -3.640625 C 0.675781 -6.003906 1.148438 -8.273438 1.828125 -10.453125 C 2.515625 -12.628906 3.382812 -14.722656 4.4375 -16.734375 C 5.570312 -18.960938 6.96875 -21.007812 8.625 -22.875 C 9.769531 -24.15625 11.078125 -25.253906 12.546875 -26.171875 C 13.640625 -26.867188 14.859375 -27.328125 16.203125 -27.546875 C 16.796875 -27.648438 17.394531 -27.625 18 -27.46875 C 18.945312 -27.238281 19.546875 -26.65625 19.796875 -25.71875 C 19.984375 -24.96875 19.984375 -24.035156 19.796875 -22.921875 C 19.617188 -21.804688 19.332031 -20.640625 18.9375 -19.421875 C 18.550781 -18.210938 18.117188 -17.085938 17.640625 -16.046875 C 17.160156 -15.015625 16.722656 -14.191406 16.328125 -13.578125 C 16.203125 -13.410156 16.054688 -13.3125 15.890625 -13.28125 C 15.722656 -13.25 15.539062 -13.257812 15.34375 -13.3125 C 15.226562 -13.332031 15.140625 -13.390625 15.078125 -13.484375 C 15.015625 -13.578125 15.003906 -13.660156 15.046875 -13.734375 C 15.078125 -13.867188 15.128906 -13.992188 15.203125 -14.109375 C 15.222656 -14.171875 15.253906 -14.238281 15.296875 -14.3125 C 15.441406 -14.664062 15.609375 -15.054688 15.796875 -15.484375 C 16.222656 -16.421875 16.664062 -17.453125 17.125 -18.578125 C 17.582031 -19.703125 17.953125 -20.816406 18.234375 -21.921875 C 18.515625 -23.035156 18.617188 -24.046875 18.546875 -24.953125 C 18.398438 -26.472656 17.625 -27.039062 16.21875 -26.65625 C 15.601562 -26.488281 15.023438 -26.265625 14.484375 -25.984375 C 13.953125 -25.703125 13.441406 -25.382812 12.953125 -25.03125 C 11.972656 -24.320312 11.082031 -23.535156 10.28125 -22.671875 C 9.476562 -21.804688 8.738281 -20.882812 8.0625 -19.90625 C 4.757812 -15.101562 2.734375 -9.65625 1.984375 -3.5625 C 1.753906 -1.800781 1.757812 -0.00390625 2 1.828125 C 2.125 2.878906 2.429688 3.914062 2.921875 4.9375 C 3.410156 5.9375 3.992188 6.703125 4.671875 7.234375 C 5.347656 7.765625 6.050781 8.113281 6.78125 8.28125 C 7.507812 8.445312 8.195312 8.492188 8.84375 8.421875 C 9.96875 8.296875 11.03125 8 12.03125 7.53125 C 14.007812 6.625 15.628906 5.660156 16.890625 4.640625 C 18.148438 3.628906 19.203125 2.5625 20.046875 1.4375 C 20.898438 0.3125 21.703125 -0.859375 22.453125 -2.078125 C 22.742188 -2.566406 23 -3.035156 23.21875 -3.484375 C 23.476562 -4.023438 23.816406 -4.625 24.234375 -5.28125 C 24.367188 -5.476562 24.523438 -5.566406 24.703125 -5.546875 Z M 24.703125 -5.546875 "/></g></g></g><g fill="#fff6d2" fill-opacity="1"><g transform="translate(33.871197, 39.872848)"><g><path d="M 9.9375 -4.515625 C 9.78125 -4.023438 9.460938 -3.460938 8.984375 -2.828125 C 8.503906 -2.191406 7.90625 -1.78125 7.1875 -1.59375 C 6.476562 -1.414062 5.863281 -1.441406 5.34375 -1.671875 C 4.820312 -1.898438 4.535156 -2.519531 4.484375 -3.53125 C 3.890625 -2.382812 3.320312 -1.648438 2.78125 -1.328125 C 2.25 -1.003906 1.691406 -0.878906 1.109375 -0.953125 C 0.453125 -1.054688 0.0078125 -1.3125 -0.21875 -1.71875 C -0.445312 -2.125 -0.519531 -2.59375 -0.4375 -3.125 C -0.363281 -3.65625 -0.207031 -4.164062 0.03125 -4.65625 C 0.226562 -5.007812 0.5 -5.34375 0.84375 -5.65625 C 1.1875 -5.96875 1.546875 -6.210938 1.921875 -6.390625 C 2.378906 -6.617188 2.84375 -6.726562 3.3125 -6.71875 C 3.78125 -6.707031 4.28125 -6.554688 4.8125 -6.265625 C 4.820312 -6.242188 4.828125 -6.253906 4.828125 -6.296875 C 4.828125 -6.347656 4.835938 -6.410156 4.859375 -6.484375 C 4.890625 -6.566406 4.941406 -6.632812 5.015625 -6.6875 C 5.191406 -6.8125 5.398438 -6.875 5.640625 -6.875 C 5.878906 -6.875 6.0625 -6.753906 6.1875 -6.515625 C 6.207031 -6.203125 6.175781 -5.804688 6.09375 -5.328125 C 5.894531 -4.273438 5.890625 -3.515625 6.078125 -3.046875 C 6.273438 -2.585938 6.617188 -2.375 7.109375 -2.40625 C 7.597656 -2.4375 8.234375 -2.914062 9.015625 -3.84375 C 9.796875 -4.78125 10.101562 -5.003906 9.9375 -4.515625 Z M 1.296875 -2.046875 C 1.566406 -1.847656 1.875 -1.867188 2.21875 -2.109375 C 2.570312 -2.359375 2.90625 -2.707031 3.21875 -3.15625 C 3.539062 -3.613281 3.8125 -4.066406 4.03125 -4.515625 C 4.257812 -4.960938 4.382812 -5.296875 4.40625 -5.515625 C 3.75 -5.867188 3.1875 -5.929688 2.71875 -5.703125 C 2.25 -5.472656 1.875 -5.09375 1.59375 -4.5625 C 1.3125 -4.039062 1.144531 -3.53125 1.09375 -3.03125 C 1.039062 -2.539062 1.109375 -2.210938 1.296875 -2.046875 Z M 1.296875 -2.046875 "/></g></g></g><g fill="#fff6d2" fill-opacity="1"><g transform="translate(43.191099, 39.872848)"><g><path d="M 5.328125 -4.796875 C 5.328125 -4.660156 5.039062 -4.421875 4.46875 -4.078125 C 3.90625 -3.734375 3.488281 -3.472656 3.21875 -3.296875 C 2.957031 -3.128906 2.828125 -3.023438 2.828125 -2.984375 C 2.878906 -2.867188 2.929688 -2.671875 2.984375 -2.390625 C 3.046875 -2.117188 3.066406 -1.820312 3.046875 -1.5 C 3.035156 -1.175781 2.929688 -0.890625 2.734375 -0.640625 C 2.546875 -0.390625 2.226562 -0.238281 1.78125 -0.1875 C 1.320312 -0.144531 0.914062 -0.210938 0.5625 -0.390625 C 0.207031 -0.566406 -0.0078125 -0.816406 -0.09375 -1.140625 C -0.1875 -1.472656 -0.078125 -1.859375 0.234375 -2.296875 C 0.429688 -2.535156 0.675781 -2.75 0.96875 -2.9375 C 1.0625 -3 1.164062 -3.066406 1.28125 -3.140625 C 0.925781 -3.515625 0.59375 -3.898438 0.28125 -4.296875 C -0.0195312 -4.691406 -0.21875 -5.046875 -0.3125 -5.359375 C -0.40625 -5.710938 -0.34375 -6.046875 -0.125 -6.359375 C 0.0820312 -6.679688 0.453125 -6.867188 0.984375 -6.921875 C 1.242188 -6.941406 1.484375 -6.925781 1.703125 -6.875 C 1.929688 -6.820312 2.144531 -6.710938 2.34375 -6.546875 C 2.382812 -6.503906 2.410156 -6.457031 2.421875 -6.40625 C 2.441406 -6.363281 2.4375 -6.300781 2.40625 -6.21875 C 2.332031 -6.101562 2.234375 -6.046875 2.109375 -6.046875 C 2.015625 -6.046875 1.925781 -6.054688 1.84375 -6.078125 C 1.75 -6.117188 1.660156 -6.160156 1.578125 -6.203125 C 1.523438 -6.222656 1.476562 -6.25 1.4375 -6.28125 C 1.257812 -6.34375 1.125 -6.332031 1.03125 -6.25 C 0.945312 -6.164062 0.90625 -6.039062 0.90625 -5.875 C 0.914062 -5.570312 1.035156 -5.25 1.265625 -4.90625 C 1.503906 -4.570312 1.738281 -4.257812 1.96875 -3.96875 C 2.0625 -3.875 2.140625 -3.78125 2.203125 -3.6875 C 2.265625 -3.625 2.429688 -3.632812 2.703125 -3.71875 C 2.984375 -3.800781 3.488281 -4.035156 4.21875 -4.421875 C 4.957031 -4.804688 5.328125 -4.929688 5.328125 -4.796875 Z M 1.40625 -0.84375 C 1.570312 -0.851562 1.679688 -0.945312 1.734375 -1.125 C 1.785156 -1.300781 1.804688 -1.492188 1.796875 -1.703125 C 1.785156 -1.910156 1.773438 -2.070312 1.765625 -2.1875 C 1.734375 -2.25 1.6875 -2.285156 1.625 -2.296875 C 1.570312 -2.316406 1.519531 -2.316406 1.46875 -2.296875 C 1.269531 -2.140625 1.125 -1.941406 1.03125 -1.703125 C 0.945312 -1.472656 0.957031 -1.269531 1.0625 -1.09375 C 1.09375 -1.03125 1.140625 -0.972656 1.203125 -0.921875 C 1.265625 -0.878906 1.332031 -0.851562 1.40625 -0.84375 Z M 1.40625 -0.84375 "/></g></g></g><g fill="#fff6d2" fill-opacity="1"><g transform="translate(47.930183, 39.872848)"><g><path d="M 5.328125 -4.796875 C 5.328125 -4.660156 5.039062 -4.421875 4.46875 -4.078125 C 3.90625 -3.734375 3.488281 -3.472656 3.21875 -3.296875 C 2.957031 -3.128906 2.828125 -3.023438 2.828125 -2.984375 C 2.878906 -2.867188 2.929688 -2.671875 2.984375 -2.390625 C 3.046875 -2.117188 3.066406 -1.820312 3.046875 -1.5 C 3.035156 -1.175781 2.929688 -0.890625 2.734375 -0.640625 C 2.546875 -0.390625 2.226562 -0.238281 1.78125 -0.1875 C 1.320312 -0.144531 0.914062 -0.210938 0.5625 -0.390625 C 0.207031 -0.566406 -0.0078125 -0.816406 -0.09375 -1.140625 C -0.1875 -1.472656 -0.078125 -1.859375 0.234375 -2.296875 C 0.429688 -2.535156 0.675781 -2.75 0.96875 -2.9375 C 1.0625 -3 1.164062 -3.066406 1.28125 -3.140625 C 0.925781 -3.515625 0.59375 -3.898438 0.28125 -4.296875 C -0.0195312 -4.691406 -0.21875 -5.046875 -0.3125 -5.359375 C -0.40625 -5.710938 -0.34375 -6.046875 -0.125 -6.359375 C 0.0820312 -6.679688 0.453125 -6.867188 0.984375 -6.921875 C 1.242188 -6.941406 1.484375 -6.925781 1.703125 -6.875 C 1.929688 -6.820312 2.144531 -6.710938 2.34375 -6.546875 C 2.382812 -6.503906 2.410156 -6.457031 2.421875 -6.40625 C 2.441406 -6.363281 2.4375 -6.300781 2.40625 -6.21875 C 2.332031 -6.101562 2.234375 -6.046875 2.109375 -6.046875 C 2.015625 -6.046875 1.925781 -6.054688 1.84375 -6.078125 C 1.75 -6.117188 1.660156 -6.160156 1.578125 -6.203125 C 1.523438 -6.222656 1.476562 -6.25 1.4375 -6.28125 C 1.257812 -6.34375 1.125 -6.332031 1.03125 -6.25 C 0.945312 -6.164062 0.90625 -6.039062 0.90625 -5.875 C 0.914062 -5.570312 1.035156 -5.25 1.265625 -4.90625 C 1.503906 -4.570312 1.738281 -4.257812 1.96875 -3.96875 C 2.0625 -3.875 2.140625 -3.78125 2.203125 -3.6875 C 2.265625 -3.625 2.429688 -3.632812 2.703125 -3.71875 C 2.984375 -3.800781 3.488281 -4.035156 4.21875 -4.421875 C 4.957031 -4.804688 5.328125 -4.929688 5.328125 -4.796875 Z M 1.40625 -0.84375 C 1.570312 -0.851562 1.679688 -0.945312 1.734375 -1.125 C 1.785156 -1.300781 1.804688 -1.492188 1.796875 -1.703125 C 1.785156 -1.910156 1.773438 -2.070312 1.765625 -2.1875 C 1.734375 -2.25 1.6875 -2.285156 1.625 -2.296875 C 1.570312 -2.316406 1.519531 -2.316406 1.46875 -2.296875 C 1.269531 -2.140625 1.125 -1.941406 1.03125 -1.703125 C 0.945312 -1.472656 0.957031 -1.269531 1.0625 -1.09375 C 1.09375 -1.03125 1.140625 -0.972656 1.203125 -0.921875 C 1.265625 -0.878906 1.332031 -0.851562 1.40625 -0.84375 Z M 1.40625 -0.84375 "/></g></g></g><g fill="#fff6d2" fill-opacity="1"><g transform="translate(52.669266, 39.872848)"><g><path d="M 9.9375 -4.515625 C 9.78125 -4.023438 9.460938 -3.460938 8.984375 -2.828125 C 8.503906 -2.191406 7.90625 -1.78125 7.1875 -1.59375 C 6.476562 -1.414062 5.863281 -1.441406 5.34375 -1.671875 C 4.820312 -1.898438 4.535156 -2.519531 4.484375 -3.53125 C 3.890625 -2.382812 3.320312 -1.648438 2.78125 -1.328125 C 2.25 -1.003906 1.691406 -0.878906 1.109375 -0.953125 C 0.453125 -1.054688 0.0078125 -1.3125 -0.21875 -1.71875 C -0.445312 -2.125 -0.519531 -2.59375 -0.4375 -3.125 C -0.363281 -3.65625 -0.207031 -4.164062 0.03125 -4.65625 C 0.226562 -5.007812 0.5 -5.34375 0.84375 -5.65625 C 1.1875 -5.96875 1.546875 -6.210938 1.921875 -6.390625 C 2.378906 -6.617188 2.84375 -6.726562 3.3125 -6.71875 C 3.78125 -6.707031 4.28125 -6.554688 4.8125 -6.265625 C 4.820312 -6.242188 4.828125 -6.253906 4.828125 -6.296875 C 4.828125 -6.347656 4.835938 -6.410156 4.859375 -6.484375 C 4.890625 -6.566406 4.941406 -6.632812 5.015625 -6.6875 C 5.191406 -6.8125 5.398438 -6.875 5.640625 -6.875 C 5.878906 -6.875 6.0625 -6.753906 6.1875 -6.515625 C 6.207031 -6.203125 6.175781 -5.804688 6.09375 -5.328125 C 5.894531 -4.273438 5.890625 -3.515625 6.078125 -3.046875 C 6.273438 -2.585938 6.617188 -2.375 7.109375 -2.40625 C 7.597656 -2.4375 8.234375 -2.914062 9.015625 -3.84375 C 9.796875 -4.78125 10.101562 -5.003906 9.9375 -4.515625 Z M 1.296875 -2.046875 C 1.566406 -1.847656 1.875 -1.867188 2.21875 -2.109375 C 2.570312 -2.359375 2.90625 -2.707031 3.21875 -3.15625 C 3.539062 -3.613281 3.8125 -4.066406 4.03125 -4.515625 C 4.257812 -4.960938 4.382812 -5.296875 4.40625 -5.515625 C 3.75 -5.867188 3.1875 -5.929688 2.71875 -5.703125 C 2.25 -5.472656 1.875 -5.09375 1.59375 -4.5625 C 1.3125 -4.039062 1.144531 -3.53125 1.09375 -3.03125 C 1.039062 -2.539062 1.109375 -2.210938 1.296875 -2.046875 Z M 1.296875 -2.046875 "/></g></g></g><g fill="#fff6d2" fill-opacity="1"><g transform="translate(61.989168, 39.872848)"><g/></g></g><g fill="#fff6d2" fill-opacity="1"><g transform="translate(66.455687, 39.872848)"><g><path d="M 13.796875 -4.296875 C 13.847656 -4.390625 13.925781 -4.4375 14.03125 -4.4375 C 14.132812 -4.445312 14.226562 -4.382812 14.3125 -4.25 C 14.34375 -4.207031 14.3125 -4.101562 14.21875 -3.9375 C 14.132812 -3.78125 14.019531 -3.601562 13.875 -3.40625 C 13.738281 -3.207031 13.609375 -3.023438 13.484375 -2.859375 C 13.359375 -2.691406 13.265625 -2.578125 13.203125 -2.515625 C 12.628906 -1.878906 12.046875 -1.410156 11.453125 -1.109375 C 10.867188 -0.804688 10.234375 -0.738281 9.546875 -0.90625 C 8.867188 -1.082031 8.101562 -1.570312 7.25 -2.375 C 7.125 -2.507812 6.992188 -2.648438 6.859375 -2.796875 C 6.828125 -2.835938 6.796875 -2.875 6.765625 -2.90625 C 6.628906 -3.0625 6.472656 -3.082031 6.296875 -2.96875 C 6.117188 -2.84375 5.941406 -2.710938 5.765625 -2.578125 C 5.609375 -2.460938 5.445312 -2.359375 5.28125 -2.265625 C 4.738281 -1.890625 4.164062 -1.570312 3.5625 -1.3125 C 2.914062 -1.019531 2.238281 -0.90625 1.53125 -0.96875 C 0.425781 -1.101562 -0.144531 -1.71875 -0.1875 -2.8125 C -0.207031 -3.582031 -0.046875 -4.273438 0.296875 -4.890625 C 0.640625 -5.503906 1.117188 -5.957031 1.734375 -6.25 C 2.347656 -6.539062 3.050781 -6.597656 3.84375 -6.421875 C 3.9375 -6.398438 4.054688 -6.375 4.203125 -6.34375 C 4.285156 -6.3125 4.394531 -6.285156 4.53125 -6.265625 C 4.445312 -6.441406 4.375 -6.597656 4.3125 -6.734375 C 4.195312 -6.972656 4.097656 -7.191406 4.015625 -7.390625 C 3.472656 -8.484375 3.035156 -9.734375 2.703125 -11.140625 C 2.367188 -12.546875 2.203125 -13.988281 2.203125 -15.46875 C 2.210938 -16.957031 2.460938 -18.335938 2.953125 -19.609375 C 3.441406 -20.890625 4.253906 -21.941406 5.390625 -22.765625 C 6.117188 -23.253906 6.863281 -23.519531 7.625 -23.5625 C 8.394531 -23.601562 9.117188 -23.4375 9.796875 -23.0625 C 10.484375 -22.6875 11.039062 -22.125 11.46875 -21.375 C 12.019531 -20.34375 12.359375 -19.253906 12.484375 -18.109375 C 12.722656 -16.265625 12.6875 -14.539062 12.375 -12.9375 C 12.0625 -11.34375 11.507812 -9.832031 10.71875 -8.40625 C 9.9375 -6.988281 8.941406 -5.609375 7.734375 -4.265625 C 7.617188 -4.128906 7.554688 -4.023438 7.546875 -3.953125 C 7.546875 -3.878906 7.601562 -3.769531 7.71875 -3.625 C 7.96875 -3.300781 8.234375 -2.988281 8.515625 -2.6875 C 8.804688 -2.382812 9.132812 -2.128906 9.5 -1.921875 C 10 -1.703125 10.535156 -1.695312 11.109375 -1.90625 C 11.679688 -2.125 12.210938 -2.453125 12.703125 -2.890625 C 13.191406 -3.335938 13.554688 -3.804688 13.796875 -4.296875 Z M 5.171875 -3.515625 C 5.316406 -3.640625 5.328125 -3.785156 5.203125 -3.953125 C 5.128906 -4.046875 5.050781 -4.144531 4.96875 -4.25 C 4.757812 -4.5 4.519531 -4.757812 4.25 -5.03125 C 3.976562 -5.3125 3.695312 -5.519531 3.40625 -5.65625 C 3.125 -5.800781 2.832031 -5.816406 2.53125 -5.703125 C 2.125 -5.503906 1.785156 -5.160156 1.515625 -4.671875 C 1.253906 -4.179688 1.097656 -3.675781 1.046875 -3.15625 C 1.003906 -2.644531 1.101562 -2.253906 1.34375 -1.984375 C 1.59375 -1.710938 2.015625 -1.6875 2.609375 -1.90625 C 3.546875 -2.3125 4.398438 -2.847656 5.171875 -3.515625 Z M 7.125 -5.421875 C 8.351562 -6.878906 9.273438 -8.3125 9.890625 -9.71875 C 10.503906 -11.132812 10.921875 -12.789062 11.140625 -14.6875 C 11.203125 -15.144531 11.226562 -15.75 11.21875 -16.5 C 11.21875 -17.25 11.148438 -18.03125 11.015625 -18.84375 C 10.890625 -19.664062 10.660156 -20.410156 10.328125 -21.078125 C 9.992188 -21.753906 9.523438 -22.238281 8.921875 -22.53125 C 8.328125 -22.832031 7.5625 -22.832031 6.625 -22.53125 C 5.59375 -21.925781 4.828125 -21.125 4.328125 -20.125 C 3.828125 -19.132812 3.539062 -18.023438 3.46875 -16.796875 C 3.394531 -15.566406 3.472656 -14.3125 3.703125 -13.03125 C 3.941406 -11.757812 4.265625 -10.550781 4.671875 -9.40625 C 5.085938 -8.257812 5.535156 -7.265625 6.015625 -6.421875 C 6.066406 -6.316406 6.117188 -6.207031 6.171875 -6.09375 C 6.304688 -5.75 6.507812 -5.4375 6.78125 -5.15625 C 6.820312 -5.195312 6.863281 -5.226562 6.90625 -5.25 C 6.976562 -5.300781 7.050781 -5.359375 7.125 -5.421875 Z M 7.125 -5.421875 "/></g></g></g><g fill="#fff6d2" fill-opacity="1"><g transform="translate(80.171768, 39.872848)"><g><path d="M 4.5625 -3.5625 C 4.382812 -3.1875 4.078125 -2.769531 3.640625 -2.3125 C 3.203125 -1.863281 2.703125 -1.578125 2.140625 -1.453125 C 1.585938 -1.328125 1.0625 -1.515625 0.5625 -2.015625 C 0.363281 -2.242188 0.21875 -2.5 0.125 -2.78125 C 0.0390625 -3.070312 0.0078125 -3.359375 0.03125 -3.640625 C 0.03125 -3.722656 0.03125 -3.820312 0.03125 -3.9375 C 0.03125 -4.238281 0.0390625 -4.582031 0.0625 -4.96875 C 0.09375 -5.363281 0.15625 -5.71875 0.25 -6.03125 C 0.34375 -6.351562 0.484375 -6.546875 0.671875 -6.609375 C 1.234375 -6.753906 1.535156 -6.5625 1.578125 -6.03125 C 1.578125 -5.863281 1.570312 -5.691406 1.5625 -5.515625 C 1.550781 -5.429688 1.546875 -5.351562 1.546875 -5.28125 C 1.535156 -5.03125 1.523438 -4.78125 1.515625 -4.53125 C 1.515625 -4.34375 1.503906 -4.148438 1.484375 -3.953125 C 1.472656 -3.109375 1.660156 -2.601562 2.046875 -2.4375 C 2.441406 -2.28125 2.890625 -2.453125 3.390625 -2.953125 C 3.898438 -3.453125 4.234375 -3.867188 4.390625 -4.203125 C 4.546875 -4.546875 4.65625 -4.617188 4.71875 -4.421875 C 4.789062 -4.222656 4.738281 -3.9375 4.5625 -3.5625 Z M 1.46875 -8.421875 C 1.394531 -8.359375 1.300781 -8.316406 1.1875 -8.296875 C 1.082031 -8.273438 0.988281 -8.285156 0.90625 -8.328125 C 0.84375 -8.378906 0.800781 -8.445312 0.78125 -8.53125 C 0.757812 -8.613281 0.75 -8.710938 0.75 -8.828125 C 0.75 -8.859375 0.757812 -8.882812 0.78125 -8.90625 C 0.789062 -9.007812 0.816406 -9.113281 0.859375 -9.21875 C 0.972656 -9.5 1.210938 -9.628906 1.578125 -9.609375 C 1.710938 -9.585938 1.816406 -9.53125 1.890625 -9.4375 C 1.960938 -9.351562 1.976562 -9.253906 1.9375 -9.140625 C 1.84375 -8.847656 1.6875 -8.609375 1.46875 -8.421875 Z M 1.46875 -8.421875 "/></g></g></g><g clip-path="url(#78fbce18bf)"><g fill="#fff6d2" fill-opacity="1"><g transform="translate(0.597103, 84.249109)"><g><path d="M 52.21875 -38.140625 C 53.53125 -37.085938 54.597656 -35.878906 55.421875 -34.515625 C 56.242188 -33.148438 56.796875 -31.625 57.078125 -29.9375 C 57.210938 -29.0625 57.238281 -28.203125 57.15625 -27.359375 C 57.082031 -26.515625 56.9375 -25.675781 56.71875 -24.84375 C 56.382812 -23.457031 55.894531 -22.144531 55.25 -20.90625 C 54.613281 -19.664062 53.863281 -18.488281 53 -17.375 C 51.851562 -15.914062 50.570312 -14.613281 49.15625 -13.46875 C 47.75 -12.320312 46.25 -11.285156 44.65625 -10.359375 C 41.289062 -8.390625 37.753906 -6.785156 34.046875 -5.546875 C 33.796875 -5.453125 33.53125 -5.351562 33.25 -5.25 C 32.875 -5.132812 32.609375 -5.03125 32.453125 -4.9375 C 32.296875 -4.851562 32.195312 -4.71875 32.15625 -4.53125 C 32.113281 -4.351562 32.09375 -4.078125 32.09375 -3.703125 C 32.09375 0.960938 32.082031 5.617188 32.0625 10.265625 C 32.0625 10.867188 32.0625 11.46875 32.0625 12.0625 C 32.0625 12.101562 32.0625 12.132812 32.0625 12.15625 C 32.0625 12.488281 32.054688 12.816406 32.046875 13.140625 C 32.046875 13.472656 31.992188 13.796875 31.890625 14.109375 C 31.753906 14.640625 31.429688 14.894531 30.921875 14.875 C 30.472656 14.851562 30.175781 14.628906 30.03125 14.203125 C 29.851562 13.492188 29.773438 12.765625 29.796875 12.015625 C 29.796875 11.304688 29.796875 10.597656 29.796875 9.890625 C 29.796875 5.898438 29.796875 1.914062 29.796875 -2.0625 C 29.796875 -2.195312 29.796875 -2.34375 29.796875 -2.5 C 29.847656 -2.976562 29.800781 -3.492188 29.65625 -4.046875 C 29.375 -4.015625 29.125 -3.960938 28.90625 -3.890625 C 28.550781 -3.796875 28.207031 -3.773438 27.875 -3.828125 C 27.75 -3.847656 27.632812 -3.878906 27.53125 -3.921875 C 27.4375 -3.972656 27.382812 -4.070312 27.375 -4.21875 C 27.375 -4.5 27.492188 -4.675781 27.734375 -4.75 C 28.191406 -4.9375 28.671875 -5.101562 29.171875 -5.25 C 29.609375 -5.40625 29.816406 -5.710938 29.796875 -6.171875 C 29.796875 -6.441406 29.796875 -6.726562 29.796875 -7.03125 C 29.796875 -7.175781 29.796875 -7.34375 29.796875 -7.53125 C 29.796875 -9.90625 29.796875 -12.273438 29.796875 -14.640625 C 29.816406 -19.929688 29.828125 -25.226562 29.828125 -30.53125 C 29.828125 -30.582031 29.828125 -30.648438 29.828125 -30.734375 C 29.828125 -31.117188 29.835938 -31.5 29.859375 -31.875 C 29.921875 -32.570312 30.296875 -32.921875 30.984375 -32.921875 C 31.640625 -32.898438 32 -32.546875 32.0625 -31.859375 C 32.082031 -31.515625 32.082031 -31.175781 32.0625 -30.84375 C 32.0625 -30.726562 32.0625 -30.613281 32.0625 -30.5 C 32.0625 -28.84375 32.0625 -27.191406 32.0625 -25.546875 C 32.082031 -19.816406 32.09375 -14.085938 32.09375 -8.359375 C 32.09375 -8.210938 32.09375 -8.0625 32.09375 -7.90625 C 32.0625 -7.4375 32.101562 -6.972656 32.21875 -6.515625 C 32.332031 -6.421875 32.441406 -6.382812 32.546875 -6.40625 C 32.660156 -6.425781 32.765625 -6.453125 32.859375 -6.484375 C 35.617188 -7.515625 38.265625 -8.738281 40.796875 -10.15625 C 43.335938 -11.570312 45.707031 -13.25 47.90625 -15.1875 C 50.769531 -17.6875 52.789062 -20.757812 53.96875 -24.40625 C 54.582031 -26.414062 54.753906 -28.28125 54.484375 -30 C 54.222656 -31.726562 53.613281 -33.273438 52.65625 -34.640625 C 51.707031 -36.015625 50.503906 -37.179688 49.046875 -38.140625 C 46.515625 -39.796875 43.507812 -40.820312 40.03125 -41.21875 C 36.5625 -41.613281 32.914062 -41.484375 29.09375 -40.828125 C 25.28125 -40.179688 21.597656 -39.128906 18.046875 -37.671875 C 14.503906 -36.210938 11.398438 -34.457031 8.734375 -32.40625 C 6.066406 -30.363281 4.128906 -28.148438 2.921875 -25.765625 C 2.648438 -25.296875 2.453125 -24.800781 2.328125 -24.28125 C 2.210938 -23.769531 2.222656 -23.234375 2.359375 -22.671875 C 2.441406 -22.347656 2.394531 -22.109375 2.21875 -21.953125 C 2.050781 -21.796875 1.8125 -21.738281 1.5 -21.78125 C 0.875 -21.875 0.441406 -22.203125 0.203125 -22.765625 C 0.00390625 -23.265625 -0.03125 -23.773438 0.09375 -24.296875 C 0.3125 -25.316406 0.710938 -26.25 1.296875 -27.09375 C 3.210938 -29.875 5.867188 -32.34375 9.265625 -34.5 C 12.660156 -36.65625 16.425781 -38.421875 20.5625 -39.796875 C 24.707031 -41.179688 28.847656 -42.078125 32.984375 -42.484375 C 37.117188 -42.890625 40.875 -42.710938 44.25 -41.953125 C 45.71875 -41.628906 47.117188 -41.15625 48.453125 -40.53125 C 49.785156 -39.90625 51.039062 -39.109375 52.21875 -38.140625 Z M 52.21875 -38.140625 "/></g></g></g></g><g fill="#fff6d2" fill-opacity="1"><g transform="translate(50.559765, 84.249109)"><g><path d="M 6.96875 -5.453125 C 6.695312 -4.878906 6.222656 -4.242188 5.546875 -3.546875 C 4.878906 -2.847656 4.125 -2.40625 3.28125 -2.21875 C 2.4375 -2.03125 1.628906 -2.320312 0.859375 -3.09375 C 0.566406 -3.425781 0.347656 -3.816406 0.203125 -4.265625 C 0.0664062 -4.710938 0.015625 -5.148438 0.046875 -5.578125 C 0.046875 -5.691406 0.046875 -5.835938 0.046875 -6.015625 C 0.046875 -6.472656 0.0664062 -7 0.109375 -7.59375 C 0.148438 -8.195312 0.238281 -8.738281 0.375 -9.21875 C 0.519531 -9.707031 0.738281 -10.003906 1.03125 -10.109375 C 1.882812 -10.316406 2.347656 -10.019531 2.421875 -9.21875 C 2.421875 -8.957031 2.410156 -8.695312 2.390625 -8.4375 C 2.367188 -8.300781 2.359375 -8.175781 2.359375 -8.0625 C 2.347656 -7.6875 2.332031 -7.3125 2.3125 -6.9375 C 2.3125 -6.632812 2.296875 -6.335938 2.265625 -6.046875 C 2.253906 -4.742188 2.546875 -3.96875 3.140625 -3.71875 C 3.742188 -3.476562 4.429688 -3.742188 5.203125 -4.515625 C 5.972656 -5.285156 6.472656 -5.925781 6.703125 -6.4375 C 6.941406 -6.945312 7.113281 -7.050781 7.21875 -6.75 C 7.332031 -6.457031 7.25 -6.023438 6.96875 -5.453125 Z M 2.25 -12.875 C 2.125 -12.769531 1.976562 -12.703125 1.8125 -12.671875 C 1.65625 -12.648438 1.515625 -12.664062 1.390625 -12.71875 C 1.285156 -12.800781 1.21875 -12.90625 1.1875 -13.03125 C 1.164062 -13.164062 1.15625 -13.320312 1.15625 -13.5 C 1.15625 -13.539062 1.164062 -13.578125 1.1875 -13.609375 C 1.195312 -13.773438 1.234375 -13.9375 1.296875 -14.09375 C 1.484375 -14.519531 1.859375 -14.71875 2.421875 -14.6875 C 2.617188 -14.65625 2.769531 -14.570312 2.875 -14.4375 C 2.988281 -14.300781 3.015625 -14.144531 2.953125 -13.96875 C 2.816406 -13.53125 2.582031 -13.164062 2.25 -12.875 Z M 2.25 -12.875 "/></g></g></g><g fill="#fff6d2" fill-opacity="1"><g transform="translate(57.157847, 84.249109)"><g><path d="M 12.953125 -6.484375 C 13.148438 -6.597656 13.34375 -6.6875 13.53125 -6.75 C 13.71875 -6.820312 13.835938 -6.820312 13.890625 -6.75 C 13.953125 -6.675781 13.875 -6.515625 13.65625 -6.265625 C 12.988281 -5.492188 12.1875 -4.785156 11.25 -4.140625 C 10.3125 -3.503906 9.351562 -2.96875 8.375 -2.53125 C 7.601562 -2.175781 6.789062 -1.894531 5.9375 -1.6875 C 5.082031 -1.488281 4.234375 -1.445312 3.390625 -1.5625 C 2.554688 -1.675781 1.796875 -2.046875 1.109375 -2.671875 C 0.0546875 -3.640625 -0.378906 -4.820312 -0.203125 -6.21875 C -0.046875 -7.332031 0.382812 -8.273438 1.09375 -9.046875 C 1.800781 -9.816406 2.695312 -10.34375 3.78125 -10.625 C 4.6875 -10.820312 5.59375 -10.84375 6.5 -10.6875 C 6.914062 -10.625 7.289062 -10.488281 7.625 -10.28125 C 7.9375 -10.039062 8.109375 -9.757812 8.140625 -9.4375 C 8.179688 -9.113281 8.0625 -8.800781 7.78125 -8.5 C 7.207031 -7.988281 6.546875 -7.6875 5.796875 -7.59375 C 4.953125 -7.445312 4.101562 -7.359375 3.25 -7.328125 C 2.84375 -7.328125 2.554688 -7.238281 2.390625 -7.0625 C 2.222656 -6.894531 2.125 -6.601562 2.09375 -6.1875 C 1.957031 -5.070312 2.316406 -4.160156 3.171875 -3.453125 C 3.703125 -3.035156 4.34375 -2.859375 5.09375 -2.921875 C 5.851562 -2.984375 6.65625 -3.1875 7.5 -3.53125 C 8.351562 -3.875 9.1875 -4.273438 10 -4.734375 C 10.820312 -5.191406 11.5625 -5.628906 12.21875 -6.046875 C 12.488281 -6.222656 12.734375 -6.367188 12.953125 -6.484375 Z M 3.609375 -8.875 C 3.609375 -8.863281 3.597656 -8.859375 3.578125 -8.859375 C 3.535156 -8.816406 3.484375 -8.769531 3.421875 -8.71875 C 3.367188 -8.675781 3.316406 -8.628906 3.265625 -8.578125 C 3.222656 -8.523438 3.203125 -8.492188 3.203125 -8.484375 C 3.210938 -8.421875 3.367188 -8.40625 3.671875 -8.4375 C 3.984375 -8.46875 4.320312 -8.519531 4.6875 -8.59375 C 5.050781 -8.664062 5.359375 -8.765625 5.609375 -8.890625 C 5.859375 -9.023438 5.929688 -9.179688 5.828125 -9.359375 C 5.785156 -9.410156 5.726562 -9.457031 5.65625 -9.5 C 5.59375 -9.539062 5.519531 -9.570312 5.4375 -9.59375 C 5.082031 -9.59375 4.753906 -9.519531 4.453125 -9.375 C 4.160156 -9.238281 3.878906 -9.070312 3.609375 -8.875 Z M 3.609375 -8.875 "/></g></g></g><g fill="#fff6d2" fill-opacity="1"><g transform="translate(70.165877, 84.249109)"><g><path d="M 9.859375 -6.46875 C 10.347656 -6.9375 10.5625 -7.050781 10.5 -6.8125 C 10.4375 -6.582031 10.164062 -6.15625 9.6875 -5.53125 C 9.207031 -4.90625 8.613281 -4.226562 7.90625 -3.5 C 7.207031 -2.78125 6.460938 -2.148438 5.671875 -1.609375 C 4.878906 -1.078125 4.128906 -0.789062 3.421875 -0.75 C 2.554688 -0.75 1.859375 -1.003906 1.328125 -1.515625 C 0.804688 -2.035156 0.429688 -2.71875 0.203125 -3.5625 C -0.015625 -4.414062 -0.101562 -5.332031 -0.0625 -6.3125 C -0.0195312 -7.414062 0.015625 -8.519531 0.046875 -9.625 C 0.0664062 -10.175781 0.0859375 -10.71875 0.109375 -11.25 C 0.148438 -12.132812 0.179688 -13.019531 0.203125 -13.90625 C 0.222656 -14.1875 0.175781 -14.421875 0.0625 -14.609375 C -0.0390625 -14.796875 -0.234375 -14.894531 -0.515625 -14.90625 C -0.828125 -14.925781 -1.21875 -14.9375 -1.6875 -14.9375 C -2.101562 -14.9375 -2.457031 -14.9375 -2.75 -14.9375 C -3.164062 -14.976562 -3.441406 -15.085938 -3.578125 -15.265625 C -3.710938 -15.441406 -3.601562 -15.617188 -3.25 -15.796875 C -3 -15.898438 -2.695312 -15.953125 -2.34375 -15.953125 C -1.988281 -15.960938 -1.640625 -15.960938 -1.296875 -15.953125 C -1.085938 -15.929688 -0.898438 -15.921875 -0.734375 -15.921875 C -0.210938 -15.921875 0.101562 -16.003906 0.21875 -16.171875 C 0.34375 -16.335938 0.414062 -16.664062 0.4375 -17.15625 C 0.476562 -17.675781 0.507812 -18.203125 0.53125 -18.734375 C 0.539062 -19.003906 0.5625 -19.28125 0.59375 -19.5625 C 0.59375 -19.976562 0.695312 -20.347656 0.90625 -20.671875 C 1.144531 -20.984375 1.441406 -21.109375 1.796875 -21.046875 C 2.109375 -20.960938 2.285156 -20.765625 2.328125 -20.453125 C 2.347656 -19.929688 2.359375 -19.40625 2.359375 -18.875 C 2.378906 -18.582031 2.378906 -18.285156 2.359375 -17.984375 C 2.359375 -17.671875 2.367188 -17.347656 2.390625 -17.015625 C 2.367188 -16.546875 2.421875 -16.25 2.546875 -16.125 C 2.671875 -16.007812 2.984375 -15.953125 3.484375 -15.953125 C 4.285156 -15.953125 5.082031 -15.953125 5.875 -15.953125 C 6.226562 -15.953125 7.289062 -15.972656 9.0625 -16.015625 C 10.84375 -16.066406 11.800781 -15.925781 11.9375 -15.59375 C 12.070312 -15.257812 10.953125 -15.0625 8.578125 -15 C 7.128906 -14.925781 6.007812 -14.890625 5.21875 -14.890625 C 4.695312 -14.898438 4.222656 -14.90625 3.796875 -14.90625 C 3.085938 -14.90625 2.648438 -14.78125 2.484375 -14.53125 C 2.328125 -14.289062 2.253906 -13.800781 2.265625 -13.0625 C 2.253906 -12.425781 2.222656 -11.65625 2.171875 -10.75 C 2.054688 -8.894531 2 -7.003906 2 -5.078125 C 2.039062 -3.753906 2.273438 -2.894531 2.703125 -2.5 C 3.140625 -2.101562 3.703125 -2.023438 4.390625 -2.265625 C 5.078125 -2.515625 5.820312 -2.957031 6.625 -3.59375 C 7.425781 -4.226562 8.222656 -4.90625 9.015625 -5.625 C 9.179688 -5.851562 9.390625 -6.066406 9.640625 -6.265625 C 9.710938 -6.335938 9.785156 -6.40625 9.859375 -6.46875 Z M 9.859375 -6.46875 "/></g></g></g><g clip-path="url(#80e6473ba8)"><g fill="#fff6d2" fill-opacity="1"><g transform="translate(79.854713, 84.249109)"><g><path d="M 15.203125 -6.90625 C 14.953125 -6.15625 14.460938 -5.289062 13.734375 -4.3125 C 13.003906 -3.34375 12.09375 -2.71875 11 -2.4375 C 9.90625 -2.164062 8.957031 -2.207031 8.15625 -2.5625 C 7.363281 -2.914062 6.929688 -3.863281 6.859375 -5.40625 C 5.953125 -3.644531 5.085938 -2.519531 4.265625 -2.03125 C 3.441406 -1.539062 2.585938 -1.351562 1.703125 -1.46875 C 0.703125 -1.625 0.0234375 -2.007812 -0.328125 -2.625 C -0.679688 -3.25 -0.800781 -3.960938 -0.6875 -4.765625 C -0.570312 -5.578125 -0.328125 -6.359375 0.046875 -7.109375 C 0.347656 -7.660156 0.757812 -8.171875 1.28125 -8.640625 C 1.800781 -9.117188 2.347656 -9.492188 2.921875 -9.765625 C 3.628906 -10.128906 4.34375 -10.300781 5.0625 -10.28125 C 5.78125 -10.257812 6.546875 -10.019531 7.359375 -9.5625 C 7.378906 -9.550781 7.390625 -9.570312 7.390625 -9.625 C 7.390625 -9.695312 7.410156 -9.796875 7.453125 -9.921875 C 7.492188 -10.046875 7.5625 -10.140625 7.65625 -10.203125 C 7.925781 -10.398438 8.242188 -10.5 8.609375 -10.5 C 8.972656 -10.5 9.253906 -10.316406 9.453125 -9.953125 C 9.492188 -9.484375 9.445312 -8.878906 9.3125 -8.140625 C 9.019531 -6.523438 9.019531 -5.363281 9.3125 -4.65625 C 9.601562 -3.945312 10.125 -3.617188 10.875 -3.671875 C 11.625 -3.722656 12.59375 -4.460938 13.78125 -5.890625 C 14.976562 -7.316406 15.453125 -7.65625 15.203125 -6.90625 Z M 1.96875 -3.109375 C 2.382812 -2.816406 2.859375 -2.859375 3.390625 -3.234375 C 3.921875 -3.609375 4.429688 -4.140625 4.921875 -4.828125 C 5.421875 -5.523438 5.835938 -6.21875 6.171875 -6.90625 C 6.503906 -7.59375 6.691406 -8.101562 6.734375 -8.4375 C 5.722656 -8.976562 4.859375 -9.070312 4.140625 -8.71875 C 3.429688 -8.363281 2.863281 -7.785156 2.4375 -6.984375 C 2.007812 -6.179688 1.753906 -5.398438 1.671875 -4.640625 C 1.597656 -3.878906 1.695312 -3.367188 1.96875 -3.109375 Z M 6.40625 -15.953125 C 6.488281 -15.828125 6.570312 -15.703125 6.65625 -15.578125 C 6.945312 -15.128906 7.210938 -14.679688 7.453125 -14.234375 C 7.703125 -13.796875 7.894531 -13.320312 8.03125 -12.8125 C 8.070312 -12.632812 8.085938 -12.46875 8.078125 -12.3125 C 8.066406 -12.15625 7.984375 -12.019531 7.828125 -11.90625 C 7.691406 -11.6875 7.488281 -11.71875 7.21875 -12 C 6.957031 -12.28125 6.660156 -12.671875 6.328125 -13.171875 C 5.910156 -13.753906 5.492188 -14.273438 5.078125 -14.734375 C 4.898438 -14.898438 4.742188 -15.082031 4.609375 -15.28125 C 4.472656 -15.476562 4.421875 -15.660156 4.453125 -15.828125 C 4.492188 -16.003906 4.722656 -16.144531 5.140625 -16.25 C 5.210938 -16.25 5.289062 -16.253906 5.375 -16.265625 C 5.414062 -16.265625 5.457031 -16.265625 5.5 -16.265625 C 5.675781 -16.296875 5.847656 -16.289062 6.015625 -16.25 C 6.179688 -16.207031 6.3125 -16.109375 6.40625 -15.953125 Z M 6.40625 -15.953125 "/></g></g></g></g></g></g></svg>